<?xml version="1.0" encoding="utf-8"?>
<!-- Generator: Adobe Illustrator 27.0.0, SVG Export Plug-In . SVG Version: 6.00 Build 0)  -->
<svg version="1.1" id="Layer_1" xmlns="http://www.w3.org/2000/svg" xmlns:xlink="http://www.w3.org/1999/xlink" x="0px" y="0px"
	 viewBox="0 0 1199.9 900" style="enable-background:new 0 0 1199.9 900;" xml:space="preserve">
<style type="text/css">
	.st0{fill:#E8E8E8;}
	.st1{fill:#D9A577;}
	.st2{fill:none;stroke:#000000;stroke-width:3.0971;stroke-linecap:round;stroke-linejoin:round;stroke-miterlimit:10;}
	.st3{fill:none;stroke:#000000;stroke-width:1.5486;stroke-miterlimit:10;}
	.st4{fill:#FFFFFF;stroke:#000000;stroke-width:1.5486;stroke-linecap:round;stroke-linejoin:round;stroke-miterlimit:10;}
	.st5{fill:#BE6F29;}
	.st6{fill:#F2BC78;}
	.st7{fill:none;stroke:#000000;stroke-width:1.9357;stroke-linecap:round;stroke-linejoin:round;stroke-miterlimit:10;}
	.st8{fill:#FFFFFF;stroke:#000000;stroke-width:1.7994;stroke-linecap:round;stroke-linejoin:round;stroke-miterlimit:10;}
	.st9{fill:#E8A5B8;stroke:#000000;stroke-width:1.7994;stroke-linecap:round;stroke-linejoin:round;stroke-miterlimit:10;}
	.st10{fill:#C4C4C3;}
	.st11{fill:none;stroke:#000000;stroke-width:1.0066;stroke-linecap:round;stroke-linejoin:round;stroke-miterlimit:10;}
	.st12{fill:#E8A6B9;}
	.st13{fill:none;stroke:#000000;stroke-width:1.5486;stroke-linecap:round;stroke-linejoin:round;stroke-miterlimit:10;}
	.st14{fill:#7655A3;}
	.st15{fill:none;stroke:#000000;stroke-width:2;stroke-linecap:round;stroke-linejoin:round;stroke-miterlimit:10;}
	.st16{fill:none;stroke:#000000;stroke-width:1.25;stroke-linecap:round;stroke-linejoin:round;stroke-miterlimit:10;}
	.st17{fill:none;stroke:#000000;stroke-width:1.6457;stroke-linecap:round;stroke-linejoin:round;stroke-miterlimit:10;}
	.st18{fill:none;stroke:#000000;stroke-miterlimit:10;}
	.st19{fill:#FFFFFF;stroke:#000000;stroke-miterlimit:10;}
	.st20{fill:none;}
	.st21{fill:none;stroke:#000000;stroke-linecap:round;stroke-linejoin:round;stroke-miterlimit:10;}
	.st22{fill:#FFFFFF;stroke:#000000;stroke-linecap:round;stroke-linejoin:round;stroke-miterlimit:10;}
	.st23{fill:#FFFFFF;stroke:#000000;stroke-width:1.162;stroke-linecap:round;stroke-linejoin:round;stroke-miterlimit:10;}
	.st24{fill:#E8A5B8;stroke:#000000;stroke-width:1.162;stroke-linecap:round;stroke-linejoin:round;stroke-miterlimit:10;}
	.st25{fill:#CFCECE;}
	.st26{fill:none;stroke:#000000;stroke-width:12.4115;stroke-linecap:round;stroke-linejoin:round;stroke-miterlimit:10;}
	.st27{fill:none;stroke:#000000;stroke-width:6.2057;stroke-miterlimit:10;}
	.st28{fill:#FFFFFF;stroke:#000000;stroke-width:6.2057;stroke-linecap:round;stroke-linejoin:round;stroke-miterlimit:10;}
	.st29{fill:none;stroke:#000000;stroke-width:7.7572;stroke-linecap:round;stroke-linejoin:round;stroke-miterlimit:10;}
	.st30{fill:#FFFFFF;stroke:#000000;stroke-width:7.2111;stroke-linecap:round;stroke-linejoin:round;stroke-miterlimit:10;}
	.st31{fill:#E8A5B8;stroke:#000000;stroke-width:7.2111;stroke-linecap:round;stroke-linejoin:round;stroke-miterlimit:10;}
	.st32{fill:none;stroke:#000000;stroke-width:4.0337;stroke-linecap:round;stroke-linejoin:round;stroke-miterlimit:10;}
	.st33{fill:none;stroke:#000000;stroke-width:12.7715;stroke-linecap:round;stroke-linejoin:round;stroke-miterlimit:10;}
	.st34{fill:none;stroke:#000000;stroke-width:7.9822;stroke-linecap:round;stroke-linejoin:round;stroke-miterlimit:10;}
	.st35{fill:none;stroke:#000000;stroke-width:6.3858;stroke-miterlimit:10;}
	.st36{fill:#FFFFFF;stroke:#000000;stroke-width:6.3858;stroke-linecap:round;stroke-linejoin:round;stroke-miterlimit:10;}
	.st37{fill:none;stroke:#000000;stroke-width:4.1507;stroke-linecap:round;stroke-linejoin:round;stroke-miterlimit:10;}
	.st38{fill:none;stroke:#000000;stroke-width:11.9812;stroke-linecap:round;stroke-linejoin:round;stroke-miterlimit:10;}
	.st39{fill:none;stroke:#000000;stroke-width:5.9906;stroke-miterlimit:10;}
	.st40{fill:none;stroke:#000000;stroke-width:7.4882;stroke-linecap:round;stroke-linejoin:round;stroke-miterlimit:10;}
	.st41{fill:none;stroke:#000000;stroke-width:5.9906;stroke-linecap:round;stroke-linejoin:round;stroke-miterlimit:10;}
	.st42{fill:#FFFFFF;stroke:#000000;stroke-width:5.9906;stroke-linecap:round;stroke-linejoin:round;stroke-miterlimit:10;}
	.st43{fill:none;stroke:#000000;stroke-width:3.8939;stroke-linecap:round;stroke-linejoin:round;stroke-miterlimit:10;}
</style>
<g>
	<path class="st0" d="M373.7,415.4c0,0,35.2,139.3,290.4,212.6l-12,7.3l-48.7,14.5l-40,5.5l-58.9-5.5l-40.1-40l-64.3-99.4
		L373.7,415.4z"/>
	<polygon class="st5" points="745,79.6 759.4,78.7 767.4,86.3 771.4,92.2 771.2,100.4 765.2,105.4 753.7,102.7 750.7,94.7 
		744.1,83.4 	"/>
	<path class="st6" d="M774.7,114.3l10.8-7.8c0,0,61.2,79.1,61.7,83.7l-4.2,11.5l-1.2,2.2C841.8,203.8,788.6,153.8,774.7,114.3z"/>
	<path class="st1" d="M415.5,259.5c6.7,4.7,21.6,10.8,47.6,1.3c2-0.7,3.7-2.1,4.9-3.9c2.5-3.6,10.1-10.4,33.3-14.1
		c1.1-0.2,2.2-0.2,3.2,0c5.4,0.8,25.2,2.6,48.2-10.8c0.8-0.5,1.6-0.8,2.4-1c8.1-2.1,52.7-13.2,70.2-8.4c0.8,0.2,1.5,0.5,2.2,0.9
		c1.9,1,6.2,3.4,10.9,5.4c6.5,2.8,8.3,11.2,3.4,16.3l0,0c-0.6,0.6-1.2,1.1-1.9,1.6l-40.3,25.2c-0.6,0.4-1.2,0.7-1.8,0.9l-55.3,20.6
		c-0.4,0.1-0.8,0.3-1.2,0.4l-60.9,14.3c-0.3,0.1-0.6,0.1-1,0.2l-60.9,8.1c-0.3,0-0.5,0.1-0.8,0.1l-19.6,1.1c-0.5,0-1.1,0-1.6,0
		l-24.7-2.5c-0.4,0-0.9-0.1-1.3-0.2l-17.3-4.1l-1-4.9c-0.2-1.2-0.2-2.4-0.1-3.5l1-6.3c0.3-2.1,1.3-4.1,2.9-5.6l7.5-7.5
		c0.6-0.6,1.4-1.2,2.1-1.6l39.1-22.2C408.2,257.3,412.4,257.3,415.5,259.5z"/>
	<g>
		<g>
			<path d="M502.6,219.9c-46.2,18.7-94.6,37.1-134.5,67.3c-4.5,3.6-9,8-10.4,11.5c-0.5,1.8-0.5,2,0.2,3.1c0.7,1.1,2.7,2.6,5,3.8
				c10.5,5,22.4,6.5,34.3,6.2c24.8-0.5,50.1-3.5,74.9-7.4c49.3-8.5,99.3-20.3,143.4-44.5c18.1-9,72.2-51.2,24.9-56.6
				c-18.8-2.1-37.8,0.2-56.5,2.6c-1,0.2-1.2-1.4-0.2-1.5c18.8-3.1,38-6.2,57.2-4.8c6.4,0.7,13.2,1.6,19.1,6.2
				c18.4,18.6-26,51.8-40.8,60.1c-44.5,26.1-94.8,39.5-145.1,48.8c-25.2,4.5-50.5,8-76.4,8.9c-13.1,0.6-27.1-1-40-6.8
				c-15.2-6.6-16.7-21.2-4.9-32.5c21.9-20.3,50.6-29.5,77.4-40.8c23.8-9.2,47.8-17.5,72.2-25C503,218.2,503.5,219.6,502.6,219.9
				L502.6,219.9z"/>
		</g>
	</g>
	<g>
		<g>
			<path d="M361,356.3c18.3,103.7,57.2,215.9,147,278c13.6,9.6,30.9,12,47.3,13.2c25.3,1.7,53.9-5,78.7-10.8
				c25.8-4.6,48.6-16.8,65.1-37.1c16.3-19.8,24.6-45.5,23.1-71.2c-3.5-81.7-22.5-161.9-42.7-241.5c-0.2-0.8,0.3-1.6,1.1-1.8
				c0.8-0.2,1.5,0.2,1.8,1c11.8,34.7,22.2,69.9,31.3,105.5c9.2,35.6,16.3,71.7,20.9,108.5c1.8,18.8,4.5,37.9,1.2,56.7
				c-3,19.4-11.3,37.9-23.6,53.3c-17.8,23.2-45.7,38.9-74,44.3c-26.8,6.4-55.8,13.4-83.8,11.8c-19.6-1.3-40.6-4.4-56.9-16.3
				c-63.1-42.8-100.9-112.7-121.4-184.3c-10.1-35.6-16.6-72.1-18.1-109c0-0.8,0.6-1.5,1.4-1.5C360.3,355,360.9,355.6,361,356.3
				L361,356.3z"/>
		</g>
	</g>
	<g>
		<g>
			<path d="M398.6,520.7c-12.5,12.4-25,25.4-35.7,39.3c-9.7,13.2-21.3,28.8-20.3,45.4c0.1,1.7-0.8,3.2-2.3,3.9
				c-4.3,2.8-9.1,6.3-11.8,10.6c-1.1,2.1-0.6,1.7-0.6,3c0.7,5.5-7.5,7.3-9.1,1.9c-2.4-11.5,8.9-18,16.6-23.6c0,0-2.2,4.8-2.2,4.8
				c-2.4-10.7,0.8-20.9,4.6-29.6c12.4-25.6,32.6-45.8,54.7-63C397.2,509.9,402.9,516.7,398.6,520.7L398.6,520.7z"/>
		</g>
	</g>
	<path class="st33" d="M337.8,605.3c0,0,6.2,2.4,9.9,4.6"/>
	<g>
		<g>
			<path d="M571.2,476.4c20.8,9.5,36.6,2.7,49.4-15.1c2.4-3.4,7.8-0.6,6.3,3.3c-7.9,26.4-38.7,35.4-59.8,17.7
				C563.8,479.5,567.4,474.3,571.2,476.4L571.2,476.4z"/>
		</g>
	</g>
	<g>
		<g>
			<path d="M707.7,369.8c17-4.5,34.4-9.5,50.6-16.1c15-6.5,32.8-14.3,40.3-29.1c0.7-1.5,2.3-2.4,3.9-2.3c5.1-0.3,11-0.9,15.5-3.2
				c2-1.2,1.4-1.1,2-2.3c2.2-5.1,10.2-2.5,8.9,2.9c-3.7,11.1-16.8,11.1-26.2,12.1l4.3-3.1c-3.2,10.5-11.2,17.7-18.9,23.3
				c-23.5,15.9-51.1,23.3-78.9,27.1C703.5,379.8,702,371.1,707.7,369.8L707.7,369.8z"/>
		</g>
	</g>
	<path class="st33" d="M802.7,327c0,0-4.2-5.1-6.3-8.9"/>
	<g>
		<g>
			<path d="M652.1,635.3c22.7,6.8,61.8,5.8,67.6,34.8l-8.3-8l11.8-3c0,0,12.3-3.3,12.4-3.3c16.7-4,23.3,20.3,6.8,25.2
				c-3.1,1.2-14.2-0.7-17.5-0.8l-13.4-1.5c-4.6,0.1-8.8-2.7-8.3-7.7c0.8-2.9-0.5-6.2-4.5-9.4c-12.8-9.1-31.5-11.9-47-9.7
				C638,653.6,638.6,632.8,652.1,635.3L652.1,635.3z"/>
		</g>
	</g>
	<g>
		<g>
			<path d="M566.8,666.8c-14.9,18.9-24.3,40.9-39.1,60l0.5-9.9l9.8,7.5c0.1,0,10.2,7.6,10.2,7.6c11.8,9.1-1.5,26.8-13.5,18.1
				c-2.1-1.2-8.3-11-9.9-13l-7.5-10.9c-2.6-2.9-2.7-7.5,0.5-9.9c8.2-6.3,15.1-16.6,20.9-25.5c6.1-9.6,11.7-19.8,15.4-30.8
				c1.3-3.9,5.4-5.9,9.3-4.7C568.1,656.8,569.9,663,566.8,666.8L566.8,666.8z"/>
		</g>
	</g>
	<path class="st34" d="M850.2,194.1c0,0-45.4-69.3-69.3-85.5c0,0-3.6,7-9.3,5.5c0,0,28.4,56.3,68.3,88.6"/>
	<g>
		<g>
			<path d="M767.9,101c-0.2,0-0.5,0.4-0.3,0.1c1.6-2.3,2.7-5.5,1.6-8.1c-2.1-5.1-10.4-9.6-15.8-10.3c-3.1-0.2-5.6,0.4-9.2,0.3
				l-0.5-4.1c6.2,4.3,11.3,10.8,10.6,18.8l-0.1-0.8c0.3,1,1,2.4,1.9,3.2C759.3,103.1,764.1,102.1,767.9,101L767.9,101z M770.6,105.5
				c-5.7,2.4-13.3,3.2-18.1-1.7c-1.6-1.7-3.1-3.8-3.4-6.4c0.3-2.7-0.5-5.4-2.1-7.8c-1.5-2.3-3.8-4.6-6.1-6.2c-1.5-1-1.4-2.9-0.4-4.2
				c5.8-10.4,20.2-5.8,27.3-0.3C777.1,84.8,781,97.9,770.6,105.5L770.6,105.5z"/>
		</g>
	</g>
	<path class="st35" d="M549,430.4c2.4,7.3-1.5,15.1-8.8,17.6c-7.3,2.4-15.1-1.5-17.6-8.8c-2.4-7.3,1.5-15.1,8.8-17.6
		C538.7,419.2,546.5,423.1,549,430.4z"/>
	<path class="st35" d="M623.4,406.2c2.4,7.3-1.5,15.1-8.8,17.6c-7.3,2.4-15.1-1.5-17.6-8.8c-2.4-7.3,1.5-15.1,8.8-17.6
		C613.2,395,621,398.9,623.4,406.2z"/>
	<path d="M543.6,425.9c1.4,4.1-0.8,8.6-5,9.9c-4.1,1.4-8.6-0.9-9.9-5c-1.4-4.1,0.8-8.6,5-9.9C537.8,419.5,542.2,421.7,543.6,425.9z"
		/>
	<path d="M618.7,402.4c1.4,4.1-0.8,8.6-5,9.9c-4.1,1.4-8.6-0.8-9.9-5c-1.4-4.1,0.9-8.6,5-9.9C612.9,396.1,617.3,398.3,618.7,402.4z"
		/>
	<g>
		<g>
			<path d="M689.9,219.4c71-7.8,86.4,49.2,47.7,100c-1.8,2.5-6,0.2-4.8-2.6c20.9-51.8,22.3-86.3-42.8-91.9
				C686.8,224.7,686.7,219.7,689.9,219.4L689.9,219.4z"/>
		</g>
	</g>
	<g>
		<g>
			<path d="M684.9,248.2c41.4-4.5,50,28.5,27.8,58.2c-1,1.6-3.6,0.2-2.8-1.5c11.8-30,13.2-50.2-24.9-53.5
				C683.1,251.3,683,248.4,684.9,248.2L684.9,248.2z"/>
		</g>
	</g>
	<path class="st36" d="M522.7,396.5c0,0,11.3-0.1,16.6,2.5"/>
	<path class="st36" d="M577.7,380.3c0,0,10.8-3.3,16.6-2.3"/>
	<path class="st10" d="M778.1,805.5c0,11.9-74.1,21.6-165.5,21.6c-91.4,0-165.5-9.7-165.5-21.6c0-11.9,74.1-21.6,165.5-21.6
		C704,783.9,778.1,793.6,778.1,805.5z"/>
	<path class="st37" d="M868.3,190.8c0,0,4.5,13.2,0.4,21.3"/>
	<path class="st37" d="M881.3,208.2c0,0,1.5,13.9-4.3,20.9"/>
	<path class="st37" d="M499.8,743.3c0,0,5.3,12.9,13.7,16.3"/>
	<path class="st37" d="M493.3,757.9c0,0,4.7,13.1,13,16.9"/>
</g>
</svg>
