<?xml version="1.0" encoding="utf-8"?>
<!-- Generator: Adobe Illustrator 27.0.0, SVG Export Plug-In . SVG Version: 6.00 Build 0)  -->
<svg version="1.1" id="Layer_1" xmlns="http://www.w3.org/2000/svg" xmlns:xlink="http://www.w3.org/1999/xlink" x="0px" y="0px"
	 viewBox="0 0 1199.91 900" style="enable-background:new 0 0 1199.91 900;" xml:space="preserve">
<style type="text/css">
	.st0{fill:#E8E8E8;}
	.st1{fill:#D9A577;}
	.st2{fill:none;stroke:#000000;stroke-width:3.0971;stroke-linecap:round;stroke-linejoin:round;stroke-miterlimit:10;}
	.st3{fill:none;stroke:#000000;stroke-width:1.5486;stroke-miterlimit:10;}
	.st4{fill:#FFFFFF;stroke:#000000;stroke-width:1.5486;stroke-linecap:round;stroke-linejoin:round;stroke-miterlimit:10;}
	.st5{fill:#BE6F29;}
	.st6{fill:#F2BC78;}
	.st7{fill:none;stroke:#000000;stroke-width:1.9357;stroke-linecap:round;stroke-linejoin:round;stroke-miterlimit:10;}
	.st8{fill:#FFFFFF;stroke:#000000;stroke-width:1.7994;stroke-linecap:round;stroke-linejoin:round;stroke-miterlimit:10;}
	.st9{fill:#E8A5B8;stroke:#000000;stroke-width:1.7994;stroke-linecap:round;stroke-linejoin:round;stroke-miterlimit:10;}
	.st10{fill:#C4C4C3;}
	.st11{fill:none;stroke:#000000;stroke-width:1.0066;stroke-linecap:round;stroke-linejoin:round;stroke-miterlimit:10;}
	.st12{fill:#E8A6B9;}
	.st13{fill:none;stroke:#000000;stroke-width:1.5486;stroke-linecap:round;stroke-linejoin:round;stroke-miterlimit:10;}
	.st14{fill:#7655A3;}
	.st15{fill:none;stroke:#000000;stroke-width:2;stroke-linecap:round;stroke-linejoin:round;stroke-miterlimit:10;}
	.st16{fill:none;stroke:#000000;stroke-width:1.25;stroke-linecap:round;stroke-linejoin:round;stroke-miterlimit:10;}
	.st17{fill:none;stroke:#000000;stroke-width:1.6457;stroke-linecap:round;stroke-linejoin:round;stroke-miterlimit:10;}
	.st18{fill:none;stroke:#000000;stroke-miterlimit:10;}
	.st19{fill:#FFFFFF;stroke:#000000;stroke-miterlimit:10;}
	.st20{fill:none;}
	.st21{fill:none;stroke:#000000;stroke-linecap:round;stroke-linejoin:round;stroke-miterlimit:10;}
	.st22{fill:#FFFFFF;stroke:#000000;stroke-linecap:round;stroke-linejoin:round;stroke-miterlimit:10;}
	.st23{fill:#FFFFFF;stroke:#000000;stroke-width:1.162;stroke-linecap:round;stroke-linejoin:round;stroke-miterlimit:10;}
	.st24{fill:#E8A5B8;stroke:#000000;stroke-width:1.162;stroke-linecap:round;stroke-linejoin:round;stroke-miterlimit:10;}
	.st25{fill:#CFCECE;}
	.st26{fill:none;stroke:#000000;stroke-width:2;stroke-miterlimit:10;}
</style>
<g>
	<path class="st0" d="M308.64,392.81c0,0,21.24,63.47-26.46,107.76l15.59-5.66l17.49-7.84l10.52-12.62l5.55-12.49l4.87-17.01
		l-12.54-21.25L308.64,392.81z"/>
	<path class="st1" d="M217.27,370.96c0,0,5.57,3.06,7.2,1.85c1.63-1.21,5.92-1.85,5.92-1.85s2.76,0.27,4.26,1.07
		c1.5,0.79,2.86,1.48,4.36,1.07c1.5-0.41,4.87-0.3,5.49,0.12c0.62,0.42,0.35,2.86,2.53,2.73c2.17-0.14,6.3-2.37,6.57-0.88
		c0.27,1.49,8.83-0.88,8.83-0.88l-36.2,20.65l-13.18,5.71l-10.19,3.4l-4.89,0.68h-4.08h-3.13l-1.9-2.72v-2.45l0.68-4.21l4.62-5.16
		l16.04-13.46L217.27,370.96z"/>
	<g>
		<g>
			<path d="M230.63,361.31c-13.51,10.28-27.76,20.66-38.19,34.13c-1.17,1.58-2.24,3.43-2.38,4.71c0,0.62,0.03,0.69,0.33,1
				c0.32,0.31,1.14,0.61,1.99,0.78c3.89,0.69,7.96,0.14,11.83-1.02c8.13-2.37,16.14-5.62,23.94-9.13
				c15.44-7.19,30.82-15.54,43.13-27.43c5.13-4.57,19.15-23.27,3.11-20.82c-6.36,0.99-12.41,3.45-18.35,5.9
				c-0.31,0.15-0.5-0.35-0.21-0.47c5.91-2.71,11.92-5.43,18.36-6.68c2.16-0.34,4.48-0.67,6.81,0.34c7.69,4.46-3.91,19.33-8.05,23.39
				c-12.29,12.54-27.63,21.45-43.3,29.02c-7.89,3.72-15.88,7.13-24.32,9.76c-4.24,1.36-8.98,2.11-13.75,1.33
				c-5.58-0.82-7.39-5.48-4.51-10.25c5.38-8.64,14-14.21,21.78-20.34c6.99-5.16,14.16-10.02,21.48-14.66
				C230.61,360.7,230.89,361.11,230.63,361.31L230.63,361.31z"/>
		</g>
	</g>
	<g>
		<g>
			<path d="M196.3,418.78c15.28,32.43,38.1,65.83,73.18,78.2c5.32,1.94,11.22,1.19,16.72,0.11c8.46-1.71,17.25-6.46,24.9-10.6
				c8.06-3.83,14.47-9.87,18.06-18.01c3.58-7.96,4.01-17.15,1.23-25.45c-8.47-26.53-21.87-51.18-35.64-75.54
				c-0.14-0.24-0.05-0.55,0.19-0.69c0.23-0.13,0.52-0.06,0.67,0.16c6.98,10.34,13.55,20.98,19.72,31.86
				c6.21,10.86,11.79,22.11,16.56,33.78c2.27,6.01,4.87,12.05,5.48,18.54c0.73,6.64-0.34,13.47-2.97,19.62
				c-3.76,9.2-11.55,16.86-20.35,21.16c-8.23,4.51-17.14,9.38-26.47,11.36c-6.54,1.34-13.73,2.18-20.16-0.27
				c-24.57-8.41-43.24-27.99-56.36-49.7c-6.52-10.8-11.91-22.22-15.69-34.2c-0.08-0.27,0.06-0.55,0.33-0.63
				C195.94,418.41,196.2,418.54,196.3,418.78L196.3,418.78z"/>
		</g>
	</g>
	<g>
		<g>
			<path d="M224.1,467.26c-3,5.18-5.94,10.59-8.22,16.12c-2.01,5.19-4.4,11.38-2.6,16.72c0.19,0.55,0.01,1.13-0.4,1.49
				c-1.16,1.31-2.43,2.89-2.93,4.53c-0.17,0.78-0.06,0.6,0.08,1.04c0.72,1.76-1.82,3.06-2.83,1.45c-1.8-3.56,1.31-6.72,3.33-9.24
				c0.01-0.02-0.29,1.78-0.29,1.78c-1.76-3.3-1.6-6.93-1.13-10.15c1.78-9.51,6.62-17.95,12.34-25.6
				C222.68,463.84,225.16,465.55,224.1,467.26L224.1,467.26z"/>
		</g>
	</g>
	<path class="st2" d="M210.95,502.66c0,0,2.24,0.23,3.66,0.61"/>
	<g>
		<g>
			<path d="M314.85,400.61c-3.8,4.63-7.57,9.48-10.72,14.57c-2.82,4.8-6.19,10.51-5.28,16.08c0.1,0.57-0.17,1.12-0.63,1.41
				c-1.36,1.1-2.86,2.46-3.63,4c-0.3,0.74-0.15,0.59-0.09,1.04c0.43,1.85-2.3,2.72-3.02,0.97c-1.2-3.81,2.39-6.42,4.79-8.58
				l-0.58,1.71c-1.2-3.54-0.46-7.1,0.53-10.2c3.3-9.1,9.44-16.65,16.33-23.26C314,397.01,316.18,399.11,314.85,400.61L314.85,400.61
				z"/>
		</g>
	</g>
	<path class="st2" d="M297.23,431.39c0,0,2.18,0.59,3.51,1.2"/>
	<g>
		<g>
			<path d="M322.81,482.36c5.46,5.95,10.95,18.06,20.71,15.54l-3.68-1.35l0.83,4.06c0,0.01,0.82,4.26,0.82,4.28
				c1.24,5.73,9.69,4.12,8.73-1.67c-0.1-1.11-2.33-4.25-2.85-5.25l-2.45-3.89c-0.66-1.41-2.13-2.31-3.6-1.41
				c-0.75,0.69-1.98,0.78-3.55,0.03c-4.71-2.56-8.33-7.87-9.97-12.97C326.32,475.31,320.01,478.6,322.81,482.36L322.81,482.36z"/>
		</g>
	</g>
	<g>
		<g>
			<path d="M278.61,503.94c6.58,4.89,7.37,7.7,13.95,12.66l1.77,1.55l-3.2,2.69c-0.01,0.02-3.23,1.31-3.25,1.32
				c-3.5,3.61,2.88,8.68,6.07,4.74c0.58-0.59,2.32-2.26,2.67-3.05l3.6-4.81c0.59-1.19,0.21-2.69-1.05-3.22
				c-3.27-1.34-6.45-4.09-9.17-6.52c-2.88-2.62-5.63-5.46-7.81-8.74c-0.76-1.15-2.31-1.47-3.46-0.7
				C277.29,500.78,277.24,502.96,278.61,503.94L278.61,503.94z"/>
		</g>
	</g>
	<path class="st3" d="M252.81,433.25c1.45,2.17,0.86,5.11-1.32,6.56c-2.17,1.45-5.11,0.86-6.56-1.31c-1.45-2.17-0.86-5.11,1.32-6.56
		C248.43,430.48,251.37,431.07,252.81,433.25z"/>
	<path class="st3" d="M277.94,419.22c1.45,2.17,0.86,5.11-1.31,6.56c-2.17,1.45-5.11,0.86-6.56-1.31c-1.45-2.17-0.86-5.11,1.32-6.56
		C273.56,416.45,276.5,417.04,277.94,419.22z"/>
	<path d="M250.49,436.68c0.82,1.23,0.49,2.89-0.75,3.71c-1.23,0.82-2.89,0.49-3.71-0.74c-0.82-1.23-0.49-2.89,0.75-3.71
		C248.01,435.12,249.67,435.45,250.49,436.68z"/>
	<path d="M275.81,422.21c0.82,1.23,0.49,2.89-0.75,3.71c-1.23,0.82-2.89,0.49-3.71-0.74c-0.82-1.23-0.49-2.89,0.74-3.71
		C273.33,420.65,274.99,420.98,275.81,422.21z"/>
	<g>
		<g>
			<path d="M291.78,345.89c22.62-8.92,32.8,8.42,24.63,28.6c-0.37,1-1.95,0.61-1.82-0.44c2.23-18.89-0.4-30.35-22.27-26.37
				C291.25,347.91,290.76,346.27,291.78,345.89L291.78,345.89z"/>
		</g>
	</g>
	<g>
		<g>
			<path d="M292.72,355.81c13.19-5.17,18.99,4.88,14.33,16.64c-0.2,0.61-1.16,0.37-1.06-0.25c1.2-10.9-0.14-17.67-12.96-15.35
				C292.41,356.99,292.12,356.04,292.72,355.81L292.72,355.81z"/>
		</g>
	</g>
	<path class="st4" d="M262.43,414.32c0,0,3.25-2.05,5.26-2.23"/>
	<polygon class="st5" points="168.96,529.83 171.67,533.93 175.39,534.55 177.81,534.44 180,532.71 180.14,530.05 177.05,527.48 
		174.22,528.3 169.8,528.82 	"/>
	<path class="st6" d="M183.8,533.57l0.06-4.54c0,0,34.06-0.59,35.39,0.2l3.81,3.28l-1.17,0.97
		C221.89,533.49,197.41,537.82,183.8,533.57z"/>
	<path class="st7" d="M221.87,530.03c0,0-28.04-3.09-37.48-0.35c0,0,1.06,2.47-0.58,3.62c0,0,20.94,4.76,38.07,1.29"/>
	<g>
		<g>
			<path d="M179.56,530.98c-0.52-1.23-1.3-2.71-2.76-2.84c-0.41-0.06-0.95,0.05-1.27,0.18l0.24-0.17c-1.95,1.89-4.78,1.98-7.24,1.28
				l1.17-0.77c0.8,0.92,1.16,1.73,1.89,2.48c1.36,1.26,4.35,2.47,6.14,1.92c0.91-0.29,1.53-1.26,1.79-2.19
				C179.56,530.77,179.53,530.91,179.56,530.98L179.56,530.98z M181.34,530.72c0.26,4.37-4.03,6.18-7.59,5.03
				c-2.99-0.68-7.33-3.44-5.85-7.22c0.13-0.54,0.61-0.98,1.18-0.8c0.89,0.27,2,0.37,2.94,0.27c0.99-0.12,1.86-0.5,2.51-1.15
				c0.75-0.48,1.61-0.55,2.43-0.5C179.29,526.55,180.72,528.7,181.34,530.72L181.34,530.72z"/>
		</g>
	</g>
	<path class="st8" d="M240.33,425.35c0,0,2.3-7.45,8.35-1.99"/>
	<path class="st9" d="M264.39,446.75c2.74,2.21,16.53-0.51,11.31-8.4c-1.07-1.62-5.63,0.57-7.5,2.08
		C268.2,440.43,262.12,444.92,264.39,446.75z"/>
	<polyline class="st1" points="206.94,382.61 200.01,383.96 196.36,385.37 193.07,387.79 190.9,389.4 188.86,391.98 187.8,394.77 
		185.73,396.33 185.73,398.64 185.73,400.95 185.73,402 185.73,403.13 186.82,404.62 188.18,406.43 188.86,408.84 188.86,409.92 
		191.17,409.92 193.89,409.92 196.33,408.97 197.83,407.89 201.5,406.43 204.05,405.17 206.94,404.28 209.79,400.82 211.42,399.32 
		213.25,397.93 	"/>
	<path class="st1" d="M191.26,397.44c0,0-10.42,10.76-8.07,13.35c2.12,2.33,7.43,1.09,10.69-6.68
		C197.15,396.36,191.26,397.44,191.26,397.44z"/>
	<path class="st10" d="M380.02,543.2c0,4.06-25.23,7.34-56.35,7.34c-31.12,0-56.35-3.29-56.35-7.34c0-4.05,25.23-7.34,56.35-7.34
		C354.79,535.86,380.02,539.14,380.02,543.2z"/>
	<path class="st11" d="M358.03,504.94c0,0,0.28,4.75-1.8,7.02"/>
	<path class="st11" d="M363.25,500.99c0,0,0.84,4.68-0.96,7.18"/>
	<path class="st11" d="M295.75,531.15c0,0-2.32,2.26-4.42,2.21"/>
</g>
<g>
	<path class="st0" d="M874.82,499.8c0,0,52.27,2.47,82.77-70.71l-1.16,13.08l-14.33,50.02l-11.64,10.3l-9.81,4.22H902.8l-15.9-0.83
		L874.82,499.8z"/>
	<path class="st12" d="M891.88,453.29c0,0,1.12,4.03,1.5,4.64c0,0,1.6,3.44,4.15,2.99c2.55-0.45,0,0.24,0,0.24s2.08-0.78,2.3-3.94
		c0-0.07,0.01-0.15,0.01-0.22c0.13-3.34-1.1-3.71-1.1-3.71H891.88z"/>
	<polygon class="st5" points="840.23,522.81 841.66,527.51 845.05,529.16 847.4,529.75 850,528.71 850.88,526.2 848.65,522.85 
		845.71,522.84 841.33,522.07 	"/>
	<path class="st6" d="M852.86,531.85l1.63-4.23c0,0,32.14,11.32,33.1,12.52l0.93,4.07l0.07,0.84
		C888.58,545.04,864.13,540.57,852.86,531.85z"/>
	<path class="st1" d="M943.57,367.96c-2.14,1.54-6.95,3.68-15.73,1.39c-0.68-0.18-1.26-0.56-1.68-1.07
		c-0.88-1.04-3.53-2.92-11.3-3.51c-0.35-0.03-0.72,0-1.06,0.07c-1.78,0.37-8.31,1.32-16.15-2.22c-0.27-0.12-0.54-0.21-0.83-0.26
		c-2.72-0.46-17.7-2.83-23.38-1.02c-0.25,0.08-0.47,0.19-0.7,0.32c-0.6,0.35-1.97,1.14-3.51,1.85c-2.1,0.97-4.45,4.47-2.73,5.9
		l0.82,0.81c0.2,0.17,0.79,0.5,1.03,0.62l14.56,4.8c0.2,0.1,0.41,0.18,0.63,0.23l18.7,5.01c0.14,0.04,0.27,0.06,0.41,0.08
		l20.43,2.99c0.11,0.02,0.22,0.03,0.32,0.03l20.3,1.15c0.09,0,0.17,0.01,0.26,0l6.51-0.09c0.18,0,0.35-0.02,0.53-0.04l8.18-2.2
		c0.15-0.02,0.67-0.64,0.81-0.68l4.12-1.96l0.85-0.55c0.05-0.35,1.4-0.76,1.31-1.11l-0.87-1.23c-0.36-0.53-0.99-0.85-1.52-1.27
		l-2.64-2.08c-0.22-0.18-0.47-0.32-0.74-0.44l-13.37-5.83C945.97,367.14,944.57,367.24,943.57,367.96z"/>
	<g>
		<g>
			<path d="M916.87,355.85c-16.97-0.55-34.57-1.5-51.17,2.36c-1.91,0.49-3.91,1.25-4.82,2.16c-0.4,0.48-0.42,0.55-0.37,0.98
				c0.06,0.45,0.49,1.19,1.05,1.87c2.58,3,6.08,5.14,9.82,6.68c7.8,3.29,16.06,5.83,24.33,8.03c16.51,4.17,33.71,7.4,50.77,5.95
				c6.86-0.3,29.55-5.96,15.55-14.18c-5.56-3.24-11.8-5.16-17.96-7.01c-0.34-0.08-0.17-0.59,0.13-0.5
				c6.29,1.63,12.67,3.32,18.46,6.41c1.89,1.1,3.9,2.31,5.08,4.56c3.08,8.39-15.17,12.48-21,13.06c-17.45,1.97-34.97-0.79-51.9-4.82
				c-8.46-2.09-16.82-4.49-25.02-7.78c-4.15-1.62-8.3-4.04-11.51-7.65c-3.81-4.16-2.27-8.91,2.97-10.8
				c9.63-3.3,19.83-2.19,29.73-2.03c8.68,0.41,17.31,1.17,25.91,2.19C917.24,355.37,917.2,355.87,916.87,355.85L916.87,355.85z"/>
		</g>
	</g>
	<g>
		<g>
			<path d="M853.97,378.76c-8.62,34.8-12,75.11,7.4,106.85c2.9,4.87,7.95,8,12.9,10.64c7.64,4.01,17.46,5.88,26,7.49
				c8.66,2.12,17.45,1.48,25.38-2.57c7.8-3.91,13.94-10.77,17.02-18.96c10.18-25.92,15.34-53.5,20.04-81.08
				c0.04-0.28,0.3-0.46,0.58-0.42c0.26,0.04,0.44,0.28,0.42,0.54c-1.11,12.43-2.73,24.82-4.81,37.15
				c-2.04,12.35-4.81,24.59-8.48,36.65c-2.03,6.09-3.83,12.42-7.45,17.83c-3.63,5.61-8.77,10.24-14.69,13.35
				c-8.73,4.76-19.6,5.79-29.14,3.57c-9.24-1.7-19.22-3.55-27.71-7.9c-5.91-3.09-12.02-6.97-15.47-12.94
				c-13.75-22.03-15.87-49-12.34-74.13c1.76-12.49,4.78-24.75,9.41-36.43c0.1-0.26,0.4-0.39,0.65-0.28
				C853.92,378.24,854.05,378.51,853.97,378.76L853.97,378.76z"/>
		</g>
	</g>
	<g>
		<g>
			<path d="M844.87,414.36c-7.84-4.15-16.07-8.49-24.8-10.2c-2.92-0.55-5.85-0.7-8.35,0.34c-0.54,0.21-1.13,0.05-1.51-0.35
				c-1.34-1.12-2.96-2.34-4.61-2.8c-0.78-0.15-0.61-0.04-1.04,0.11c-1.74,0.78-3.11-1.73-1.53-2.78c3.51-1.91,6.76,1.12,9.34,3.06
				c0.02,0.01-1.79-0.24-1.79-0.24c3.25-1.85,6.88-1.8,10.12-1.42c9.56,1.51,18.14,6.09,25.95,11.59
				C848.25,412.84,846.6,415.38,844.87,414.36L844.87,414.36z"/>
		</g>
	</g>
	<path class="st2" d="M811.29,402.94c0,0-0.16,2.25-0.5,3.68"/>
	<path class="st3" d="M888.05,425.11c-0.42,2.58-2.85,4.33-5.43,3.91c-2.58-0.42-4.33-2.85-3.91-5.43c0.42-2.58,2.85-4.33,5.43-3.91
		C886.72,420.1,888.47,422.53,888.05,425.11z"/>
	<g>
		<g>
			<path d="M881.33,440.35c3.82,8.08,11.46,11.27,20.04,11.01c1.61-0.06,2,2.26,0.45,2.69c-9.69,3.54-21.15-2.72-23.11-12.95
				C878.36,439.46,880.75,438.8,881.33,440.35L881.33,440.35z"/>
		</g>
	</g>
	<g>
		<g>
			<path d="M958.88,434.35c9.27,6,23.94,17.07,23.27,29.36c0,0-0.91-1.56-0.91-1.56c2.79,1.64,6.83,3.46,6.42,7.44
				c-0.38,1.87-3.2,1.55-3.16-0.34c-0.03-0.46,0.15-0.33-0.3-1c-1.06-1.35-2.81-2.38-4.37-3.18c-0.54-0.2-0.89-0.7-0.9-1.25
				c-0.01-2.7-1.27-5.36-2.91-7.84c-4.94-7.4-12.12-13.32-18.96-18.96C955.48,435.82,957.17,433.3,958.88,434.35L958.88,434.35z"/>
		</g>
	</g>
	<path class="st2" d="M980.54,463.61c0,0-2.02,1.01-3.2,1.88"/>
	<g>
		<g>
			<path d="M913.78,511.11c-5.98,7.92-11.06,17.24-13.44,26.83c-0.27,1.61-1.92,2.36-3.4,1.95l-4.55-0.62l-4.37-0.67
				c-2.43-0.37-4.09-2.64-3.72-5.07c0.4-3.01,3.92-4.72,6.54-3.22c0.01,0.05,3.8,2.09,3.82,2.13l3.65,1.97l-3.4,1.95
				c4.2-9.63,10.13-18.37,13.99-28.12C910.7,504.27,916.39,507.58,913.78,511.11L913.78,511.11z"/>
		</g>
	</g>
	<g>
		<g>
			<path d="M880.17,506.13c-5,5.83-9.42,13.06-11.17,20.51c-0.07,1.65-1.52,2.1-2.94,1.77l-4.48-0.51l-4.35-0.55
				c-2.14-0.27-3.65-2.22-3.38-4.36c0.28-2.58,3.19-4.17,5.51-3.04c0.01,0.03,3.93,1.83,3.94,1.86l3.82,1.75l-2.94,1.77
				c3.38-7.69,8.51-14.24,11.81-21.93C877.74,499.9,882.7,503.13,880.17,506.13L880.17,506.13z"/>
		</g>
	</g>
	<path class="st3" d="M914.14,432.57c-0.42,2.58-2.85,4.33-5.43,3.91c-2.58-0.42-4.33-2.85-3.91-5.43c0.42-2.58,2.85-4.33,5.43-3.91
		C912.8,427.57,914.55,430,914.14,432.57z"/>
	<path d="M884.52,426.41c-0.24,1.46-1.61,2.45-3.07,2.21c-1.46-0.24-2.45-1.61-2.21-3.07c0.24-1.46,1.61-2.45,3.07-2.22
		C883.77,423.57,884.76,424.95,884.52,426.41z"/>
	<path d="M910.42,434.02c-0.24,1.46-1.61,2.45-3.07,2.21c-1.46-0.24-2.45-1.61-2.22-3.07c0.24-1.46,1.61-2.45,3.07-2.21
		C909.66,431.19,910.66,432.56,910.42,434.02z"/>
	<g>
		<g>
			<path d="M973.66,380.91c23.27,7.03,20.51,26.95,1.59,37.71c-0.91,0.55-1.91-0.73-1.16-1.47c13.46-13.44,18.5-24.05-1.12-34.5
				C971.99,382.17,972.62,380.58,973.66,380.91L973.66,380.91z"/>
		</g>
	</g>
	<path class="st7" d="M887.59,545.16c0,0-27.07-7.94-34.73-14.1c0,0,1.93-1.87,0.86-3.56c0,0,21.16,3.66,35.63,13.46"/>
	<g>
		<g>
			<path d="M850.82,528.01c-1.44,4.13-6.09,4.16-8.93,1.72c-2.5-1.78-5.44-6-2.62-8.92c0.33-0.45,0.94-0.67,1.4-0.28
				c0.72,0.59,1.7,1.11,2.61,1.38c0.95,0.27,1.91,0.25,2.76-0.1c0.88-0.16,1.7,0.11,2.44,0.48
				C850.54,523.37,851.03,525.91,850.82,528.01L850.82,528.01z M849.09,527.56c0-1.34-0.15-3-1.46-3.68
				c-0.36-0.21-0.89-0.32-1.24-0.31l0.28-0.07c-2.53,1-5.17-0.01-7.18-1.6l1.38-0.26c0.38,1.16,0.41,2.04,0.79,3.02
				c0.77,1.69,3.06,3.95,4.93,4.13c0.96,0.08,1.9-0.57,2.5-1.33C849.16,527.36,849.09,527.5,849.09,527.56L849.09,527.56z"/>
		</g>
	</g>
	<g>
		<g>
			<path d="M971.41,390.12c11.92,3.58,10.47,13.83,0.82,19.36c-0.48,0.31-1-0.37-0.59-0.76c6.78-6.88,9.57-12.32-0.57-17.71
				C970.55,390.77,970.88,389.95,971.41,390.12L971.41,390.12z"/>
		</g>
	</g>
	<path class="st13" d="M891.88,454.6c0,0,1.1,3.44,3.05,5.46c1.69,1.75,4.66,0.66,4.85-1.76c0.17-2.17,0.06-4.87-1.52-5.22"/>
	<path class="st4" d="M907.67,419.65c0,0,3.84-0.22,5.68,0.6"/>
	<path class="st4" d="M886.91,411.64c0,0,3.62,1.28,5.01,2.75"/>
	<path class="st10" d="M1033.36,542.98c0,4.06-25.23,7.34-56.35,7.34c-31.12,0-56.35-3.29-56.35-7.34c0-4.05,25.23-7.34,56.35-7.34
		C1008.12,535.64,1033.36,538.93,1033.36,542.98z"/>
	<line class="st11" x1="887.63" y1="548.41" x2="880.88" y2="551.1"/>
	<line class="st11" x1="880.87" y1="547.18" x2="874.82" y2="546.62"/>
	<path class="st11" d="M948.89,502.49c0,0-2.56,6.64-6.8,8.45"/>
	<path class="st11" d="M956.43,498.03c0,0-2.52,11.62-9.05,15.69"/>
</g>
<g>
	<path class="st0" d="M518.79,410.3c0,0,11.99,47.43,98.9,72.42l-4.1,2.47l-16.6,4.94l-13.63,1.88l-20.06-1.88l-13.65-13.63
		l-21.89-33.86L518.79,410.3z"/>
	<polygon class="st5" points="645.21,295.95 650.12,295.64 652.85,298.23 654.22,300.23 654.16,303.03 652.12,304.73 648.2,303.82 
		647.16,301.06 644.91,297.23 	"/>
	<path class="st6" d="M655.34,307.75l3.67-2.67c0,0,20.84,26.95,21,28.49l-1.43,3.92l-0.39,0.74
		C678.18,338.22,660.07,321.2,655.34,307.75z"/>
	<path class="st1" d="M533.03,357.19c2.29,1.59,7.36,3.66,16.21,0.44c0.68-0.25,1.25-0.73,1.66-1.33c0.83-1.24,3.42-3.56,11.35-4.79
		c0.36-0.06,0.73-0.06,1.09,0c1.85,0.29,8.6,0.89,16.41-3.68c0.26-0.16,0.54-0.27,0.83-0.35c2.76-0.71,17.95-4.48,23.89-2.85
		c0.27,0.07,0.5,0.18,0.74,0.32c0.64,0.36,2.1,1.14,3.72,1.83c2.22,0.95,2.81,3.82,1.15,5.56l0,0c-0.2,0.21-0.42,0.39-0.66,0.54
		l-13.71,8.6c-0.2,0.13-0.41,0.23-0.63,0.31l-18.83,7.02c-0.14,0.05-0.28,0.09-0.42,0.13l-20.73,4.86
		c-0.11,0.03-0.22,0.05-0.33,0.06l-20.73,2.77c-0.09,0.01-0.18,0.02-0.27,0.03l-6.67,0.37c-0.18,0.01-0.36,0.01-0.54-0.01
		l-8.41-0.86c-0.15-0.01-0.3-0.04-0.45-0.07l-5.91-1.4l-0.32-1.67c-0.08-0.39-0.09-0.8-0.02-1.2l0.34-2.15
		c0.11-0.72,0.46-1.39,0.98-1.91l2.56-2.54c0.22-0.21,0.46-0.4,0.73-0.55l13.32-7.56C530.52,356.44,531.95,356.44,533.03,357.19z"/>
	<g>
		<g>
			<path d="M562.67,343.73c-15.74,6.38-32.21,12.65-45.82,22.9c-1.54,1.22-3.07,2.72-3.53,3.92c-0.17,0.6-0.16,0.68,0.06,1.05
				c0.23,0.39,0.93,0.89,1.72,1.28c3.57,1.69,7.64,2.23,11.69,2.13c8.46-0.16,17.04-1.18,25.5-2.53
				c16.79-2.89,33.82-6.9,48.82-15.14c6.15-3.06,24.59-17.43,8.47-19.27c-6.39-0.72-12.88,0.07-19.25,0.87
				c-0.34,0.06-0.39-0.46-0.08-0.51c6.41-1.07,12.93-2.1,19.47-1.62c2.17,0.24,4.5,0.53,6.49,2.11c6.25,6.33-8.85,17.62-13.91,20.45
				c-15.15,8.87-32.29,13.45-49.4,16.63c-8.59,1.52-17.2,2.71-26.03,3.03c-4.45,0.2-9.22-0.32-13.62-2.33
				c-5.17-2.26-5.69-7.23-1.66-11.07c7.46-6.92,17.24-10.04,26.35-13.9c8.1-3.14,16.29-5.95,24.57-8.5
				C562.82,343.15,562.98,343.61,562.67,343.73L562.67,343.73z"/>
		</g>
	</g>
	<g>
		<g>
			<path d="M514.46,390.17c6.23,35.31,19.47,73.53,50.07,94.68c4.63,3.27,10.51,4.09,16.1,4.5c8.61,0.57,18.34-1.7,26.81-3.69
				c8.78-1.58,16.56-5.72,22.16-12.64c5.55-6.74,8.37-15.5,7.87-24.23c-1.2-27.82-7.66-55.13-14.55-82.24
				c-0.07-0.27,0.09-0.55,0.36-0.62c0.26-0.07,0.52,0.08,0.6,0.33c4.02,11.81,7.56,23.8,10.66,35.92
				c3.14,12.11,5.57,24.43,7.11,36.94c0.61,6.39,1.53,12.91,0.42,19.32c-1.04,6.6-3.86,12.91-8.02,18.16
				c-6.05,7.89-15.57,13.23-25.19,15.07c-9.13,2.19-19.01,4.55-28.53,4.01c-6.66-0.43-13.82-1.5-19.38-5.55
				c-21.5-14.57-34.37-38.37-41.33-62.76c-3.45-12.13-5.66-24.57-6.16-37.12c-0.01-0.28,0.2-0.51,0.48-0.52
				C514.2,389.72,514.43,389.92,514.46,390.17L514.46,390.17z"/>
		</g>
	</g>
	<g>
		<g>
			<path d="M527.24,446.15c-4.25,4.22-8.51,8.66-12.16,13.4c-3.3,4.49-7.24,9.82-6.91,15.45c0.04,0.58-0.28,1.1-0.78,1.34
				c-1.47,0.96-3.1,2.15-4.02,3.6c-0.37,0.71-0.21,0.57-0.19,1.03c0.23,1.89-2.57,2.47-3.11,0.66c-0.8-3.91,3.03-6.14,5.64-8.04
				c0.01-0.01-0.75,1.64-0.75,1.64c-0.83-3.64,0.27-7.11,1.58-10.09c4.22-8.71,11.1-15.59,18.63-21.46
				C526.77,442.48,528.72,444.78,527.24,446.15L527.24,446.15z"/>
		</g>
	</g>
	<path class="st2" d="M506.56,474.95c0,0,2.1,0.81,3.37,1.55"/>
	<g>
		<g>
			<path d="M586.03,431.07c7.1,3.23,12.46,0.93,16.84-5.14c0.82-1.15,2.65-0.2,2.15,1.11c-2.69,9.01-13.17,12.05-20.35,6.02
				C583.52,432.14,584.76,430.36,586.03,431.07L586.03,431.07z"/>
		</g>
	</g>
	<g>
		<g>
			<path d="M632.52,394.76c5.8-1.52,11.7-3.23,17.24-5.5c5.11-2.23,11.19-4.87,13.72-9.91c0.25-0.52,0.8-0.81,1.34-0.77
				c1.75-0.1,3.76-0.31,5.29-1.1c0.68-0.42,0.47-0.39,0.68-0.79c0.74-1.75,3.46-0.86,3.02,0.99c-1.27,3.79-5.7,3.8-8.92,4.13
				l1.47-1.05c-1.11,3.57-3.8,6.01-6.42,7.94c-8.02,5.43-17.42,7.93-26.88,9.24C631.09,398.18,630.57,395.2,632.52,394.76
				L632.52,394.76z"/>
		</g>
	</g>
	<path class="st2" d="M664.86,380.2c0,0-1.42-1.75-2.14-3.03"/>
	<g>
		<g>
			<path d="M613.59,485.19c7.73,2.31,21.03,1.97,23.02,11.86l-2.82-2.72l4.02-1.02c0.01-0.01,4.19-1.12,4.21-1.13
				c5.69-1.38,7.93,6.93,2.3,8.59c-1.05,0.39-4.84-0.24-5.97-0.28l-4.57-0.51c-1.56,0.02-3.01-0.91-2.84-2.62
				c0.29-0.97-0.16-2.12-1.52-3.2c-4.36-3.12-10.72-4.06-16.02-3.32C608.78,491.42,609,484.31,613.59,485.19L613.59,485.19z"/>
		</g>
	</g>
	<g>
		<g>
			<path d="M584.54,495.91c-5.06,6.45-8.28,13.92-13.32,20.43l0.17-3.39l3.34,2.55c0.02,0.01,3.47,2.58,3.48,2.6
				c4,3.09-0.5,9.13-4.61,6.17c-0.71-0.42-2.83-3.75-3.37-4.42l-2.56-3.7c-0.89-0.99-0.92-2.54,0.17-3.39
				c2.81-2.16,5.15-5.64,7.13-8.7c2.09-3.29,4-6.75,5.24-10.48c0.43-1.31,1.85-2.03,3.16-1.59
				C584.98,492.51,585.6,494.6,584.54,495.91L584.54,495.91z"/>
		</g>
	</g>
	<path class="st7" d="M681.05,334.94c0,0-15.47-23.59-23.59-29.13c0,0-1.23,2.39-3.16,1.86c0,0,9.66,19.18,23.24,30.18"/>
	<g>
		<g>
			<path d="M653.02,303.22c-0.07,0.01-0.16,0.13-0.09,0.03c0.55-0.79,0.9-1.88,0.55-2.77c-0.72-1.73-3.55-3.27-5.39-3.51
				c-1.04-0.08-1.9,0.15-3.12,0.12l-0.16-1.4c2.11,1.45,3.84,3.69,3.62,6.4l-0.02-0.29c0.1,0.33,0.36,0.81,0.66,1.09
				C650.1,303.95,651.74,303.61,653.02,303.22L653.02,303.22z M653.95,304.75c-1.96,0.81-4.52,1.08-6.15-0.59
				c-0.56-0.59-1.06-1.31-1.16-2.19c0.09-0.92-0.17-1.83-0.71-2.67c-0.52-0.79-1.3-1.58-2.08-2.1c-0.51-0.32-0.48-0.98-0.14-1.42
				c1.97-3.55,6.87-1.96,9.29-0.09C656.16,297.72,657.49,302.17,653.95,304.75L653.95,304.75z"/>
		</g>
	</g>
	<path class="st3" d="M578.47,415.41c0.83,2.48-0.51,5.16-2.99,5.98c-2.48,0.83-5.16-0.51-5.98-2.99c-0.83-2.48,0.51-5.16,2.99-5.98
		C574.96,411.59,577.64,412.93,578.47,415.41z"/>
	<path class="st3" d="M603.83,407.15c0.83,2.48-0.51,5.16-2.99,5.98c-2.48,0.83-5.16-0.51-5.98-2.99c-0.83-2.48,0.51-5.16,2.99-5.98
		C600.33,403.33,603,404.67,603.83,407.15z"/>
	<path d="M576.64,413.85c0.47,1.4-0.29,2.92-1.69,3.39c-1.4,0.47-2.92-0.29-3.39-1.69c-0.47-1.4,0.29-2.92,1.69-3.39
		C574.66,411.69,576.18,412.45,576.64,413.85z"/>
	<path d="M602.21,405.87c0.47,1.4-0.29,2.92-1.69,3.39c-1.4,0.47-2.92-0.29-3.39-1.69c-0.47-1.4,0.29-2.92,1.69-3.39
		C600.23,403.71,601.74,404.47,602.21,405.87z"/>
	<g>
		<g>
			<path d="M626.46,343.53c24.16-2.66,29.44,16.74,16.25,34.06c-0.62,0.87-2.04,0.08-1.64-0.9c7.11-17.64,7.59-29.38-14.56-31.3
				C625.42,345.34,625.38,343.64,626.46,343.53L626.46,343.53z"/>
		</g>
	</g>
	<g>
		<g>
			<path d="M624.76,353.35c14.09-1.53,17.04,9.69,9.46,19.82c-0.36,0.53-1.21,0.06-0.96-0.52c4.01-10.2,4.5-17.08-8.47-18.21
				C624.15,354.41,624.12,353.42,624.76,353.35L624.76,353.35z"/>
		</g>
	</g>
	<path class="st4" d="M569.51,403.84c0,0,3.84-0.04,5.65,0.86"/>
	<path class="st4" d="M588.24,398.34c0,0,3.67-1.13,5.66-0.77"/>
	<path class="st10" d="M656.5,543.13c0,4.06-25.23,7.34-56.35,7.34c-31.12,0-56.35-3.29-56.35-7.34c0-4.05,25.23-7.34,56.35-7.34
		C631.26,535.79,656.5,539.08,656.5,543.13z"/>
	<path class="st11" d="M687.23,333.8c0,0,1.54,4.5,0.14,7.25"/>
	<path class="st11" d="M691.64,339.72c0,0,0.51,4.73-1.45,7.1"/>
	<path class="st11" d="M561.72,521.94c0,0,1.8,4.4,4.66,5.55"/>
	<path class="st11" d="M559.51,526.91c0,0,1.61,4.47,4.42,5.74"/>
</g>
<rect class="st26" width="1199.91" height="900"/>
</svg>
