<?xml version="1.0" encoding="UTF-8"?><svg id="Layer_1" xmlns="http://www.w3.org/2000/svg" viewBox="0 0 1199.91 900"><defs><style>.cls-1{fill:#be6f29;}.cls-2,.cls-3,.cls-4,.cls-5,.cls-6{stroke-linecap:round;stroke-linejoin:round;}.cls-2,.cls-3,.cls-4,.cls-7,.cls-6{fill:none;}.cls-2,.cls-4,.cls-5,.cls-7,.cls-6{stroke:#231f20;}.cls-2,.cls-5,.cls-7{stroke-width:5.99px;}.cls-3{stroke:#000;stroke-width:7.49px;}.cls-8{fill:#f2bc78;}.cls-9{fill:#c4c4c3;}.cls-4{stroke-width:11.98px;}.cls-5{fill:#fff;}.cls-7{stroke-miterlimit:10;}.cls-10{fill:#e8a6b9;}.cls-11{fill:#e8e8e8;}.cls-6{stroke-width:3.89px;}.cls-12{fill:#231f20;}.cls-13{fill:#d9a577;}</style></defs><path class="cls-11" d="M481.42,581.76s144,6.79,228-194.79l-3.18,36.04-39.49,137.78-32.08,28.38-27.01,11.64h-49.16l-43.79-2.3-33.29-16.75Z"/><path class="cls-10" d="M528.41,453.65s3.09,11.09,4.12,12.79c0,0,4.41,9.48,11.44,8.24,7.03-1.25,0,.65,0,.65,0,0,5.74-2.16,6.34-10.85,.01-.2,.02-.4,.03-.61,.36-9.2-3.04-10.23-3.04-10.23h-18.91Z"/><polygon class="cls-1" points="386.14 645.14 390.07 658.1 399.41 662.66 405.89 664.26 413.04 661.4 415.48 654.49 409.34 645.27 401.22 645.23 389.17 643.13 386.14 645.14"/><path class="cls-8" d="M420.92,670.05l4.49-11.66s88.52,31.18,91.18,34.49l2.55,11.2,.19,2.31s-67.35-12.3-98.42-36.34Z"/><path class="cls-13" d="M670.8,218.6c-5.89,4.25-19.15,10.14-43.33,3.83-1.86-.49-3.46-1.56-4.64-2.94-2.43-2.87-9.72-8.03-31.14-9.68-.98-.08-1.97,0-2.93,.19-4.9,1.01-22.88,3.64-44.5-6.12-.73-.33-1.48-.57-2.28-.71-7.5-1.26-48.76-7.8-64.42-2.81-.7,.22-1.3,.53-1.93,.89-1.66,.97-5.44,3.13-9.68,5.08-5.8,2.67-12.26,12.3-7.53,16.25l2.27,2.22c.56,.47,2.16,1.38,2.84,1.71l40.12,13.21c.55,.27,1.13,.49,1.73,.64l51.51,13.8c.37,.1,.75,.18,1.14,.23l56.27,8.24c.3,.05,.6,.08,.9,.09l55.93,3.18c.24,.01,.48,.02,.72,.01l17.93-.25c.49,0,.97-.05,1.45-.12l22.55-6.06c.4-.06,1.84-1.77,2.23-1.88l11.36-5.4,2.33-1.52c.14-.97,3.85-2.1,3.62-3.05l-2.4-3.39c-1-1.47-2.73-2.35-4.2-3.51l-7.26-5.73c-.61-.49-1.3-.9-2.04-1.21l-36.83-16.06c-3.16-1.38-7.01-1.12-9.78,.88Z"/><path class="cls-12" d="M597.26,185.21c-46.75-1.52-95.24-4.12-140.95,6.51-5.25,1.36-10.76,3.44-13.27,5.94-1.09,1.32-1.15,1.53-1.03,2.7,.15,1.23,1.36,3.28,2.9,5.14,7.11,8.25,16.76,14.15,27.06,18.4,21.48,9.06,44.23,16.06,67.03,22.11,45.49,11.48,92.87,20.38,139.85,16.38,18.9-.84,81.39-16.43,42.84-39.07-15.31-8.94-32.5-14.22-49.46-19.3-.93-.23-.47-1.61,.37-1.37,17.34,4.48,34.9,9.14,50.84,17.66,5.21,3.04,10.74,6.35,13.98,12.57,8.48,23.13-41.79,34.38-57.86,35.97-48.07,5.44-96.34-2.19-142.98-13.27-23.31-5.77-46.34-12.38-68.93-21.43-11.43-4.48-22.86-11.12-31.7-21.07-10.5-11.45-6.26-24.55,8.18-29.74,26.52-9.09,54.63-6.03,81.9-5.59,23.9,1.14,47.68,3.21,71.37,6.04,.89,.11,.77,1.47-.13,1.42h0Z"/><path class="cls-12" d="M423.98,248.34c-23.73,95.87-33.06,206.9,20.38,294.34,8,13.41,21.9,22.04,35.53,29.32,21.05,11.05,48.09,16.2,71.62,20.64,23.87,5.83,48.08,4.08,69.92-7.08,21.5-10.78,38.39-29.68,46.88-52.24,28.04-71.41,42.27-147.37,55.2-223.35,.12-.76,.84-1.27,1.6-1.15,.72,.12,1.22,.78,1.15,1.5-3.07,34.24-7.52,68.37-13.25,102.35-5.61,34.01-13.26,67.75-23.35,100.97-5.6,16.79-10.55,34.21-20.53,49.13-9.99,15.46-24.15,28.2-40.48,36.76-24.04,13.12-53.99,15.94-80.26,9.83-25.44-4.67-52.94-9.77-76.32-21.76-16.29-8.51-33.11-19.21-42.61-35.63-37.87-60.68-43.71-134.99-34.01-204.2,4.86-34.4,13.18-68.19,25.93-100.35,.29-.71,1.09-1.06,1.8-.78,.69,.28,1.03,1.03,.81,1.71h0Z"/><path class="cls-12" d="M398.92,346.41c-21.59-11.42-44.26-23.38-68.31-28.09-8.05-1.53-16.13-1.92-23,.92-1.49,.57-3.12,.13-4.15-.98-3.69-3.09-8.16-6.45-12.71-7.72-2.16-.42-1.67-.11-2.86,.3-4.79,2.14-8.57-4.77-4.22-7.66,9.66-5.25,18.62,3.08,25.72,8.43,.04,.02-4.93-.65-4.93-.65,8.94-5.11,18.96-4.97,27.86-3.92,26.34,4.15,49.97,16.78,71.48,31.92,4.42,3.26-.11,10.23-4.88,7.44h0Z"/><path class="cls-4" d="M306.43,314.95s-.43,6.2-1.39,10.13"/><path class="cls-7" d="M517.87,376.02c-1.15,7.11-7.85,11.93-14.95,10.78-7.1-1.15-11.93-7.85-10.78-14.95,1.15-7.11,7.85-11.93,14.95-10.78,7.1,1.15,11.92,7.85,10.77,14.95Z"/><path class="cls-12" d="M499.36,418.01c10.52,22.25,31.57,31.06,55.21,30.33,4.42-.17,5.5,6.22,1.25,7.41-26.69,9.74-58.25-7.49-63.67-35.66-.97-4.52,5.61-6.36,7.21-2.07h0Z"/><path class="cls-12" d="M712.99,401.46c25.55,16.53,65.95,47.02,64.11,80.89,0,0-2.52-4.3-2.52-4.3,7.69,4.51,18.8,9.52,17.7,20.49-1.04,5.15-8.82,4.28-8.7-.94-.09-1.27,.41-.92-.81-2.76-2.93-3.72-7.75-6.55-12.03-8.76-1.5-.54-2.44-1.94-2.49-3.43-.02-7.45-3.5-14.75-8-21.59-13.61-20.38-33.39-36.69-52.24-52.22-4.38-3.3,.26-10.24,4.99-7.37h0Z"/><path class="cls-4" d="M772.66,482.07s-5.55,2.78-8.82,5.18"/><path class="cls-12" d="M588.76,612.92c-16.47,21.82-30.47,47.48-37.02,73.91-.74,4.43-5.29,6.49-9.37,5.38l-12.54-1.71-12.03-1.84c-6.69-1.02-11.28-7.28-10.25-13.96,1.1-8.29,10.81-13.01,18.02-8.88,.03,.13,10.47,5.75,10.53,5.86l10.06,5.42-9.37,5.38c11.57-26.53,27.89-50.6,38.54-77.45,4.93-10.93,20.6-1.82,13.43,7.89h0Z"/><path class="cls-12" d="M496.15,599.2c-13.78,16.06-25.95,35.98-30.77,56.5-.18,4.55-4.18,5.79-8.09,4.88l-12.33-1.4-11.98-1.52c-5.89-.75-10.04-6.12-9.3-12,.78-7.11,8.78-11.48,15.19-8.38,.02,.08,10.82,5.05,10.86,5.12l10.53,4.81-8.1,4.88c9.31-21.2,23.44-39.22,32.53-60.4,4.76-9.65,18.43-.75,11.45,7.52h0Z"/><path class="cls-7" d="M589.73,396.58c-1.16,7.1-7.85,11.93-14.95,10.78-7.1-1.15-11.93-7.85-10.78-14.95,1.16-7.1,7.85-11.93,14.95-10.77,7.1,1.15,11.93,7.85,10.78,14.95Z"/><path class="cls-12" d="M508.15,379.6c-.65,4.02-4.44,6.75-8.46,6.1-4.02-.66-6.75-4.44-6.1-8.46,.65-4.03,4.44-6.75,8.46-6.1,4.02,.66,6.75,4.44,6.1,8.47Z"/><path class="cls-12" d="M579.49,400.57c-.66,4.02-4.44,6.75-8.46,6.1-4.02-.66-6.75-4.44-6.1-8.46,.66-4.03,4.45-6.75,8.47-6.1,4.02,.65,6.75,4.43,6.1,8.46Z"/><path class="cls-12" d="M753.7,254.26c64.11,19.35,56.51,74.23,4.39,103.87-2.5,1.53-5.26-2.01-3.18-4.05,37.08-37.03,50.97-66.26-3.09-95.04-2.71-1.31-.98-5.68,1.88-4.77h0Z"/><path class="cls-3" d="M516.6,706.72s-74.57-21.89-95.68-38.84c0,0,5.31-5.15,2.36-9.82,0,0,58.3,10.09,98.15,37.09"/><path d="M415.32,659.49c-3.98,11.39-16.78,11.45-24.61,4.75-6.9-4.89-14.99-16.53-7.22-24.57,.9-1.24,2.6-1.84,3.86-.77,1.99,1.63,4.68,3.07,7.19,3.8,2.63,.75,5.26,.7,7.6-.26,2.43-.44,4.69,.31,6.72,1.31,5.68,2.95,7.05,9.93,6.47,15.74h0Zm-4.78-1.24c0-3.69-.42-8.27-4.01-10.14-.99-.58-2.46-.88-3.42-.87l.78-.18c-6.97,2.75-14.24-.02-19.77-4.4l3.8-.71c1.05,3.19,1.13,5.62,2.19,8.31,2.12,4.65,8.44,10.88,13.58,11.38,2.63,.23,5.24-1.58,6.87-3.66,.19-.28-.02,.09-.02,.28h0Z"/><path class="cls-12" d="M747.51,279.62c32.84,9.86,28.83,38.09,2.25,53.33-1.31,.85-2.77-1.02-1.64-2.08,18.68-18.96,26.37-33.94-1.58-48.79-1.39-.67-.5-2.91,.97-2.46h0Z"/><path class="cls-2" d="M528.41,457.27s3.02,9.47,8.41,15.05c4.66,4.82,12.83,1.82,13.37-4.86,.48-5.97,.16-13.4-4.19-14.38"/><path class="cls-5" d="M571.91,360.97s10.57-.6,15.66,1.66"/><path class="cls-5" d="M514.72,338.9s9.98,3.53,13.81,7.57"/><path class="cls-9" d="M918.15,700.73c0,11.17-69.51,20.23-155.24,20.23s-155.24-9.06-155.24-20.23,69.51-20.22,155.24-20.22,155.24,9.06,155.24,20.22Z"/><line class="cls-6" x1="516.7" y1="715.68" x2="498.11" y2="723.09"/><line class="cls-6" x1="498.09" y1="712.29" x2="481.42" y2="710.76"/><path class="cls-6" d="M685.48,589.17s-7.04,18.28-18.72,23.27"/><path class="cls-6" d="M706.25,576.9s-6.94,32-24.93,43.22"/></svg>