<?xml version="1.0" encoding="UTF-8"?><svg id="Layer_1" xmlns="http://www.w3.org/2000/svg" viewBox="0 0 1199.91 900"><defs><style>.cls-1{fill:#be6f29;}.cls-2{fill:#f2bc78;}.cls-3{fill:#c4c4c3;}.cls-4{fill:#e8a5b8;}.cls-4,.cls-5,.cls-6,.cls-7,.cls-8,.cls-9{stroke-linecap:round;stroke-linejoin:round;}.cls-4,.cls-5,.cls-6,.cls-8,.cls-10,.cls-9{stroke:#231f20;}.cls-4,.cls-8{stroke-width:7.21px;}.cls-5{stroke-width:12.41px;}.cls-5,.cls-6,.cls-7,.cls-10{fill:none;}.cls-6{stroke-width:4.03px;}.cls-7{stroke:#000;stroke-width:7.76px;}.cls-11{fill:#e8e8e8;}.cls-8,.cls-9{fill:#fff;}.cls-10{stroke-miterlimit:10;}.cls-10,.cls-9{stroke-width:6.21px;}.cls-12{fill:#231f20;}.cls-13{fill:#d9a577;}</style></defs><path class="cls-11" d="M699.34,297.52s60.61,181.13-75.51,307.52l44.48-16.15,49.92-22.38,30.01-36.02,15.85-35.65,13.91-48.54-35.78-60.65-42.88-88.13Z"/><path class="cls-13" d="M438.59,235.17s15.9,8.74,20.56,5.28,16.91-5.28,16.91-5.28c0,0,7.87,.78,12.16,3.04,4.29,2.27,8.17,4.22,12.44,3.05,4.27-1.17,13.89-.84,15.67,.35,1.78,1.19,1.01,8.18,7.21,7.79,6.21-.39,17.98-6.77,18.76-2.52,.78,4.25,25.19-2.51,25.19-2.51l-103.29,58.94-37.62,16.29-29.09,9.7-13.96,1.94h-20.56l-5.43-7.76v-6.98l1.94-12.02,13.19-14.74,45.77-38.4,20.17-16.17Z"/><path class="cls-12" d="M476.71,207.62c-38.56,29.35-79.22,58.96-108.99,97.39-3.33,4.52-6.41,9.8-6.78,13.45-.01,1.78,.07,1.98,.94,2.84,.92,.89,3.24,1.74,5.69,2.24,11.11,1.98,22.71,.41,33.77-2.9,23.19-6.77,46.05-16.03,68.33-26.07,44.05-20.53,87.94-44.36,123.08-78.29,14.63-13.03,54.65-66.41,8.87-59.4-18.14,2.82-35.4,9.84-52.36,16.84-.89,.42-1.43-.99-.6-1.35,16.86-7.74,34.02-15.48,52.4-19.06,6.17-.96,12.78-1.92,19.44,.96,21.95,12.73-11.15,55.16-22.96,66.74-35.07,35.78-78.84,61.22-123.56,82.83-22.5,10.61-45.32,20.35-69.4,27.85-12.1,3.87-25.64,6.01-39.25,3.81-15.92-2.34-21.08-15.64-12.87-29.25,15.36-24.65,39.95-40.56,62.15-58.03,19.95-14.71,40.4-28.6,61.29-41.82,.79-.49,1.58,.68,.82,1.22h0Z"/><path class="cls-12" d="M378.76,371.65c43.62,92.55,108.72,187.86,208.84,223.17,15.19,5.55,32,3.39,47.71,.33,24.15-4.88,49.23-18.42,71.05-30.25,22.99-10.93,41.31-28.16,51.55-51.4,10.22-22.72,11.44-48.94,3.51-72.62-24.17-75.72-62.41-146.05-101.7-215.56-.39-.69-.15-1.57,.54-1.97,.66-.37,1.48-.16,1.91,.45,19.91,29.52,38.66,59.86,56.28,90.9,17.72,31,33.63,63.11,47.25,96.4,6.48,17.14,13.88,34.39,15.63,52.89,2.08,18.94-.96,38.44-8.48,56-10.73,26.26-32.96,48.11-58.07,60.38-23.49,12.88-48.92,26.77-75.54,32.42-18.65,3.81-39.17,6.22-57.54-.76-70.11-23.99-123.39-79.88-160.84-141.84-18.59-30.82-34-63.41-44.79-97.58-.24-.76,.18-1.57,.93-1.81,.74-.24,1.5,.15,1.78,.84h0Z"/><path class="cls-12" d="M458.09,509.97c-8.55,14.79-16.94,30.21-23.46,46-5.73,14.82-12.57,32.47-7.43,47.73,.55,1.56,.04,3.24-1.14,4.25-3.31,3.74-6.92,8.25-8.38,12.94-.5,2.22-.16,1.72,.23,2.97,2.06,5.02-5.21,8.73-8.07,4.14-5.15-10.16,3.75-19.18,9.51-26.37,.02-.04-.82,5.09-.82,5.09-5.02-9.41-4.57-19.79-3.22-28.97,5.09-27.15,18.88-51.23,35.22-73.05,3.5-4.49,10.59,.41,7.56,5.28h0Z"/><path class="cls-5" d="M420.55,611s6.4,.64,10.44,1.74"/><path class="cls-12" d="M717.06,319.8c-10.85,13.22-21.61,27.07-30.6,41.59-8.06,13.71-17.67,30-15.08,45.89,.29,1.62-.48,3.2-1.81,4.02-3.88,3.15-8.17,7.02-10.37,11.41-.85,2.1-.43,1.67-.25,2.96,1.22,5.28-6.55,7.78-8.63,2.78-3.43-10.87,6.81-18.33,13.67-24.49l-1.65,4.89c-3.42-10.1-1.3-20.26,1.52-29.11,9.42-25.96,26.94-47.5,46.6-66.38,4.19-3.86,10.38,2.13,6.6,6.43h0Z"/><path class="cls-5" d="M666.78,407.62s6.22,1.67,10.02,3.42"/><path class="cls-12" d="M739.77,553.07c15.58,16.97,31.26,51.55,59.1,44.34l-10.5-3.86,2.38,11.6s2.35,12.16,2.35,12.21c3.55,16.34,27.66,11.75,24.92-4.78-.3-3.18-6.65-12.13-8.15-14.97l-6.99-11.11c-1.88-4.04-6.09-6.59-10.26-4.02-2.15,1.96-5.65,2.23-10.12,.08-13.43-7.31-23.78-22.47-28.46-37.02-4.27-12.59-22.25-3.19-14.28,7.53h0Z"/><path class="cls-12" d="M613.63,614.66c18.77,13.96,21.03,21.97,39.8,36.13l5.06,4.43-9.13,7.68s-9.22,3.73-9.27,3.78c-9.99,10.29,8.22,24.77,17.31,13.54,1.64-1.69,6.62-6.45,7.61-8.7l10.27-13.73c1.7-3.39,.61-7.68-3.01-9.19-9.33-3.84-18.4-11.68-26.16-18.61-8.21-7.48-16.07-15.59-22.28-24.94-2.16-3.29-6.61-4.19-9.88-2.01-4.08,2.6-4.22,8.82-.32,11.63h0Z"/><path class="cls-10" d="M540.03,412.92c4.13,6.21,2.45,14.58-3.76,18.71-6.21,4.13-14.58,2.45-18.71-3.75-4.13-6.21-2.45-14.59,3.76-18.72,6.19-4.13,14.58-2.45,18.71,3.76Z"/><path class="cls-10" d="M611.74,372.88c4.13,6.21,2.45,14.58-3.75,18.71-6.21,4.13-14.59,2.46-18.72-3.75-4.13-6.21-2.45-14.59,3.76-18.72,6.21-4.13,14.58-2.45,18.71,3.75Z"/><path class="cls-12" d="M533.4,422.72c2.33,3.51,1.39,8.25-2.13,10.59-3.5,2.34-8.25,1.39-10.59-2.12-2.35-3.51-1.39-8.25,2.13-10.59,3.5-2.34,8.25-1.39,10.59,2.13Z"/><path class="cls-12" d="M605.66,381.42c2.34,3.5,1.39,8.25-2.13,10.59-3.51,2.35-8.25,1.39-10.59-2.12-2.34-3.51-1.39-8.25,2.12-10.59,3.51-2.33,8.25-1.38,10.59,2.13Z"/><path class="cls-12" d="M651.24,163.62c64.54-25.45,93.61,24.03,70.27,81.61-1.05,2.85-5.56,1.75-5.19-1.25,6.35-53.91-1.13-86.6-63.55-75.26-3.05,.67-4.45-3.99-1.54-5.1h0Z"/><path class="cls-12" d="M653.9,191.95c37.64-14.76,54.19,13.91,40.9,47.49-.58,1.74-3.3,1.07-3.03-.73,3.41-31.1-.4-50.42-36.97-43.8-1.78,.4-2.59-2.31-.9-2.96h0Z"/><path class="cls-9" d="M567.48,358.91s9.27-5.85,15.02-6.37"/><polygon class="cls-1" points="300.74 688.55 308.46 700.25 319.08 702.02 325.99 701.7 332.24 696.75 332.63 689.17 323.81 681.83 315.73 684.18 303.14 685.66 300.74 688.55"/><path class="cls-2" d="M343.09,699.21l.16-12.94s97.21-1.67,100.99,.58l10.86,9.36-3.33,2.77s-69.84,12.36-108.68,.23Z"/><path class="cls-7" d="M451.72,689.11s-80.02-8.81-106.97-1.01c0,0,3.02,7.05-1.66,10.33,0,0,59.77,13.59,108.64,3.67"/><path d="M330.99,691.81c-1.47-3.52-3.7-7.74-7.88-8.09-1.18-.16-2.7,.14-3.61,.53l.68-.48c-5.57,5.41-13.64,5.65-20.67,3.67l3.35-2.2c2.27,2.64,3.31,4.93,5.41,7.08,3.89,3.59,12.4,7.04,17.52,5.47,2.61-.82,4.38-3.61,5.1-6.24,.1-.33,0,.09,.1,.27h0Zm5.07-.72c.73,12.48-11.49,17.63-21.65,14.35-8.54-1.93-20.92-9.83-16.69-20.6,.36-1.53,1.73-2.81,3.38-2.27,2.55,.76,5.7,1.07,8.39,.76,2.82-.33,5.31-1.43,7.17-3.28,2.14-1.38,4.61-1.58,6.94-1.42,6.61,.55,10.7,6.68,12.47,12.47h0Z"/><path class="cls-8" d="M504.4,390.37s6.57-21.27,23.83-5.67"/><path class="cls-4" d="M573.07,451.47c7.82,6.31,47.17-1.47,32.26-23.97-3.06-4.63-16.05,1.64-21.39,5.94,0,0-17.36,12.8-10.87,18.04Z"/><polyline class="cls-13" points="409.11 268.4 389.33 272.28 378.93 276.3 369.55 283.2 363.34 287.8 357.53 295.17 354.5 303.11 348.58 307.58 348.58 314.17 348.58 320.77 348.58 323.74 348.58 326.97 351.71 331.24 355.59 336.39 357.53 343.26 357.53 346.36 364.12 346.36 371.88 346.36 378.85 343.65 383.13 340.55 393.6 336.39 400.88 332.8 409.11 330.24 417.26 320.38 421.91 316.11 427.11 312.12"/><path class="cls-13" d="M364.37,310.75s-29.74,30.71-23.02,38.11c6.06,6.65,21.2,3.1,30.51-19.05,9.31-22.16-7.5-19.05-7.5-19.05Z"/><path class="cls-3" d="M903.04,726.68c0,11.57-72,20.96-160.82,20.96s-160.82-9.38-160.82-20.96,72.01-20.95,160.82-20.95,160.82,9.38,160.82,20.95Z"/><path class="cls-6" d="M840.27,617.52s.79,13.55-5.14,20.04"/><path class="cls-6" d="M855.16,606.24s2.39,13.36-2.74,20.5"/><path class="cls-6" d="M662.56,692.3s-6.62,6.45-12.61,6.3"/></svg>