<?xml version="1.0" encoding="utf-8"?>
<!-- Generator: Adobe Illustrator 27.0.0, SVG Export Plug-In . SVG Version: 6.00 Build 0)  -->
<svg version="1.1" xmlns="http://www.w3.org/2000/svg" xmlns:xlink="http://www.w3.org/1999/xlink" x="0px" y="0px"
	 viewBox="0 0 1199.91 900" style="enable-background:new 0 0 1199.91 900;" xml:space="preserve">
<style type="text/css">
	.st0{fill:none;stroke:#000000;stroke-miterlimit:10;}
	.st1{fill:none;stroke:#000000;stroke-linecap:round;stroke-linejoin:round;stroke-miterlimit:10;}
	.st2{fill:#FFFFFF;}
	.st3{fill:none;stroke:#000000;stroke-width:1.0459;stroke-miterlimit:10;}
	.st4{fill:#F15B2C;}
	.st5{fill:#FBB043;}
	.st6{fill:#EEC31B;}
	.st7{fill:#FCDC5E;}
</style>
<g id="Layer_1">
	<rect class="st0" width="1199.91" height="900"/>
</g>
<g id="Graph">
	<g>
		<g>
			<path class="st4" d="M684.77,505.2c-1.68,5.72-3.97,11.22-6.73,16.39c-2.81,5.31-6.18,10.29-10,14.88
				c-16.13,19.32-40.38,31.63-67.53,31.63c-40.11,0-73.95-26.89-84.43-63.64c-2.21-7.67-3.39-15.79-3.39-24.18
				c0-15.09,3.82-29.32,10.53-41.72c0.05-0.05,0.07-0.1,0.07-0.14c0.74-1.23,1.44-2.45,2.11-3.68c0.05-0.05,0.07-0.1,0.1-0.14
				c2.69-4.85,5.1-9.9,7.21-15.09c4.83-11.78,8.15-24.35,9.66-37.44c0.65-5.53,0.99-11.13,0.99-16.82c0-4.52-0.22-8.99-0.62-13.39
				c3.63,5.65,6.18,12.04,7.38,18.89c2.07-3.97,3.68-8.17,4.76-12.59c1.11-4.45,1.68-9.06,1.68-13.82l-0.02-12.43
				c7.23,15.48,11.75,32.49,13,50.4c0.24,3.34,0.36,6.73,0.36,10.14c0,1.85-0.02,3.7-0.12,5.53c-0.38,10.41-1.87,20.52-4.37,30.21
				c-1.9,7.45-4.4,14.64-7.43,21.56c-0.12,0.29-0.24,0.58-0.36,0.84c-3.63,8.63-5.62,18.1-5.62,28.02c0,0.84,0.02,1.71,0.05,2.55
				c0.65,19.06,12.43,36.24,30.43,42.49c0.12,0.02,0.22,0.07,0.31,0.1c1.83,0.65,3.73,1.18,5.65,1.61
				c3.97,0.89,8.08,1.37,12.31,1.37c6.83,0,13.36-1.23,19.42-3.48c3.46-1.3,6.75-2.91,9.85-4.83c8.15-5.05,14.88-12.14,19.52-20.57
				c1.97-3.61,3.58-7.47,4.71-11.54c2.28-8.03-0.55-16.63-7.21-21.65l-0.05-0.05c-3.7-2.79-8.32-4.42-13.29-4.42
				c-8.68,0-18.05,5.31-21.53,13.29c-0.79,1.78-1.3,3.68-1.42,5.67c-0.62-0.5-1.23-1.03-1.85-1.54c-3.17-2.67-6.44-5.12-10.94-5.12
				c-12.09,0-18.34,6.57-18.46,18.54v0.46c-16.22-29.44,21.11-58.96,52.33-58.96c3.32,0,6.59,0.29,9.76,0.87
				c7.38,1.27,14.28,3.99,20.38,7.83C683.19,454.59,691.89,481.1,684.77,505.2z"/>
			<path class="st5" d="M668.48,505.25c-1.39,4.73-3.29,9.3-5.58,13.6c-2.33,4.4-5.14,8.53-8.29,12.33
				c-13.39,16.03-33.5,26.24-56.05,26.24c-33.26,0-61.36-22.3-70.03-52.8c-1.85-6.34-2.81-13.1-2.81-20.04
				c0-12.52,3.17-24.35,8.72-34.63c0.05-0.02,0.07-0.07,0.07-0.12c0.6-1.01,1.18-2.02,1.75-3.05c0.02-0.02,0.05-0.07,0.07-0.12
				c2.24-4.01,4.23-8.2,5.98-12.52c4.01-9.76,6.75-20.19,8-31.05c0.55-4.59,0.82-9.23,0.82-13.96c0-3.75-0.17-7.45-0.5-11.1
				c3,4.69,5.12,9.97,6.1,15.67h0.02c3.41-6.56,5.34-14.01,5.34-21.92l-0.02-10.31c3.1,6.63,5.6,13.6,7.45,20.84
				c0.24,3.34,0.36,6.73,0.36,10.14c0,1.85-0.02,3.7-0.12,5.53c-0.38,10.41-1.87,20.52-4.37,30.21c-1.9,7.45-4.4,14.64-7.43,21.56
				c-0.12,0.29-0.24,0.58-0.36,0.84c-3.63,8.63-5.62,18.1-5.62,28.02c0,0.84,0.02,1.71,0.05,2.55
				c0.65,19.06,12.43,36.24,30.43,42.49c0.12,0.02,0.22,0.07,0.31,0.1c1.83,0.65,3.73,1.18,5.65,1.61
				c3.97,0.89,8.08,1.37,12.31,1.37c6.83,0,13.36-1.23,19.42-3.48c3.46-1.3,6.75-2.91,9.85-4.83c8.15-5.05,14.88-12.14,19.52-20.57
				c1.97-3.61,3.58-7.47,4.71-11.54c2.28-8.03-0.55-16.63-7.21-21.65l-0.05-0.05c-3.7-2.79-8.32-4.42-13.29-4.42
				c-8.68,0-18.05,5.31-21.53,13.29c-0.69,1.34-1.14,3.93-1.42,5.67c-3.17-2.67-8.29-6.66-12.79-6.66c-12.09,0-18.34,7.03-18.46,19
				c-10.02-23.58,20.1-46.54,45.04-46.54c2.76,0,5.48,0.24,8.1,0.72c6.13,1.06,11.85,3.32,16.92,6.51
				C667.16,463.27,674.39,485.26,668.48,505.25z"/>
			<path d="M602.6,488.95c0,3.1-2.71,5.62-6.05,5.62c-3.34,0-6.05-2.52-6.05-5.62c0-3.1,2.71-5.62,6.05-5.62
				C599.89,483.34,602.6,485.85,602.6,488.95z"/>
			<path d="M638.09,476.72c0,3.1-2.71,5.62-6.05,5.62c-3.34,0-6.05-2.51-6.05-5.62c0-3.1,2.71-5.62,6.05-5.62
				C635.38,471.11,638.09,473.62,638.09,476.72z"/>
			<path class="st2" d="M632.44,475.27c0,0.8-0.7,1.45-1.56,1.45c-0.86,0-1.56-0.65-1.56-1.45c0-0.8,0.7-1.45,1.56-1.45
				C631.74,473.82,632.44,474.47,632.44,475.27z"/>
			<path class="st2" d="M598.11,488.04c0,0.8-0.7,1.45-1.56,1.45c-0.86,0-1.56-0.65-1.56-1.45c0-0.8,0.7-1.45,1.56-1.45
				C597.41,486.59,598.11,487.24,598.11,488.04z"/>
			<path class="st6" d="M625.05,412.99c-1.85-5.34-14.56-5.79-28.43-0.99c-13.84,4.78-23.6,12.98-21.75,18.31
				c1.68,4.9,12.64,5.65,25.19,1.99c-0.95-0.18-1.81-0.56-2.57-1.09c-0.57-0.41-1.33-0.48-2.01-0.33
				c-7.29,1.52-12.99,1.04-13.85-1.51c-0.48-1.37,0.5-3.12,2.57-4.95l0.07-0.07c2.93-2.6,7.98-5.36,14.01-7.45
				c8-3.15,15.57-3.68,18.99-2.11c0.17,0.05,0.31,0.14,0.46,0.22c0.7,0.38,1.15,0.86,1.35,1.44c0.86,2.55-3.26,6.4-9.87,9.68
				c-0.62,0.31-1.17,0.82-1.37,1.48c-0.28,0.91-0.74,1.77-1.38,2.49C618.59,425.25,626.73,417.89,625.05,412.99z"/>
			<path class="st7" d="M625.05,412.99c-1.85-5.34-14.56-5.79-28.43-0.99l-12.35,12.35c2.93-2.6,7.98-5.36,14.01-7.45
				c8-3.15,15.57-3.68,18.99-2.11c0.17,0.05,0.31,0.14,0.46,0.22c0.7,0.38,1.15,0.86,1.35,1.44c0.86,2.55-3.26,6.4-9.87,9.68
				c-0.62,0.31-1.17,0.82-1.37,1.48c-0.28,0.91-0.74,1.77-1.38,2.49C618.59,425.25,626.73,417.89,625.05,412.99z"/>
		</g>
	</g>
</g>
</svg>
