<?xml version="1.0" encoding="UTF-8"?><svg id="Layer_1" xmlns="http://www.w3.org/2000/svg" viewBox="0 0 1199.91 900"><defs><style>.cls-1{fill:#fff;}.cls-2{fill:none;stroke:#000;stroke-miterlimit:10;}.cls-3{fill:#59b250;}.cls-4{fill:#d1543f;}.cls-5{fill:#c7ad44;}.cls-6{fill:#f89b3e;}.cls-7{fill:#231f20;}</style></defs><path class="cls-7" d="M594.95,371.18s-.09-.02-.14-.02c-2.27-.62-4.64-.83-7.01-.64-4.55,.34-9.08,2.21-12.73,5.88-.39,.37-.76,.73-1.1,1.13-1.36,1.49-2.46,3.15-3.33,4.92-1.65,3.45-2.32,7.26-2.02,11.01,.44,4.87,2.55,9.58,6.39,13.14,1.68,1.68,3.54,2.96,5.47,3.91,7.17,3.54,15.58,2.27,21.71-2.18,5.08-3.7,8.59-9.6,8.52-16.84,.28-10.38-7.01-17.99-15.76-20.29Zm.44,37.68h-.02c-2.16,.62-4.41,.85-6.64,.67-4.07-.32-8.06-2.02-11.21-5.42-3.24-3.35-4.99-7.93-4.94-12.5,0-.62,.02-1.24,.11-1.86,.32-2.02,.09-3.1,.99-5.1,1.03-2.57,2.46-4.69,4.16-6.36,.23-.23,.48-.44,.71-.67,1.1-.96,2.3-1.75,3.56-2.37,3.06-1.54,6.48-2.11,9.83-1.82,.44,.05,.9,.11,1.33,.18,8.09,1.31,15.39,7.7,15.58,17.85,.18,8.82-6.04,15.3-13.46,17.39Z"/><polygon class="cls-3" points="563.69 78.56 585.02 78.56 586.49 99.89 558.55 100.35 563.69 78.56"/><polygon class="cls-6" points="534.87 224.69 535.3 247.73 583.69 289.59 612.5 220.33 537.47 220.33 534.87 224.69"/><path class="cls-6" d="M559,120.11h28.42s3.74,25.85,23.98,60.77l.81,6.85h-74.75s1.21-11.47,9.36-28.07c0,0,11.18-9.92,12.18-39.54Z"/><g><path d="M615.83,186.41c-.21-1.86-.51-3.72-1.15-5.44-.51-1.79-1.38-3.4-2.09-5.03-.39-.83-.85-1.59-1.26-2.37l-1.24-2.48-.11-.16c-3.4-4.99-6.18-10.61-8.57-16.27-1.24-2.8-2.39-5.67-3.56-8.52-1.1-2.87-2.23-5.72-3.15-8.66-1.95-5.84-3.47-11.81-4.5-17.85-.57-3.03-.94-6.07-1.24-9.12-.39-2.99-.32-5.97-.53-8.96v-.09c.39-6,.78-11.79,.23-18.08-.09-.8-.21-1.63-.44-2.55l-.05-.16-.02-.05-.11-.34-.02-.07-.11-.25c-.18-.37-.67-1.01-.9-1.19-.51-.46-.97-.76-1.4-.99-1.72-.94-3.29-1.29-4.85-1.65-3.12-.67-6.23-.9-9.37-.83-3.17,.21-6.32,.21-9.88,2.44-.85,.62-1.79,1.59-2.23,2.99-.18,.74-.41,1.38-.6,2.16-.34,1.68-.6,3.26-.76,4.73-.76,6.02-.96,11.95-1.15,17.9-.16,5.95-.21,11.88-.16,17.81,0,1.42,.07,3.12,.02,4.3-.07,1.13-.39,2.41-.78,3.77-.78,2.69-1.82,5.42-2.89,8.11-4.46,10.75-9.76,21.32-15.21,31.71l-.09,.18-.05,.16c-1.84,5.33-3.31,10.8-4.04,16.52-.18,1.38-.34,2.94-.3,4.41v111.7c.44,4.64,1.42,9.35,3.52,13.74,1.88,3.88,4.64,7.56,8.68,9.93l-.05,.94,2.16,.3,6.5,.9c2.11,.34,4.39,.48,6.62,.69,4.46,.34,8.87,.41,13.26,.41h.05c2.41,.02,4.85,0,7.31-.09,1.95-.07,3.91-.16,5.86-.32,.64-.07,1.26-.11,1.91-.16,1.59-.14,3.17-.28,4.73-.53l6.48-.9,1.82-.25,.62-.09-.16-.97c.69-.37,1.33-.8,1.93-1.29,.92-.67,1.77-1.45,2.55-2.27,1.75-1.86,3.12-4,4.23-6.2,1.49-3.03,2.46-6.23,3.08-9.44,.28-1.45,.48-2.92,.64-4.37v-.25c.32-25.34,.48-50.71,.55-76.07v-2.57c.02-.85,.02-1.72,.02-2.57,.02-10.25,.05-20.47,.07-30.72,.09-.46,.11-.78,.16-1.19l.09-1.49c.07-.99-.02-1.93-.05-2.89Zm-6.41,117.52c-.34,4.14-1.17,8.2-2.85,11.81-.69,1.56-1.59,3.06-2.66,4.37-.71,.9-1.52,1.72-2.37,2.41-.8,.69-1.68,1.26-2.6,1.7l-.21,.09-.25,.14,.3-.05,.8-.11-.44,.6-1.61,2.18-.02-.23-.32-1.77,1.29-.62-5.33,.74c-2.09,.34-4.23,.46-6.36,.64-.16,.02-.34,.02-.51,.02-2.62,.21-5.24,.32-7.9,.34-1.47,.05-2.96,.05-4.46,.05-1.08,0-2.18,0-3.26-.02-3.22-.02-6.41-.14-9.56-.37-2.11-.21-4.18-.32-6.36-.67l-5.35-.76,1.06,.51-.07,1.61-.02,.25-2.02-2.5,1.06,.14-.46-.21c-3.31-1.52-6.09-4.76-7.79-8.41-1.77-3.68-2.67-7.86-3.06-12.08v-111.52c0-1.22,.11-2.34,.25-3.58,.05-.3,.07-.6,.14-.9,.07-.6,.16-1.17,.25-1.77,.76-4.25,1.93-8.48,3.35-12.61-.02,.05-.05,.07-.07,.11l.14-.34c-.02,.07-.05,.16-.07,.23,5.49-10.5,10.78-21.02,15.32-32.05,1.13-2.78,2.21-5.61,3.08-8.57,.41-1.49,.85-3.08,.97-4.92,.05-1.75-.02-3.01-.02-4.55,0-1.06-.02-2.09-.02-3.15,0-4.82,.05-9.67,.18-14.47,.05-1.77,.11-3.52,.21-5.28t0-.05c.14-4.09,.39-8.13,.9-12.11,.16-1.47,.39-2.78,.64-4.02,.14-.64,.39-1.4,.57-2.09,0,0,.09-.23,.44-.46,1.47-1.01,4.5-1.47,7.15-1.52,2.76-.07,5.58,.16,8.25,.71,1.29,.28,2.64,.67,3.52,1.15,.14,.07,.23,.14,.3,.21,0-.05-.02-.07-.02-.11,.02,.02,.02,.05,.05,.05l-.05-.07-.02-.07s-.02-.05-.02-.05h.02l-.02-.02q0-.07,.02,.02v.02l.07,.16s.02,.02,.02,.02v.02l.02,.07s-.05-.02-.07-.05c.11,.48,.18,1.08,.25,1.7,.37,5.1-.02,10.68-.48,16.06,0,.14-.02,.28-.02,.41-.02,.25-.05,.48-.07,.74v.23c.14,3.22,.02,6.46,.37,9.65,.25,3.06,.55,6.11,1.06,9.14l.07,.41c.96,6.36,2.46,12.64,4.39,18.75,1.88,6.11,4.16,12.15,7.08,17.85,1.47,2.85,3.03,5.65,4.69,8.41,1.63,2.64,3.17,5.33,5.01,7.93,.6,1.47,1.26,2.92,1.68,4.43,.32,1.54,.83,3.03,.94,4.57,.16,1.1,.28,2.18,.39,3.26,.05,.39,.07,.8,.11,1.19,0,.28,.02,.53,.02,.8,.02,.46,.05,.92,.02,1.33l-.05,1.03-.11,.76-.09,.8v.71c.02,8.96,.02,17.94,.05,26.9v1.06c0,1.36,.02,2.71,.02,4.07v2.69c0,.64,0,1.29,.02,1.93-.02,.32,0,.62,0,.94,.07,23.71,.21,47.42,.51,71.13,0,.94,0,1.91,.02,2.85Zm-10.68,20.38l-.25,.14,.3-.05s-.05-.07-.05-.09Zm-15.21-242.25s.02,.05,.05,.05l-.05-.07v.02Zm-.05-.16v.02h.02l-.02-.02Z"/><line class="cls-2" x1="560.83" y1="100.35" x2="585.83" y2="100.35"/><path d="M535.67,185.58s1.2,.2,3.29,.4c2.09,.27,5.08,.4,8.67,.65,3.59,.05,7.77,.26,12.26,.17,4.48-.04,9.27-.08,14.05-.11,4.78-.01,9.57-.1,14.05-.24,4.49-.13,8.67-.17,12.26-.34,7.17-.32,11.96-.53,11.96-.53v6.92s-4.78-.21-11.96-.53c-3.59-.17-7.77-.21-12.26-.34-4.48-.13-9.27-.22-14.05-.24-4.78-.04-9.57-.08-14.05-.11-4.49-.08-8.67,.13-12.26,.17-3.59,.25-6.58,.37-8.67,.65-2.09,.2-3.29,.4-3.29,.4v-6.92Z"/><path d="M611.41,226.1s-4.78-.16-11.96-.4c-7.18-.16-16.74-.42-26.31-.44-4.78-.03-9.57-.06-14.05-.09-4.49-.04-8.67,.1-12.26,.15-7.17,.27-11.96,.79-11.96,.79v-6.92s4.78,.51,11.96,.79c3.59,.05,7.78,.19,12.26,.15,4.48-.03,9.27-.06,14.05-.09,9.57-.02,19.14-.28,26.31-.44,7.17-.24,11.96-.4,11.96-.4v6.92Z"/></g><g><path class="cls-4" d="M710.6,269.5c0-13.34-4.01-23.77-10.12-31.18-10.05-13.23-24.58-13.64-28.71-13.64-10.2,0-18.72,5.65-24.62,6.69-5.9-1.04-14.41-6.69-24.62-6.69-4.13,0-18.66,.41-28.71,13.64-6.11,7.41-10.12,17.84-10.12,31.18,0,11.42,2.78,23.21,6.99,33.45,1.58,4.06,4.36,10.18,8.6,16.38,4.65,6.69,9.46,13.36,15.64,16.5,2.35,1.31,4.84,2.07,7.59,2.07,9.24,0,13.32-6.04,24.63-6.09,11.31,.05,15.38,6.09,24.63,6.09,2.74,0,5.23-.76,7.59-2.07,6.18-3.15,10.98-9.81,15.64-16.5,4.25-6.2,7.03-12.31,8.61-16.38,4.21-10.24,6.99-22.04,6.99-33.45Z"/><path d="M715.04,269.15l-.37-5.74c-.14-1.91-.11-3.74-.71-5.95l-1.47-6.34c-.55-2.11-1.56-3.95-2.34-5.93l-1.29-2.92c-.55-.92-1.17-1.79-1.75-2.69-1.29-1.77-2.25-3.58-3.81-5.31-1.4-1.42-2.34-2.76-4.16-4.25-1.82-1.36-3.63-3.12-5.56-4.04-3.77-2.25-7.93-3.65-12.11-4.5-2.09-.37-4.2-.69-6.32-.73-.37-.02-.76-.05-1.13-.05-.67-.02-1.33-.02-2.02,0-1.49,.07-2.04,.21-3.12,.32-.02,0-.07,0-.09,.02-1.81,.21-4.37,.78-6.2,1.4-.62,.18-1.24,.39-1.84,.62-1.33,.46-2.62,.99-3.88,1.52-1.13,.51-2.23,1.03-3.31,1.56-1.42,.69-2.83,1.36-4.18,1.93-.02,.02-.07,.05-.11,.05-.48,.23-.96,.41-1.42,.6-.25,.09-.51,.18-.76,.28-.53-.14-1.06-.28-1.59-.46-4.94-1.56-10.38-4.46-16.31-5.54-4.53-.9-9.12-.99-13.62-.28-1.4,.21-2.78,.51-4.16,.9-.09,.02-.21,.05-.3,.07-.74,.21-1.49,.44-2.23,.71-.05,0-.11,.02-.16,.05-1.17,.41-2.34,.87-3.47,1.45-5.17,2.39-9.81,6.02-13.35,10.52-1.19,1.54-1.91,2.71-2.89,4.09-.92,1.33-1.86,2.62-2.53,4.34-1.52,3.22-3.06,6.46-3.68,9.79l-1.24,4.96-.41,5.08c-.05,.71-.11,1.38-.18,2.04-.09,.99-.16,2-.21,3.19l.25,4.85c.02,3.17,.67,6.59,1.19,9.97,.16,1.47,.48,2.89,.83,4.3,.46,1.84,1.01,3.65,1.42,5.51,.87,3.22,2.16,6.32,3.24,9.49,1.42,3.15,2.44,5.97,4.11,8.98,1.72,2.96,3.33,5.93,5.22,8.87,.55,.8,1.13,1.63,1.72,2.44,0,.02,.02,.07,.05,.09,.11,.16,.23,.32,.37,.48,.69,.97,1.4,1.95,2.16,2.94,.11,.14,.23,.28,.34,.41,.14,.18,.28,.39,.44,.57,.28,.35,.55,.71,.85,1.06,.99,1.38,2.34,2.57,3.56,3.84l1.88,1.86,2.3,1.59c1.52,1.06,3.15,2.11,4.59,2.73,2.02,.8,3.95,1.36,5.95,1.47,.62,0,.78,.09,1.75,.05l1.22-.09c.87-.09,1.47,0,2.55-.28l2.96-.67,1.56-.53,.99-.34c3.24-1.26,5.97-2.5,8.71-3.22,1.4-.23,2.76-.64,4.18-.62,.57-.05,1.68-.09,1.84-.14l2.44,.18c1.77,.05,2.71,.51,4.04,.71,1.38,.46,2.73,.85,4.16,1.49,2.85,1.13,6.04,2.76,9.9,3.45,.92,.21,1.91,.23,2.85,.32,.6,.02,.71,.09,1.7,.09l1.22-.07c.67,0,2-.25,3.06-.48,1.08-.28,1.95-.62,2.92-.97,.94-.51,1.68-.69,2.76-1.47l2.02-1.33c.67-.46,1.33-.87,2.02-1.38l2.09-1.98c3.01-2.69,4.82-5.33,6.98-8l2.92-4.02,.18-.25,.32-.51,.32-.51,.62-1.06,1.24-2.07c1.65-2.78,3.4-5.44,4.78-8.8,.74-1.63,1.47-3.1,2.18-4.87l1.68-4.55c1.22-2.92,2.02-6.39,2.94-9.7,.99-3.33,1.29-6.69,1.95-10.04,.46-3.38,.51-6.82,.78-10.22l-.02-.37Zm-8.91,.41c-.21,3.01-.18,6.07-.57,9.07-.55,3.01-.76,6.16-1.61,9.03-.8,2.94-1.33,5.81-2.55,8.91l-1.63,4.57-1.72,4.02c-.99,2.69-2.76,5.51-4.39,8.32l-1.22,2.09-.6,1.06-.18,.32s-.11,.18-.14,.21l-.02,.05-.14,.18-2.73,3.88c-1.86,2.41-3.81,5.08-5.63,6.75l-1.36,1.45c-.57,.46-1.31,.92-1.95,1.38l-2,1.36c-.21,.23-1.06,.55-1.52,.83-.57,.21-1.19,.46-1.68,.6-.53,.07-.76,.28-1.72,.3l-1.19,.09h-.02c-.14-.02-.55-.05-.71-.09-.67-.07-1.31-.02-1.98-.16-2.55-.39-5.24-1.65-8.41-2.89-1.54-.67-3.31-1.17-5.01-1.72-1.84-.35-4.02-.9-5.49-.87l-2.44-.16c-1.45,.02-1.95,.11-2.99,.18-1.81,.05-3.61,.53-5.4,.9-3.52,.99-6.69,2.48-9.44,3.58l-1.47,.55-.57,.21-1.77,.44c-.48,.21-1.52,.18-2.25,.3l-1.19,.09h-.02c-.11,0-.51-.05-.67-.05-1.24-.02-2.46-.41-3.45-.74-1.56-.64-2.62-1.4-3.74-2.18l-1.75-1.13-1.59-1.54c-1.03-1.06-2.16-1.98-3.08-3.24-.37-.41-.71-.85-1.1-1.31-1.03-1.29-2.07-2.66-3.12-4.09-.48-.69-.99-1.4-1.49-2.11-1.63-2.5-3.15-5.22-4.76-7.79-1.54-2.62-2.8-5.9-4.09-8.59-1.01-2.96-2.27-5.84-3.12-8.87-1.22-4.25-2.23-8.27-2.85-12.52-.32-1.88-.53-3.81-.64-5.81l-.09-1.52-.21-3.33,.3-4.43,.3-4.62,1.08-4.46c.48-3.1,1.79-5.7,2.94-8.41,.41-1.36,1.36-2.69,2.27-4.04,.87-1.26,1.86-2.85,2.64-3.86,3.22-4.2,7.42-7.47,12.22-9.6,.16-.07,.32-.14,.48-.18,.51-.25,1.01-.46,1.54-.64,1.63-.62,3.35-1.1,5.1-1.45,4.18-.83,8.57-.85,12.68-.09,2.96,.57,5.9,1.54,8.89,2.69,3.03,1.08,5.93,2.48,9.63,3.19l.23,.09,.57-.09c4.41-.55,7.95-2.07,11.56-3.03,1.77-.53,3.54-1.01,5.26-1.33,1.84-.32,3.01-.53,5.01-.57,.83,0,2.21-.05,2.6-.02,.87,.07,1.75,.09,2.6,.23,1.72,.16,3.4,.53,5.05,.94,1.61,.48,3.24,.94,4.73,1.7,1.61,.57,2.94,1.54,4.39,2.37,1.54,.76,2.39,1.88,3.68,2.76,1.19,.9,2.5,2.73,3.74,4.04,1.06,1.1,1.93,2.73,2.92,4.04l1.42,2.09,1.03,2.34c.64,1.56,1.59,3.1,2.02,4.69l1.29,4.82c.57,1.47,.62,3.52,.8,5.4l.48,5.4v.05Z"/></g><g><path class="cls-3" d="M673.22,216.56c5.37-6.37,9.17-15.22,9.17-24.06,0-1.23-.1-2.47-.33-3.47-8.74,.33-19.13,5.82-25.4,13.09-4.93,5.6-9.52,14.44-9.52,23.4,0,1.35,.23,2.7,.33,3.13,.55,.1,1.45,.23,2.35,.23,7.84,0,17.7-5.25,23.4-12.32h0Z"/><path d="M684.35,190.64l-.32-1.84-.37-2.02-1.68,.3c-1.29,.14-2.62,.23-3.88,.44-1.26,.32-2.53,.55-3.77,.94-2.44,.76-4.78,1.77-7.03,2.92l-3.31,1.91-3.1,2.18-2.92,2.48-2.67,2.76c-.87,1.06-1.56,1.84-2.34,2.92-.74,1.08-1.54,2.14-2.14,3.24-1.31,2.16-2.46,4.46-3.33,6.85-.48,1.17-.8,2.41-1.17,3.65-.39,1.22-.53,2.5-.78,3.77-.25,1.26-.21,2.57-.32,3.88-.02,1.56,.16,2.39,.28,3.52,0,.11,.02,.23,.02,.34l.02,.18,.23,1.33,1.33,.21,2.02,.28,.09,.02,.55,.07h.62l.92-.05c1.19,.05,2.53-.11,3.95-.41,1.45-.18,2.67-.62,3.95-.99,1.31-.32,2.48-.94,3.72-1.42,1.24-.48,2.37-1.19,3.56-1.79,.8-.41,1.54-.92,2.3-1.42,.34-.25,.71-.48,1.08-.71,1.45-1.06,2.83-2.21,4.16-3.47,.64-.6,1.29-1.24,1.91-1.91l.14-.18c.76-.99,1.56-1.93,2.27-2.94,.69-1.08,1.4-1.95,1.93-3.33l1.65-3.86,.8-1.91,.48-1.95,.9-3.91c.41-1.26,.28-2.66,.41-3.97l.11-3.97c-.07-1.15-.21-1.38-.3-2.11Zm-4.25,2.07l-.64,3.42c-.25,1.1-.23,2.25-.74,3.33l-1.19,3.22-.6,1.61-.83,1.42-1.61,2.8c-.39,.92-1.42,1.91-2.09,2.89-.67,.94-1.29,1.95-1.91,2.94-1.31,1.75-2.78,3.4-4.48,4.89-.9,.71-1.72,1.49-2.67,2.11-.87,.55-1.7,1.19-2.6,1.7-.09,.07-.18,.12-.28,.16-1.01,.51-1.98,1.17-3.03,1.54-1.06,.41-2.14,.94-3.12,1.15-.25,.07-.48,.16-.76,.23-.76,.23-1.61,.41-2.57,.48l-.92,.14s-.21,.02-.3,.05h-.05l-.32-.02h-.16c.05,.44,.09,.87,.14,1.29,.02,.05,.02,.11,.02,.18l-.14-.14-1.42-1.38,1.4,.05c-.07-.69-.14-1.33-.09-1.72,.09-1.1,.05-2.25,.28-3.35,.23-1.13,.32-2.25,.71-3.33,.3-1.1,.57-2.23,1.03-3.29,.78-2.16,1.84-4.23,3.03-6.2,.55-1.03,1.24-1.91,1.86-2.85,.62-.9,1.52-1.93,2.21-2.76l2.39-2.46,2.62-2.23,2.85-2,2.99-1.75c2.07-1.06,4.18-1.95,6.36-2.64,1.1-.32,2.21-.53,3.31-.8,.46-.07,.9-.14,1.36-.16v-.11l-.02-1.86,2,1.75c-.67,.09-1.31,.14-1.98,.23-.02,.53,.07,1.4-.05,1.47Z"/></g><path class="cls-1" d="M442.74,371.18v2.14c0,.25-.9,1.45-2.71,3.63-1.81,2.18-2.73,3.38-2.73,3.58,0,.14,.92,1.31,2.73,3.49,1.82,2.21,2.71,3.42,2.71,3.65v2.18c0,.21-.14,.32-.41,.39-.21,.05-.51,.05-.87,.02-.51-.02-.76-.05-.76-.05-1.06,0-1.7-.12-1.93-.37-.83-1.22-2.09-3.06-3.79-5.45-.32-.44-.51-.64-.55-.64-.11,0-.9,1.03-2.3,3.12-1.42,2.11-2.27,3.22-2.6,3.26-.3,.05-1.26,.07-2.89,.07-.32,0-.48-.12-.48-.37v-2.21c0-.16,.9-1.33,2.71-3.52,1.81-2.21,2.71-3.4,2.71-3.61s-.9-1.4-2.71-3.58c-1.81-2.18-2.71-3.38-2.71-3.58v-2.18c0-.28,.16-.41,.48-.41,.34,0,.85,.02,1.54,.07,.69,.07,1.19,.09,1.54,.09,.18,0,.34,.09,.51,.28,.8,1.24,2.02,3.08,3.68,5.47,.32,.46,.51,.69,.53,.69,.05,0,.18-.18,.44-.53,.8-1.08,2.09-2.99,3.91-5.7,.14-.18,.3-.3,.48-.3,.32,0,.83,0,1.49-.02,.67-.05,1.17-.05,1.49-.05,.34,0,.51,.14,.51,.41Z"/><path class="cls-1" d="M448.02,265.29c-17.28-30.19-44.53-52.8-73.5-71.5,4.66-.53,9.37-.92,14.13-1.17,4.87,3.52,9.65,7.17,14.34,10.98,9.93,8.29,19.37,17.21,27.91,26.97,8.27,9.99,15.69,20.75,21.3,32.51,.57,1.17,.07,2.6-1.1,3.15-1.13,.53-2.46,.11-3.08-.94Z"/><path class="cls-1" d="M451.7,371.78c-.32,0-.83,.11-1.54,.32-.69,.23-1.22,.34-1.56,.34-.3,0-.46-.09-.46-.25s.02-.41,.05-.74c.05-.32,.05-.57,.05-.74,0-.14,0-.37-.05-.67-.02-.3-.02-.53-.02-.69s.14-.32,.44-.44c.8-.32,1.63-.9,2.53-1.68,.02-.05,.41-.46,1.1-1.22,.62-.67,.96-1.01,1.03-1.01,0,0,.57,.11,1.7,.37,.41,.05,1.03,.16,1.84,.3,.18,.07,.28,.18,.28,.39,0,.07,0,.21-.02,.37-.3,2.48-.46,6.5-.46,12.13,0,1.19,0,3.01,.02,5.42,.05,2.39,.05,4.2,.05,5.4,0,.53-.23,.8-.67,.8-.46,0-1.1,0-1.95,.02-.83,.05-1.47,.05-1.88,.05-.44,0-.64-.16-.64-.51,0-.28,.09-2.78,.28-7.51,.07-2.27,.11-5.63,.11-9.99,0-.32-.07-.48-.21-.48Z"/><path class="cls-1" d="M469.3,243.85c-6.8-12.2-18.06-31.02-31.71-49.19,3.38,.46,6.71,.99,10.04,1.61,2.11,3.12,4.16,6.27,6.18,9.44,7.21,11.67,13.9,23.57,19.74,36.02,1.24,2.73-2.8,4.82-4.25,2.11Z"/><path class="cls-1" d="M653.4,443c0,15.99-1.52,31.64-4.46,46.78-.09,.62-.21,1.22-.35,1.82-.49,2.57-1.05,5.15-1.66,7.67-8.56,36.92-25.43,70.74-48.58,99.46-2.1,2.62-4.27,5.22-6.49,7.74-5.88-.8-11.6-1.72-17.1-2.76-62.46-11.74-112.53-54.2-123.73-117.36-1.7-11.03-4.08-22.61-2.22-33.7,.05-.14,.09-.28,.14-.44-.12-16.29,23.61-32.42,35.98-38.62,2.59-1.29,5.23-2.5,7.79-3.88,1.28-.69,2.89-.23,3.57,1.03,.82,1.42,.02,3.26-1.56,3.72-14.68,5.42-31.64,14.91-34.91,31.15-.33,.85-.54,2.67-.84,4.78,3.64,1.26,7.23,2.57,10.83,3.93,26.81-25.71,67.31-38.44,109.52-43.84-1.96-.94-3.85-2.23-5.55-3.91-3.9-3.56-6.04-8.27-6.49-13.14-10.34,4.25-21.79,4.99-32.6-.05-20.04-9.65-37.84-22.56-53.99-37.7-10.5-10.15-19.81-22.01-25.39-35.73-.54-1.29,.12-2.76,1.42-3.29,1.28-.51,2.73,.09,3.29,1.29,6.28,12.27,15.75,22.68,26.09,32.05,13.21,11.49,27.93,21.46,43.23,30.12,13.37,9.35,27.28,8.39,39.99,2.3,.89-1.77,2.01-3.42,3.38-4.92-24.22-1.86-54.71-25.27-68.41-37.43-17.69-16.08-34.6-34.39-43-57.09-7.7-21.44,3.94-34.76,26.67-30.01,14.09,3.33,29.1,10.36,43.4,19.76v-43.84c.58,.34,1.17,.69,1.73,1.06,1.07,.64,2.12,1.29,3.17,1.98,15.8,9.97,30.4,21.67,43.54,34.76,.93,.92,1.87,1.86,2.78,2.8,1.1,1.13,2.17,2.23,3.22,3.38,.89,.94,1.77,1.88,2.64,2.85,7.28,8,14.05,16.45,20.25,25.34,1.73,2.46,3.38,4.94,5.02,7.47,5.16,7.97,9.85,16.24,14.09,24.79,.54,1.08,1.05,2.16,1.56,3.26,.51,1.08,1.03,2.16,1.54,3.24,6.39,13.97,11.55,28.63,15.28,43.84,.65,2.57,1.24,5.15,1.77,7.74,1.14,5.26,2.08,10.57,2.82,15.95,1.73,11.62,2.59,23.53,2.59,35.63Z"/><g><path class="cls-7" d="M442.74,373.32v-2.14c0-.28-.16-.41-.51-.41-.32,0-.83,0-1.49,.05-.67,.02-1.17,.02-1.49,.02-.18,0-.34,.11-.48,.3-1.81,2.71-3.1,4.62-3.91,5.7-.25,.34-.39,.53-.44,.53-.02,0-.21-.23-.53-.69-1.65-2.39-2.87-4.23-3.68-5.47-.16-.18-.32-.28-.51-.28-.34,0-.85-.02-1.54-.09-.69-.05-1.19-.07-1.54-.07-.32,0-.48,.14-.48,.41v2.18c0,.21,.9,1.4,2.71,3.58,1.81,2.18,2.71,3.38,2.71,3.58s-.9,1.4-2.71,3.61c-1.81,2.18-2.71,3.35-2.71,3.52v2.21c0,.25,.16,.37,.48,.37,1.63,0,2.6-.02,2.89-.07,.32-.05,1.17-1.15,2.6-3.26,1.4-2.09,2.18-3.12,2.3-3.12,.05,0,.23,.21,.55,.64,1.7,2.39,2.96,4.23,3.79,5.45,.23,.25,.87,.37,1.93,.37,0,0,.25,.02,.76,.05,.37,.02,.67,.02,.87-.02,.28-.07,.41-.18,.41-.39v-2.18c0-.23-.9-1.45-2.71-3.65-1.81-2.18-2.73-3.35-2.73-3.49,0-.21,.92-1.4,2.73-3.58,1.82-2.18,2.71-3.38,2.71-3.63Z"/><path class="cls-7" d="M457.08,366.08c0-.21-.09-.32-.28-.39-.8-.14-1.42-.25-1.84-.3-1.13-.25-1.7-.37-1.7-.37-.07,0-.41,.34-1.03,1.01-.69,.76-1.08,1.17-1.1,1.22-.9,.78-1.72,1.36-2.53,1.68-.3,.11-.44,.28-.44,.44s0,.39,.02,.69c.05,.3,.05,.53,.05,.67,0,.16,0,.41-.05,.74-.02,.32-.05,.57-.05,.74s.16,.25,.46,.25c.34,0,.87-.11,1.56-.34,.71-.21,1.22-.32,1.54-.32,.14,0,.21,.16,.21,.48,0,4.37-.05,7.72-.11,9.99-.18,4.73-.28,7.24-.28,7.51,0,.34,.21,.51,.64,.51,.41,0,1.06,0,1.88-.05,.85-.02,1.49-.02,1.95-.02s.67-.28,.67-.8c0-1.19,0-3.01-.05-5.4-.02-2.41-.02-4.23-.02-5.42,0-5.63,.16-9.65,.46-12.13,.02-.16,.02-.3,.02-.37Z"/></g><g><path class="cls-7" d="M421.17,746.44v-.43l2.08-.34c.42-.1,.73-.19,.94-.29,.21-.1,.35-.25,.43-.46,.08-.21,.12-.49,.12-.84v-29.07c0-.39-.04-.68-.12-.87-.08-.19-.23-.35-.43-.46-.21-.11-.52-.2-.94-.27l-2.08-.34v-.43h14.78c2.64,0,5.1,.34,7.39,1.01,2.29,.68,4.31,1.69,6.06,3.04,1.75,1.35,3.12,3.04,4.1,5.07,.98,2.03,1.47,4.38,1.47,7.05,0,3.64-.81,6.78-2.42,9.42-1.61,2.64-3.82,4.67-6.64,6.08-2.82,1.42-6.09,2.12-9.83,2.12h-14.92Zm11.78-.87h3.33c2.45,0,4.6-.65,6.47-1.96,1.87-1.3,3.33-3.16,4.4-5.58s1.59-5.26,1.59-8.55c0-3.54-.6-6.5-1.79-8.86-1.19-2.37-2.85-4.15-4.97-5.34-2.12-1.19-4.57-1.79-7.34-1.79h-4.01v29.61c0,.93,.14,1.58,.41,1.93,.27,.35,.91,.53,1.91,.53Z"/><path class="cls-7" d="M471.39,746.87c-2.35,0-4.44-.49-6.25-1.47-1.82-.98-3.24-2.41-4.27-4.27-1.03-1.87-1.55-4.15-1.55-6.86,0-2,.31-3.8,.92-5.41,.61-1.61,1.47-2.99,2.58-4.13,1.11-1.14,2.41-2.02,3.91-2.63,1.5-.61,3.12-.92,4.85-.92,2.35,0,4.44,.48,6.28,1.45,1.83,.97,3.27,2.38,4.3,4.25,1.03,1.87,1.55,4.17,1.55,6.91,0,2-.31,3.79-.94,5.38s-1.49,2.97-2.58,4.13c-1.09,1.16-2.39,2.05-3.89,2.66-1.5,.61-3.13,.92-4.9,.92Zm.53-.68c1,0,1.85-.28,2.56-.85,.71-.56,1.3-1.33,1.76-2.32,.47-.98,.81-2.09,1.04-3.33,.22-1.24,.34-2.55,.34-3.94,0-1.93-.13-3.74-.39-5.41-.26-1.67-.65-3.15-1.18-4.42s-1.21-2.27-2.03-3c-.82-.72-1.79-1.09-2.92-1.09-1,0-1.85,.27-2.56,.82-.71,.55-1.3,1.31-1.79,2.29s-.83,2.09-1.04,3.33c-.21,1.24-.31,2.57-.31,3.98,0,1.9,.12,3.69,.36,5.36,.24,1.67,.63,3.16,1.16,4.44,.53,1.29,1.21,2.29,2.05,3.02,.84,.72,1.82,1.09,2.95,1.09Z"/><path class="cls-7" d="M496.7,746.87c-1.42,0-2.7-.3-3.86-.89-1.16-.59-2.13-1.42-2.92-2.46-.79-1.05-1.39-2.29-1.81-3.72-.42-1.43-.63-3-.63-4.71s.2-3.28,.6-4.71c.4-1.43,.97-2.73,1.71-3.89,.74-1.16,1.63-2.13,2.68-2.92,1.05-.79,2.21-1.38,3.5-1.79,1.29-.4,2.69-.6,4.2-.6,.84,0,1.7,.11,2.58,.31,.89,.21,1.76,.59,2.63,1.13v-8.69l-2.9-1.06v-.29l8.31-2.03,.29,.15v33.03c0,.26,.06,.46,.19,.6,.13,.14,.32,.25,.58,.31l2.22,.39v.29l-8.4,1.54-.29-.19v-5.12h-.24c-1.09,1.67-2.33,2.98-3.72,3.91-1.38,.93-2.96,1.4-4.73,1.4Zm2.99-2.99c1.06,0,2.07-.27,3.02-.82,.95-.55,1.84-1.38,2.68-2.51v-11.35c0-2.71-.47-4.6-1.4-5.7-.93-1.09-2.14-1.64-3.62-1.64-1.19,0-2.31,.43-3.36,1.28-1.05,.85-1.88,2.11-2.51,3.77-.63,1.66-.94,3.73-.94,6.21,0,2.35,.25,4.33,.75,5.94,.5,1.61,1.21,2.82,2.15,3.62,.93,.8,2.01,1.21,3.24,1.21Z"/><path class="cls-7" d="M522.58,746.87c-1.26,0-2.34-.22-3.26-.65-.92-.43-1.61-1.02-2.08-1.76-.47-.74-.7-1.59-.7-2.56,0-1.58,.54-2.88,1.62-3.91,1.08-1.03,2.68-1.75,4.81-2.17l7.2-1.35v-6.62c0-2.09-.36-3.53-1.09-4.3-.72-.77-1.73-1.16-3.02-1.16-.61,0-1.19,.07-1.74,.22-.55,.15-1.08,.36-1.59,.65l-.05,5.31h-5.36l-.19-.24c.48-1.35,1.24-2.57,2.27-3.65,1.03-1.08,2.3-1.93,3.82-2.56,1.51-.63,3.22-.94,5.12-.94,1.51,0,2.83,.23,3.96,.68,1.13,.45,2,1.22,2.63,2.29,.63,1.08,.94,2.57,.94,4.47v13.47c0,1.32,.43,1.98,1.3,1.98,.29,0,.56-.05,.82-.15,.26-.1,.55-.32,.87-.68l.24,.19c-.55,1.22-1.22,2.1-2,2.63-.79,.53-1.71,.8-2.78,.8-1.29,0-2.29-.35-2.99-1.06-.71-.71-1.09-1.87-1.16-3.48h-.19c-.81,1.38-1.84,2.49-3.12,3.31-1.27,.82-2.7,1.23-4.27,1.23Zm2.85-2.9c.84,0,1.67-.2,2.51-.6,.84-.4,1.58-1.07,2.22-2v-6.38l-4.2,1.06c-1.51,.42-2.58,.96-3.21,1.62-.63,.66-.94,1.57-.94,2.73,0,1.06,.31,1.92,.94,2.58,.63,.66,1.52,.99,2.68,.99Z"/><path class="cls-7" d="M549.82,746.87c-1.96,0-3.44-.52-4.42-1.57-.98-1.05-1.47-2.65-1.47-4.81v-17.24h-2.22v-.29l7.63-6.52,.29,.1v5.31l6.42-.48,.24,.19-.19,1.88h-6.47v16.66c0,1.38,.27,2.39,.8,3.02s1.34,.94,2.44,.94c.61,0,1.18-.1,1.71-.29s1.1-.55,1.71-1.06l.24,.29c-.87,1.29-1.88,2.25-3.04,2.9-1.16,.64-2.38,.97-3.67,.97Z"/><path class="cls-7" d="M558.13,746.44v-.39l1.55-.29c.35-.1,.62-.19,.8-.27,.18-.08,.3-.2,.36-.36,.06-.16,.1-.37,.1-.63v-19.8l-2.7-1.16v-.29l8.11-1.93,.24,.19v22.99c0,.26,.03,.47,.1,.63,.06,.16,.17,.28,.31,.36,.14,.08,.35,.15,.6,.22l1.69,.34v.39h-11.16Zm5.7-28.45c-.9,0-1.67-.31-2.29-.92s-.94-1.38-.94-2.32,.31-1.7,.94-2.29,1.39-.89,2.29-.89,1.71,.3,2.34,.89c.63,.6,.94,1.36,.94,2.29s-.31,1.71-.94,2.32c-.63,.61-1.41,.92-2.34,.92Z"/><path class="cls-7" d="M582.32,746.44v-.43l3.48-.34c.45-.06,.8-.15,1.04-.27,.24-.11,.4-.27,.48-.48,.08-.21,.12-.49,.12-.84v-28.21h-5.07v-.43l2.61-.63c1.16-.32,2.18-.6,3.07-.84,.89-.24,1.7-.51,2.44-.82,.74-.31,1.51-.63,2.32-.99l.44,.05v31.88c0,.35,.04,.64,.12,.84,.08,.21,.25,.36,.51,.46,.26,.1,.61,.19,1.06,.29l2.66,.34v.43h-15.26Z"/><path class="cls-7" d="M620.14,746.54l-9.85-22.89c-.13-.35-.29-.64-.48-.85-.19-.21-.42-.38-.68-.51s-.58-.24-.97-.34v-.39h12.12v.39c-1.54,.26-2.53,.55-2.95,.87-.42,.32-.48,.9-.19,1.74l6.33,16.18h.24l5.8-15.7c.32-.87,.29-1.53-.1-1.98-.39-.45-1.35-.82-2.9-1.11v-.39h7.58v.39c-.71,.23-1.27,.56-1.69,1.01-.42,.45-.85,1.18-1.3,2.17l-9.08,21.39h-1.88Z"/><path class="cls-7" d="M645.74,746.87c-1.71,0-3.26-.31-4.66-.92-1.4-.61-2.59-1.48-3.57-2.61-.98-1.13-1.74-2.47-2.27-4.03-.53-1.56-.8-3.28-.8-5.14,0-2.64,.53-4.93,1.59-6.88,1.06-1.95,2.48-3.45,4.25-4.52s3.72-1.59,5.84-1.59c1.77,0,3.35,.32,4.73,.97,1.38,.64,2.52,1.65,3.4,3.02,.89,1.37,1.41,3.15,1.57,5.34l-.15,.24h-16.13l.05-.48,11.11-.82c-.16-2.61-.62-4.52-1.38-5.75-.76-1.22-1.86-1.83-3.31-1.83-1.25,0-2.32,.47-3.19,1.4-.87,.93-1.53,2.2-1.98,3.79-.45,1.59-.68,3.44-.68,5.53,0,2.38,.34,4.43,1.01,6.13,.68,1.71,1.63,3,2.87,3.89,1.24,.89,2.7,1.33,4.37,1.33,1.38,0,2.61-.29,3.67-.87,1.06-.58,2.11-1.51,3.14-2.8l.34,.24c-.93,1.96-2.21,3.52-3.84,4.66-1.63,1.14-3.63,1.71-6.01,1.71Z"/><path class="cls-7" d="M658.29,746.44v-.39l1.59-.29c.32-.1,.57-.19,.75-.27s.3-.2,.36-.36,.1-.37,.1-.63v-30.47l-2.9-1.06v-.29l8.31-2.03,.24,.15v33.71c0,.26,.04,.47,.12,.63,.08,.16,.21,.28,.39,.36,.18,.08,.43,.17,.75,.27l1.55,.29v.39h-11.25Z"/><path class="cls-7" d="M672.39,746.44v-.39l1.55-.29c.35-.1,.62-.19,.8-.27,.18-.08,.3-.2,.36-.36s.1-.37,.1-.63v-19.8l-2.7-1.16v-.29l8.11-1.93,.24,.19v22.99c0,.26,.03,.47,.1,.63s.17,.28,.31,.36,.35,.15,.6,.22l1.69,.34v.39h-11.16Zm5.7-28.45c-.9,0-1.67-.31-2.29-.92-.63-.61-.94-1.38-.94-2.32s.31-1.7,.94-2.29c.63-.6,1.39-.89,2.29-.89s1.71,.3,2.34,.89,.94,1.36,.94,2.29-.31,1.71-.94,2.32-1.41,.92-2.34,.92Z"/><path class="cls-7" d="M686.26,746.44v-.39l1.59-.29c.32-.1,.57-.19,.75-.27s.3-.2,.36-.36,.1-.37,.1-.63v-30.47l-2.9-1.06v-.29l8.31-2.03,.24,.15v22.6l9.71-8.35c.48-.45,.72-.89,.72-1.33s-.26-.81-.77-1.13c-.52-.32-1.32-.51-2.41-.58v-.43h10.09v.39c-1.16,.26-2.17,.64-3.04,1.13s-1.83,1.15-2.9,1.96l-6.33,4.73,12.75,16.28v.39h-6.71l-9.95-12.51h-1.16v10.58c0,.26,.03,.47,.1,.63s.17,.28,.31,.36c.14,.08,.35,.15,.6,.22l1.69,.34v.39h-11.16Z"/><path class="cls-7" d="M722.96,746.87c-2.12,0-3.78-.64-4.97-1.91s-1.79-3.15-1.79-5.63v-14.88l-2.66-1.16v-.29l8.07-1.69,.29,.14v16.28c0,1.9,.32,3.4,.97,4.49,.64,1.1,1.77,1.64,3.38,1.64,1.03,0,2.03-.23,2.99-.7s1.85-1.15,2.66-2.05v-16.66l-2.95-1.16v-.29l8.36-1.69,.29,.14v22.26c0,.26,.06,.46,.19,.6,.13,.14,.32,.25,.58,.31l2.22,.39v.29l-8.4,1.54-.29-.19v-4.68h-.24c-1.29,1.58-2.64,2.79-4.06,3.62-1.42,.84-2.96,1.26-4.64,1.26Z"/><path class="cls-7" d="M753.34,746.44v-.39l14.44-23.91-6.95,.44c-.68,.06-1.25,.18-1.71,.34s-.89,.42-1.25,.77c-.37,.35-.73,.85-1.09,1.5-.35,.64-.77,1.48-1.26,2.51l-.92,1.98h-.39l.68-8.11h19.17v.43l-14.25,23.86,7.25-.44c.87-.1,1.61-.3,2.22-.6,.61-.31,1.19-.8,1.74-1.5,.55-.69,1.09-1.62,1.64-2.78l1.16-2.37h.34l-.87,8.26h-19.95Zm9.61-27.33l-5.12-6.86h.29l6.52,3.24h.19l6.57-3.24h.24l-5.07,6.86h-3.62Z"/><path class="cls-7" d="M776.42,746.44v-.39l1.59-.29c.32-.1,.57-.19,.75-.27s.3-.2,.36-.36,.1-.37,.1-.63v-30.47l-2.9-1.06v-.29l8.31-2.03,.24,.15v33.71c0,.26,.04,.47,.12,.63,.08,.16,.21,.28,.39,.36,.18,.08,.43,.17,.75,.27l1.55,.29v.39h-11.25Z"/><path class="cls-7" d="M790.52,746.44v-.39l1.55-.29c.35-.1,.62-.19,.8-.27,.18-.08,.3-.2,.36-.36s.1-.37,.1-.63v-19.8l-2.7-1.16v-.29l8.11-1.93,.24,.19v22.99c0,.26,.03,.47,.1,.63s.17,.28,.31,.36,.35,.15,.6,.22l1.69,.34v.39h-11.16Zm5.7-28.45c-.9,0-1.67-.31-2.29-.92-.63-.61-.94-1.38-.94-2.32s.31-1.7,.94-2.29c.63-.6,1.39-.89,2.29-.89s1.71,.3,2.34,.89,.94,1.36,.94,2.29-.31,1.71-.94,2.32-1.41,.92-2.34,.92Z"/><path class="cls-7" d="M816.07,746.87c-2.22,0-4.16-.52-5.82-1.57-1.66-1.05-2.94-2.53-3.84-4.44-.9-1.92-1.35-4.18-1.35-6.79,0-2,.33-3.79,.99-5.39,.66-1.59,1.56-2.95,2.7-4.08s2.45-1.98,3.91-2.56c1.46-.58,3-.87,4.61-.87,1.35,0,2.69,.15,4.01,.43,1.32,.29,2.61,.79,3.86,1.5v6.62h-.39l-.82-1.4c-.93-1.74-1.75-3.07-2.44-4.01-.69-.93-1.35-1.58-1.98-1.93s-1.38-.53-2.25-.53c-1.19,0-2.27,.43-3.24,1.28-.97,.85-1.75,2.07-2.34,3.65-.6,1.58-.89,3.43-.89,5.55,0,2.35,.33,4.39,.99,6.11,.66,1.72,1.59,3.05,2.8,3.98,1.21,.93,2.65,1.4,4.32,1.4,1.29,0,2.46-.29,3.53-.87,1.06-.58,2.09-1.5,3.09-2.75l.34,.24c-.61,1.29-1.38,2.41-2.32,3.38-.93,.97-2.02,1.71-3.26,2.25-1.24,.53-2.65,.8-4.23,.8Z"/><path class="cls-7" d="M837.47,746.87c-2.12,0-3.78-.64-4.97-1.91s-1.79-3.15-1.79-5.63v-14.88l-2.66-1.16v-.29l8.07-1.69,.29,.14v16.28c0,1.9,.32,3.4,.97,4.49,.64,1.1,1.77,1.64,3.38,1.64,1.03,0,2.03-.23,2.99-.7s1.85-1.15,2.66-2.05v-16.66l-2.95-1.16v-.29l8.36-1.69,.29,.14v22.26c0,.26,.06,.46,.19,.6,.13,.14,.32,.25,.58,.31l2.22,.39v.29l-8.4,1.54-.29-.19v-4.68h-.24c-1.29,1.58-2.64,2.79-4.06,3.62-1.42,.84-2.96,1.26-4.64,1.26Z"/><path class="cls-7" d="M484.31,824.73l-.29-.39,1.79-1.88c.61-.64,1.06-1.26,1.35-1.86,.29-.6,.48-1.28,.58-2.05,.1-.77,.15-1.72,.15-2.85v-23.37l-2.66-1.16v-.29l8.11-1.93,.24,.19v24.49c0,1.13-.1,2.08-.29,2.87s-.52,1.5-.99,2.12c-.47,.63-1.08,1.25-1.83,1.86-.76,.61-1.68,1.29-2.78,2.03l-3.38,2.22Zm6.47-39.12c-.9,0-1.67-.31-2.29-.92-.63-.61-.94-1.38-.94-2.32s.31-1.7,.94-2.29c.63-.6,1.39-.89,2.29-.89s1.71,.3,2.34,.89,.94,1.36,.94,2.29-.31,1.71-.94,2.32-1.41,.92-2.34,.92Z"/><path class="cls-7" d="M505.08,814.49c-1.26,0-2.34-.22-3.26-.65-.92-.43-1.61-1.02-2.08-1.76-.47-.74-.7-1.59-.7-2.56,0-1.58,.54-2.88,1.62-3.91,1.08-1.03,2.68-1.75,4.81-2.17l7.2-1.35v-6.62c0-2.09-.36-3.53-1.09-4.3-.72-.77-1.73-1.16-3.02-1.16-.61,0-1.19,.07-1.74,.22-.55,.15-1.08,.36-1.59,.65l-.05,5.31h-5.36l-.19-.24c.48-1.35,1.24-2.57,2.27-3.65,1.03-1.08,2.3-1.93,3.82-2.56,1.51-.63,3.22-.94,5.12-.94,1.51,0,2.83,.23,3.96,.68,1.13,.45,2,1.22,2.63,2.29,.63,1.08,.94,2.57,.94,4.47v13.47c0,1.32,.43,1.98,1.3,1.98,.29,0,.56-.05,.82-.15,.26-.1,.55-.32,.87-.68l.24,.19c-.55,1.22-1.22,2.1-2,2.63-.79,.53-1.71,.8-2.78,.8-1.29,0-2.29-.35-2.99-1.06-.71-.71-1.09-1.87-1.16-3.48h-.19c-.81,1.38-1.84,2.49-3.12,3.31-1.27,.82-2.7,1.23-4.27,1.23Zm2.85-2.9c.84,0,1.67-.2,2.51-.6,.84-.4,1.58-1.07,2.22-2v-6.38l-4.2,1.06c-1.51,.42-2.58,.96-3.21,1.62-.63,.66-.94,1.57-.94,2.73,0,1.06,.31,1.92,.94,2.58,.63,.66,1.52,.99,2.68,.99Z"/><path class="cls-7" d="M537.24,814.49c-1.32,0-2.65-.14-3.98-.41-1.34-.27-2.58-.64-3.74-1.09-1.16-.45-2.16-.98-2.99-1.59v-29.85l-2.9-1.06v-.29l8.35-2.03,.24,.15v15.74h.24c1.06-1.67,2.29-2.97,3.69-3.89,1.4-.92,2.99-1.38,4.76-1.38,1.42,0,2.7,.29,3.86,.87,1.16,.58,2.13,1.39,2.92,2.44,.79,1.05,1.39,2.29,1.81,3.74,.42,1.45,.63,3.03,.63,4.73,0,1.61-.19,3.13-.58,4.56s-.95,2.72-1.69,3.86c-.74,1.14-1.64,2.12-2.7,2.95-1.06,.82-2.25,1.45-3.57,1.88-1.32,.44-2.77,.65-4.35,.65Zm0-.68c1.22,0,2.35-.43,3.38-1.28,1.03-.85,1.86-2.12,2.49-3.79,.63-1.67,.94-3.73,.94-6.18s-.25-4.37-.75-5.96c-.5-1.59-1.22-2.8-2.15-3.62-.93-.82-2.01-1.23-3.24-1.23-1.06,0-2.07,.28-3.02,.85-.95,.56-1.84,1.39-2.68,2.49v11.35c0,2.67,.46,4.57,1.38,5.7,.92,1.13,2.13,1.69,3.65,1.69Z"/><path class="cls-7" d="M562.6,814.49c-2.12,0-3.78-.64-4.97-1.91-1.19-1.27-1.79-3.15-1.79-5.63v-14.88l-2.66-1.16v-.29l8.07-1.69,.29,.14v16.28c0,1.9,.32,3.4,.97,4.49,.64,1.1,1.77,1.64,3.38,1.64,1.03,0,2.03-.23,2.99-.7s1.85-1.15,2.66-2.05v-16.66l-2.95-1.16v-.29l8.35-1.69,.29,.14v22.26c0,.26,.06,.46,.19,.6,.13,.14,.32,.25,.58,.31l2.22,.39v.29l-8.4,1.54-.29-.19v-4.68h-.24c-1.29,1.58-2.64,2.79-4.06,3.62-1.42,.84-2.96,1.26-4.64,1.26Z"/><path class="cls-7" d="M594.23,814.49c-2.22,0-4.16-.52-5.82-1.57-1.66-1.05-2.94-2.53-3.84-4.44-.9-1.92-1.35-4.18-1.35-6.79,0-2,.33-3.79,.99-5.39,.66-1.59,1.56-2.95,2.7-4.08,1.14-1.13,2.45-1.98,3.91-2.56,1.46-.58,3-.87,4.61-.87,1.35,0,2.69,.15,4.01,.43,1.32,.29,2.61,.79,3.86,1.5v6.62h-.39l-.82-1.4c-.93-1.74-1.75-3.07-2.44-4.01-.69-.93-1.35-1.58-1.98-1.93-.63-.35-1.38-.53-2.25-.53-1.19,0-2.27,.43-3.24,1.28-.97,.85-1.75,2.07-2.34,3.65-.6,1.58-.89,3.43-.89,5.55,0,2.35,.33,4.39,.99,6.11,.66,1.72,1.59,3.05,2.8,3.98,1.21,.93,2.65,1.4,4.32,1.4,1.29,0,2.46-.29,3.53-.87,1.06-.58,2.09-1.5,3.09-2.75l.34,.24c-.61,1.29-1.38,2.41-2.32,3.38-.93,.97-2.02,1.71-3.26,2.25-1.24,.53-2.65,.8-4.23,.8Zm-.63-27.77l-5.12-6.86h.29l6.52,3.24h.19l6.57-3.24h.24l-5.07,6.86h-3.62Z"/><path class="cls-7" d="M606.69,814.05v-.39l1.55-.29c.32-.1,.57-.19,.75-.27,.18-.08,.3-.2,.36-.36s.1-.37,.1-.63v-19.8l-2.66-1.16v-.29l8.07-1.93,.29,.19v4.73h.19c1.26-1.77,2.61-3.06,4.06-3.86,1.45-.8,3.01-1.21,4.68-1.21,2.12,0,3.8,.63,5.02,1.88,1.22,1.26,1.83,3.14,1.83,5.65v15.79c0,.26,.02,.47,.07,.63,.05,.16,.15,.28,.31,.36,.16,.08,.37,.15,.63,.22l1.59,.34v.39h-11.11v-.39l1.69-.29c.29-.1,.52-.19,.7-.27s.29-.2,.34-.36c.05-.16,.07-.37,.07-.63v-14.34c0-1.93-.34-3.39-1.01-4.37-.68-.98-1.79-1.47-3.33-1.47-1.03,0-2.03,.23-3,.7-.97,.47-1.88,1.18-2.75,2.15v17.34c0,.26,.02,.47,.07,.63,.05,.16,.14,.28,.29,.36,.15,.08,.35,.15,.6,.22l1.69,.34v.39h-11.11Z"/><path class="cls-7" d="M648.61,814.49c-2.35,0-4.44-.49-6.25-1.47-1.82-.98-3.24-2.41-4.27-4.27-1.03-1.87-1.55-4.15-1.55-6.86,0-2,.31-3.8,.92-5.41,.61-1.61,1.47-2.99,2.58-4.13,1.11-1.14,2.42-2.02,3.91-2.63,1.5-.61,3.11-.92,4.85-.92,2.35,0,4.44,.48,6.28,1.45s3.27,2.38,4.3,4.25,1.55,4.17,1.55,6.91c0,2-.31,3.79-.94,5.38-.63,1.59-1.49,2.97-2.58,4.13-1.1,1.16-2.39,2.05-3.89,2.66-1.5,.61-3.13,.92-4.9,.92Zm.53-.68c1,0,1.85-.28,2.56-.85,.71-.56,1.3-1.33,1.76-2.32,.47-.98,.81-2.09,1.04-3.33,.23-1.24,.34-2.55,.34-3.94,0-1.93-.13-3.74-.39-5.41-.26-1.67-.65-3.15-1.18-4.42s-1.21-2.27-2.03-3c-.82-.72-1.79-1.09-2.92-1.09-1,0-1.85,.27-2.56,.82-.71,.55-1.3,1.31-1.79,2.29-.48,.98-.83,2.09-1.04,3.33-.21,1.24-.31,2.57-.31,3.98,0,1.9,.12,3.69,.36,5.36,.24,1.67,.63,3.16,1.16,4.44,.53,1.29,1.22,2.29,2.05,3.02s1.82,1.09,2.95,1.09Z"/><path class="cls-7" d="M674.54,824.73c-2.29,0-4.28-.16-5.99-.48-1.71-.32-3.04-.83-4.01-1.52s-1.45-1.59-1.45-2.68c0-.87,.3-1.62,.89-2.25s1.38-1.18,2.34-1.67c.97-.48,2.01-.9,3.14-1.26v-.19l-5.17-1.16-.1-.29,5.7-8.74c-1.71-.55-3.06-1.43-4.06-2.66s-1.5-2.78-1.5-4.68c0-1.67,.43-3.15,1.3-4.42,.87-1.27,2.08-2.25,3.62-2.92,1.55-.68,3.33-1.01,5.36-1.01,1.45,0,2.77,.14,3.96,.41,1.19,.27,2.22,.68,3.09,1.23l4.44-4.01,.29,.1v4.2h-4.3c.93,.68,1.65,1.51,2.15,2.51,.5,1,.75,2.19,.75,3.57,0,1.67-.43,3.14-1.3,4.39s-2.08,2.23-3.62,2.92c-1.54,.69-3.33,1.04-5.36,1.04-.81,0-1.58-.05-2.32-.14-.74-.1-1.43-.22-2.08-.39l-2.12,4.78h11.21c2.74,0,4.76,.57,6.08,1.71,1.32,1.14,1.98,2.63,1.98,4.47s-.56,3.44-1.67,4.8c-1.11,1.37-2.64,2.43-4.59,3.19s-4.18,1.13-6.69,1.13Zm.29-.72c1.71,0,3.18-.26,4.42-.77,1.24-.51,2.2-1.21,2.87-2.08s1.01-1.85,1.01-2.95c0-1.26-.45-2.15-1.35-2.68s-2.25-.8-4.06-.8h-7.2c-.97,.64-1.67,1.31-2.12,2-.45,.69-.68,1.55-.68,2.58,0,1.45,.61,2.59,1.83,3.43,1.22,.84,2.98,1.26,5.26,1.26Zm.1-19.51c.8,0,1.5-.19,2.08-.58,.58-.39,1.06-.89,1.45-1.52,.39-.63,.68-1.32,.87-2.08,.19-.76,.29-1.49,.29-2.2,0-.87-.09-1.79-.27-2.78-.18-.98-.47-1.92-.87-2.8-.4-.88-.93-1.62-1.59-2.2-.66-.58-1.47-.87-2.44-.87-.77,0-1.46,.19-2.05,.58-.6,.39-1.09,.89-1.47,1.52-.39,.63-.68,1.32-.87,2.08-.19,.76-.29,1.5-.29,2.25,0,.81,.09,1.71,.27,2.71,.18,1,.46,1.94,.84,2.83,.39,.89,.91,1.62,1.57,2.2,.66,.58,1.49,.87,2.49,.87Z"/><path class="cls-7" d="M712.41,814.49c-2.35,0-4.44-.49-6.25-1.47-1.82-.98-3.24-2.41-4.27-4.27-1.03-1.87-1.55-4.15-1.55-6.86,0-2,.31-3.8,.92-5.41,.61-1.61,1.47-2.99,2.58-4.13,1.11-1.14,2.42-2.02,3.91-2.63,1.5-.61,3.11-.92,4.85-.92,2.35,0,4.44,.48,6.28,1.45s3.27,2.38,4.3,4.25,1.55,4.17,1.55,6.91c0,2-.31,3.79-.94,5.38-.63,1.59-1.49,2.97-2.58,4.13-1.1,1.16-2.39,2.05-3.89,2.66-1.5,.61-3.13,.92-4.9,.92Zm.53-.68c1,0,1.85-.28,2.56-.85,.71-.56,1.3-1.33,1.76-2.32,.47-.98,.81-2.09,1.04-3.33,.23-1.24,.34-2.55,.34-3.94,0-1.93-.13-3.74-.39-5.41-.26-1.67-.65-3.15-1.18-4.42s-1.21-2.27-2.03-3c-.82-.72-1.79-1.09-2.92-1.09-1,0-1.85,.27-2.56,.82-.71,.55-1.3,1.31-1.79,2.29-.48,.98-.83,2.09-1.04,3.33-.21,1.24-.31,2.57-.31,3.98,0,1.9,.12,3.69,.36,5.36,.24,1.67,.63,3.16,1.16,4.44,.53,1.29,1.22,2.29,2.05,3.02s1.82,1.09,2.95,1.09Z"/><path class="cls-7" d="M739.5,814.49c-2.22,0-4.16-.52-5.82-1.57-1.66-1.05-2.94-2.53-3.84-4.44-.9-1.92-1.35-4.18-1.35-6.79,0-2,.33-3.79,.99-5.39,.66-1.59,1.56-2.95,2.7-4.08s2.45-1.98,3.91-2.56c1.46-.58,3-.87,4.61-.87,1.35,0,2.69,.15,4.01,.43,1.32,.29,2.61,.79,3.86,1.5v6.62h-.39l-.82-1.4c-.93-1.74-1.75-3.07-2.44-4.01-.69-.93-1.35-1.58-1.98-1.93s-1.38-.53-2.25-.53c-1.19,0-2.27,.43-3.24,1.28-.97,.85-1.75,2.07-2.34,3.65-.6,1.58-.89,3.43-.89,5.55,0,2.35,.33,4.39,.99,6.11,.66,1.72,1.59,3.05,2.8,3.98,1.21,.93,2.65,1.4,4.32,1.4,1.29,0,2.46-.29,3.53-.87,1.06-.58,2.09-1.5,3.09-2.75l.34,.24c-.61,1.29-1.38,2.41-2.32,3.38-.93,.97-2.02,1.71-3.26,2.25-1.24,.53-2.65,.8-4.23,.8Z"/><path class="cls-7" d="M759.93,814.49c-1.96,0-3.44-.52-4.42-1.57-.98-1.05-1.47-2.65-1.47-4.81v-17.24h-2.22v-.29l7.63-6.52,.29,.1v5.31l6.42-.48,.24,.19-.19,1.88h-6.47v16.66c0,1.38,.27,2.39,.8,3.02s1.34,.94,2.44,.94c.61,0,1.18-.1,1.71-.29s1.1-.55,1.71-1.06l.24,.29c-.87,1.29-1.88,2.25-3.04,2.9s-2.38,.97-3.67,.97Z"/><path class="cls-7" d="M774.37,814.49c-1.25,0-2.34-.22-3.26-.65-.92-.43-1.61-1.02-2.08-1.76-.47-.74-.7-1.59-.7-2.56,0-1.58,.54-2.88,1.62-3.91,1.08-1.03,2.68-1.75,4.81-2.17l7.2-1.35v-6.62c0-2.09-.36-3.53-1.09-4.3-.72-.77-1.73-1.16-3.02-1.16-.61,0-1.19,.07-1.74,.22-.55,.15-1.08,.36-1.59,.65l-.05,5.31h-5.36l-.19-.24c.48-1.35,1.24-2.57,2.27-3.65,1.03-1.08,2.3-1.93,3.82-2.56s3.22-.94,5.12-.94c1.51,0,2.83,.23,3.96,.68,1.13,.45,2,1.22,2.63,2.29,.63,1.08,.94,2.57,.94,4.47v13.47c0,1.32,.43,1.98,1.3,1.98,.29,0,.56-.05,.82-.15s.55-.32,.87-.68l.24,.19c-.55,1.22-1.22,2.1-2,2.63s-1.71,.8-2.78,.8c-1.29,0-2.29-.35-2.99-1.06-.71-.71-1.1-1.87-1.16-3.48h-.19c-.81,1.38-1.84,2.49-3.12,3.31-1.27,.82-2.7,1.23-4.27,1.23Zm2.85-2.9c.84,0,1.67-.2,2.51-.6,.84-.4,1.58-1.07,2.22-2v-6.38l-4.2,1.06c-1.51,.42-2.58,.96-3.21,1.62-.63,.66-.94,1.57-.94,2.73,0,1.06,.31,1.92,.94,2.58,.63,.66,1.52,.99,2.68,.99Z"/></g><path class="cls-5" d="M826.45,459.38c-.48,.3-.96,.62-1.45,.9-35.13,21.73-96.7,28.35-134.22,31.02-14.04,.18-28.08,.39-42.11,.3-35.57-.21-71.04-2.25-106.21-11.35-5.01-1.38-9.99-2.8-14.98-4.2-11.14-5.81-44.92-14.75-56.04-20.56,.39-.39,.8-.78,1.19-1.15,26.4-25.71,66.28-38.44,107.84-43.84,2.73-.37,5.49-.69,8.25-.96,2.21-.25,4.41-.46,6.64-.67h.02c2.25-.21,4.53-.39,6.8-.55,16.52-1.19,32.99-1.4,48.66-.94,11.99,.32,23.53,1.03,34.23,1.98,27.11,2.37,59.62,7.4,85.33,19.69,13.49,6.46,34.97,16.96,56.04,30.35Z"/><path d="M843.98,456c-.11-.3-.3-.55-.51-.78-.87-1.03-2.41-1.36-3.68-.69-.71,.28-1.4,.57-2.11,.85-4.18,1.7-8.43,3.33-12.68,4.89-55.99,20.59-116.44,29.98-175.99,29.5h-1.06c-49.05-.57-98.08-8.64-144.61-24.28-10.36-3.17-20.49-7.28-30.72-11.17-3.54-1.36-7.08-2.67-10.66-3.93-2.44-.85-4.89-1.68-7.35-2.44-.99,.25-1.82,2.53-1.65,2.57-.32,.51-.64,1.1-.87,1.68-.05,.16-.09,.3-.14,.44-1.84,11.1,.51,22.68,2.18,33.7,11.03,63.16,60.33,105.62,121.84,117.36,5.42,1.03,11.05,1.95,16.84,2.76,106.28,14.47,268.23-15.26,251.16-150.46Zm-244.78,142.72c-7.44-.92-14.61-2.04-21.44-3.35-70-13.62-116.28-65.64-117.26-136.95-.02-1.1-.02-2.21-.02-3.31-.02-.09-.02-.21-.05-.3-.92-.48-1.81-.96-2.73-1.47,.87-.14,1.63-1.98,1.63-2.25,.62,1.15,.94,2.46,1.1,3.72,.28,.14,.53,.28,.8,.44,55.9,29.57,121.1,43.26,185.8,44.02,34.03,.44,67.91-2.73,100.24-9.05,31.27-6.25,61.92-15.09,91.17-28.26-.09-1.42-.23-2.87-.39-4.32,0,0,.25,.14,.62,.32,.74,.41,1.98,1.13,2.85,1.61h.02c.55,.32,.94,.55,.94,.55-1.36,.62-2.69,1.24-4.04,1.84,9.72,122.92-139.34,149.02-239.24,136.77Zm239.47-140.77c-.05-.07-.07-.16-.09-.23-.28-.8-.55-1.59-.9-2.34-4.18,1.7-8.43,3.33-12.68,4.89-55.99,20.59-116.44,29.98-175.99,29.5-.09,.62-.21,1.22-.34,1.82-.48,2.57-1.03,5.15-1.63,7.67,34.03,.44,67.91-2.73,100.24-9.05,31.27-6.25,61.92-15.09,91.17-28.26-.09-1.42-.23-2.87-.39-4.32,0,0,.25,.14,.62,.32Z"/><path d="M497.17,414.47c-14.45,5.42-31.15,14.91-34.37,31.15-.32,.85-.53,2.67-.83,4.78-.18,1.54-.41,3.24-.74,4.85-.21,1.13-.44,2.21-.74,3.17-1.03,3.33-2.64,5.4-5.54,3.06-1.98-3.03-2.85-6.18-2.87-9.26-.11-16.29,23.25-32.42,35.43-38.62,2.55-1.29,5.15-2.5,7.67-3.88,1.26-.69,2.85-.23,3.52,1.03,.8,1.42,.02,3.26-1.54,3.72Z"/><path d="M838.58,457.73c-17.02-50.22-124.63-59.8-171.08-64.74-9.27-1.03-18.63-.52-27.8-3.33-1.42-.43-2.22-1.93-1.79-3.35,.29-.94,1.05-1.61,1.94-1.83,18.87-3.06,37.63,.83,56.45,2,41.8,4.87,142.14,17.99,147.41,70.44,.12,3.06-4.33,3.78-5.13,.81h0Z"/><path d="M469.3,243.85c-6.8-12.2-18.06-31.02-31.71-49.19-29.34-38.97-69.75-74.97-100.93-36.51-.55,1.93,.44,3.26,1.79,4.78,17.67,8.5,34.42,18.31,50.2,29.68,4.87,3.52,9.65,7.17,14.34,10.98,9.93,8.29,19.37,17.21,27.91,26.97,8.27,9.99,15.69,20.75,21.3,32.51,.57,1.17,.07,2.6-1.1,3.15-1.13,.53-2.46,.11-3.08-.94-17.28-30.19-44.53-52.8-73.5-71.5-2.57-1.65-5.19-3.31-7.81-4.92-10.68-6.5-21.85-12.61-33.06-17.74-2.62-1.54-4.25-3.97-5.74-7.01-4.78-12.64,8.94-21.34,18.01-26.03,16.82-10.61,38.07-4.99,53.26,5.61,20.08,13.74,35.15,32.67,48.45,52.57,2.11,3.12,4.16,6.27,6.18,9.44,7.21,11.67,13.9,23.57,19.74,36.02,1.24,2.73-2.8,4.82-4.25,2.11Z"/><path d="M598.19,353.83c-.51-3.08-1.31-6.36-2.27-9.26-1.84-4.66-4.14-9.4-6.85-14.08-.87-1.54-1.81-3.1-2.78-4.64-11.63-18.33-29.09-36.12-48.2-49.76-1.59-1.13-3.22-2.25-4.82-3.33-14.08-9.4-28.86-16.43-42.73-19.76-22.38-4.76-33.84,8.57-26.26,30.01,8.27,22.7,24.93,41.01,42.34,57.09,13.49,12.15,43.51,35.57,67.36,37.43,1.56,.14,3.1,.16,4.57,.09,.11,0,.23,0,.32-.02,4.76-.25,9.19-1.54,13.07-4.16,.99-.64,1.93-1.38,2.83-2.21,.02-.02,.05-.05,.05-.07,.34-.41,.67-.85,.97-1.29,.05-.07,.07-.11,.11-.18,3.35-4.92,4.71-10.89,2.3-15.85Zm-28.17,14.13c-22.22-4.59-41.95-18.06-59.46-32.37-15.6-13.49-53.69-52.77-40.67-74.12,10.87-9.26,29.16-.83,40.87,4.62,7.63,4.14,15.19,8.82,22.49,14.04,1.63,1.15,3.24,2.34,4.82,3.54,15.69,11.88,29.84,26.17,40.3,42.53,1.01,1.56,2,3.15,2.92,4.78,2.99,5.1,5.61,10.41,7.79,15.9,.8,3.42,2.69,7.17,.78,10.36,.51,11.14-9.4,12.5-19.85,10.73Z"/><path d="M595.89,369.69c-.05,.07-.07,.11-.11,.18-.25,.44-.53,.87-.83,1.31-.53,.83-1.08,1.63-1.68,2.44-5.31,7.35-12.54,13.76-20.7,17.99-1.29,.69-2.6,1.31-3.95,1.84-10.18,4.25-21.46,4.99-32.1-.05-19.74-9.65-37.27-22.56-53.16-37.7-10.34-10.15-19.51-22.01-25-35.73-.53-1.29,.11-2.76,1.4-3.29,1.26-.51,2.69,.09,3.24,1.29,6.18,12.27,15.51,22.68,25.69,32.05,13,11.49,27.5,21.46,42.57,30.12,13.16,9.35,26.86,8.39,39.38,2.3,2.46-1.19,4.85-2.6,7.19-4.16,.34-.21,.69-.44,1.03-.69,1.1-.74,2.18-1.52,3.24-2.34,1.95-1.49,3.86-3.08,5.7-4.73,1.38-1.24,2.71-2.53,4.02-3.84,1.93-2.32,5.74,.51,4.07,3.01Z"/><path class="cls-6" d="M515.15,330.39c-28.16-24.75-44.52-52.17-36.55-61.25,7.98-9.07,37.27,3.63,65.43,28.39,28.16,24.75,44.52,52.17,36.55,61.25-7.98,9.07-37.27-3.63-65.43-28.39Z"/><path class="cls-1" d="M684.29,273.71c-1.18-8.14,.75-18.55-7.24-23.58-2.66-1.27-1.08-5.48,1.73-4.69,9.16,2.19,12.8,12.89,12.25,21.28-.36,2.92-.65,10.6-5.21,9.26-.94-.41-1.48-1.31-1.53-2.27h0Z"/><path class="cls-1" d="M531.65,328.54s1.39,1.38,3.47,3.45c2.07,2.06,4.83,4.74,7.7,7.16,1.41,1.25,2.93,2.32,4.39,3.2,1.44,.92,2.84,1.62,4.1,2.06,1.25,.36,2.33,.76,3.1,.75,.79,.11,1.24,.17,1.24,.17l.28,.04c.64,.09,1.08,.67,1,1.31-.07,.51-.46,.9-.94,.99,0,0-.54,.1-1.5,.28-.48,.07-1.09,.2-1.76,.14-.67-.05-1.48,.02-2.28-.16-1.63-.33-3.5-.87-5.32-1.77-1.78-.95-3.59-2.1-5.22-3.41-1.67-1.28-3.14-2.77-4.44-4.2-1.3-1.43-2.34-2.92-3.22-4.17-1.73-2.53-2.55-4.48-2.55-4.47-.26-.61,.02-1.32,.62-1.58,.46-.2,.98-.08,1.32,.25Z"/><path class="cls-1" d="M583.68,143.46s.11,1.45,.57,3.6c.42,2.15,1.23,4.95,2.22,7.67,1.01,2.7,2.23,5.34,3.39,7.01,.57,.85,1.12,1.36,1.45,1.68,.3,.14,.41,.24,.41,.24l.46,.42c.97,.9,1.04,2.41,.14,3.39-.9,.97-2.41,1.04-3.39,.14,0,0-.02-.02-.03-.03,0,0-.42-.4-1.06-1.15-.47-.68-1-1.67-1.49-2.75-1-2.18-2.03-4.99-3.02-7.81-1.02-2.81-1.99-5.61-2.84-7.68-.81-2.07-1.47-3.46-1.47-3.46v-.03c-.6-1.23-.07-2.69,1.16-3.28,1.23-.58,2.69-.06,3.28,1.17,.13,.28,.21,.58,.23,.87Z"/></svg>