<?xml version="1.0" encoding="UTF-8"?><svg id="Layer_1" xmlns="http://www.w3.org/2000/svg" viewBox="0 0 1199.91 900"><defs><style>.cls-1{fill:#fff;}.cls-2{stroke-width:4px;}.cls-2,.cls-3{fill:none;stroke:#000;stroke-linecap:round;stroke-linejoin:round;}.cls-3{stroke-width:.41px;}.cls-4{fill:#59b250;}.cls-5{fill:#ececea;}.cls-6{fill:#c7ad44;}.cls-7{fill:#ee9e23;}.cls-8{fill:#231f20;}</style></defs><path class="cls-7" d="M594.19,162.64v72.87c-.02,1.25-.27,9.34-4.39,12.23-1.02,.73-2.28,1.12-3.83,1.02h-42.01c-8.33,.52-8.22-13.41-8.22-13.41v-72.71c27.19,1.43,50.42,.43,56.75,.09,1.12-.05,1.71-.09,1.71-.09Z"/><rect class="cls-1" x="534.4" y="174.87" width="58.58" height="35.39"/><path class="cls-2" d="M585.1,249.79h-41.12c-10.22-.16-9.59-9.84-9.59-9.84v-70.59c0-15.96,7.22-16.83,7.22-16.83,7.88-1.32,7.15-15.87,7.15-15.87l-.14-3.07v-.05l-.07-1.55-.5-11.04s-.39-4.03,3.58-4.74c.39-.09,.82-.14,1.3-.14h21.34s.41,.02,.93,.18c1.05,.3,2.55,1.12,2.55,3.32l.2,6.42,.2,7.06,.02,1.05,.09,2.82s-.39,14.28,7.49,15.6c0,0,5.08,.61,6.72,10.2,.32,1.84,.5,4.03,.5,6.63v70.59s.32,4.9-3.19,7.79c-1.46,1.21-3.58,2.05-6.65,2.05h-40.87"/><path d="M534.45,209.37c19.27-2.94,38.58-2.44,57.85,0,.42,.06,.72,.53,.67,1.04-.04,.43-.33,.76-.67,.81-9.64,1.43-19.28,1.84-28.93,1.94-9.64,.05-19.28-.27-28.93-1.94-.86-.12-.87-1.73,0-1.84h0Z"/><path d="M592.98,175.65c-19.52,2.11-39.07,2.34-58.58,0-.45-.06-.76-.47-.7-.92,.05-.37,.35-.65,.7-.7,9.76-1.33,19.53-1.62,29.29-1.61,9.76,.07,19.53,.38,29.29,1.61,.92,.09,.93,1.54,0,1.62h0Z"/><path d="M572.58,142.41c1.34,3.67,2.11,8.59,5.11,11.21,.29,.2,.37,.6,.14,.87-.17,.21-.46,.27-.7,.16-3.32-1.81-4.45-5.42-5.27-8.71-.06-.98-1.14-3.63,.15-3.94,.26,0,.49,.18,.57,.42h0Z"/><path class="cls-3" d="M548.31,126s12.12,2.41,29.65,0"/><path class="cls-3" d="M548.31,133.54s12.12,2.41,29.65,0"/><g><path class="cls-7" d="M546.93,245.42c0,33.05-26.8,59.84-59.84,59.84s-59.83-26.79-59.83-59.84,26.8-59.84,59.83-59.84,59.84,26.79,59.84,59.84Z"/><path d="M549.58,241c.02-1.43-.2-3.21-.5-5.28-.2-2.09-.71-4.44-1.37-7.06-1.3-4.85-3.26-10.63-6.85-16.53-.27-.46-.55-.91-.84-1.37-.11-.16-.2-.34-.34-.5-.3-.5-.61-.98-.98-1.48-.89-1.32-1.87-2.66-2.96-3.98-.41-.55-.87-1.09-1.34-1.64-3.28-3.83-7.2-7.51-11.86-10.75-4.1-2.82-8.65-5.26-13.66-7.15-1.14-.46-2.3-.87-3.51-1.23-1.28-.41-2.6-.8-3.94-1.12-2.32-.59-4.74-1.05-7.24-1.39-4.05-.5-8.38-.64-12.82-.34v.02c-.84,.07-1.71,.14-2.57,.25-.84,.09-1.69,.18-2.53,.32-2.57,.39-5.15,.96-7.7,1.68-.34,.09-.71,.18-1.07,.32-.36,.09-.75,.23-1.14,.34-1.87,.61-3.71,1.32-5.51,2.12-2.07,.89-4.1,1.91-6.06,3.05-.5,.3-1,.59-1.5,.89-.46,.3-.93,.57-1.39,.89-2.21,1.43-4.37,3.01-6.47,4.67-4.71,3.94-8.88,8.61-12.46,13.78-3.44,5.26-6.06,11.07-7.95,17.12-1.8,5.92-2.62,13.02-2.69,18.54,.18,6.85,1.02,12.84,2.91,18.99,2,5.99,4.74,11.7,8.24,16.85,3.6,5.06,7.77,9.65,12.46,13.5,4.76,3.73,9.88,6.95,15.3,9.18,5.49,2.19,10.91,3.85,16.71,4.46,2.96,.5,5.44,.41,8.06,.52,.46,0,.89-.02,1.32-.02,2.44-.07,4.6-.27,6.9-.5,10.57-1.41,20.08-5.35,27.69-10.57,7.63-5.26,13.3-11.73,17.33-17.99,4.19-6.22,6.42-12.41,7.92-17.53,.75-2.57,1.32-4.92,1.59-7.04,.27-1.62,.5-3.05,.59-4.24,.05-.36,.07-.68,.07-1,.02-.36,.05-.71,.07-1.02,.14-2.09,.2-3.21,.2-3.21v-.14s-.05-1.53-.14-4.42Zm-5.56,7.77c-.02,.23-.05,.48-.05,.73v.3c0,1.25-.2,2.62-.43,4.17,0,.11-.02,.23-.05,.36-.18,1.84-.64,3.99-1.28,6.38-1.3,4.71-3.42,10.38-7.24,16.1-3.85,5.65-9.22,11.39-16.26,15.96-7.06,4.53-15.73,7.81-25.23,8.79-.52,.05-1.05,.07-1.59,.09-1.87,.11-3.83,.16-5.51,.11-2.55-.21-5.33-.25-7.58-.77-4.74-.66-9.72-2.39-14.37-4.46-4.69-2.14-8.99-5.15-13.07-8.49-3.96-3.46-7.42-7.56-10.38-12-2.87-4.53-5.01-9.5-6.58-14.64-1.46-5.08-2.14-10.79-2.25-15.71,.23-6.22,.91-10.84,2.48-16.14,1.68-5.08,3.94-9.95,6.88-14.35,2.98-4.35,6.44-8.36,10.38-11.75,2.12-1.71,4.33-3.32,6.6-4.78,.52-.32,1.07-.66,1.62-.96,.59-.36,1.18-.68,1.78-1,.98-.52,1.96-1,2.96-1.43,2.14-.93,4.28-1.73,6.47-2.41,.32-.11,.66-.2,1-.3,.05-.02,.09-.05,.14-.05,.27-.09,.57-.18,.87-.25,.46-.14,.91-.25,1.37-.34,.77-.21,1.55-.39,2.32-.52,5.47-1.14,11-1.46,16.55-.93,.64,.07,1.28,.16,1.91,.25,1.43,.18,2.85,.43,4.24,.75,1.34,.27,2.66,.61,3.96,1,5.26,1.55,10.25,3.78,14.46,6.49,6.95,4.46,12.27,10.09,16.1,15.62,.05,.07,.11,.16,.16,.23,.48,.68,.91,1.34,1.34,2.03,2.96,4.78,4.76,9.5,5.99,13.48,.71,2.35,1.23,4.44,1.48,6.33,.34,1.87,.61,3.46,.64,4.78,.18,2.32,.27,3.69,.3,3.96-.02,.32-.05,1.48-.11,3.39Z"/></g><g><path class="cls-4" d="M501.56,189.35c5.71-6.77,9.74-16.17,9.74-25.56,0-1.3-.11-2.63-.35-3.69-9.28,.35-20.32,6.18-26.99,13.91-5.23,5.95-10.11,15.34-10.11,24.86,0,1.43,.24,2.86,.35,3.32,.59,.11,1.54,.24,2.5,.24,8.33,0,18.81-5.58,24.86-13.09h0Z"/><path d="M513.37,161.82l-.34-1.96-.39-2.16-1.78,.32c-1.37,.16-2.78,.25-4.12,.48-1.34,.32-2.69,.57-3.98,.98-2.6,.82-5.1,1.89-7.49,3.1l-3.51,2.05-3.3,2.32-3.1,2.62-2.85,2.94c-.91,1.12-1.66,1.96-2.48,3.1-.77,1.14-1.62,2.25-2.25,3.44-.55,.89-1.07,1.8-1.53,2.73-.77,1.46-1.43,2.98-2,4.55-.11,.23-.2,.48-.27,.71-.41,1.02-.68,2.09-.98,3.17-.07,.23-.14,.46-.18,.68-.16,.52-.25,1.07-.36,1.62,0,.09-.02,.2-.05,.3-.07,.48-.16,.96-.25,1.41-.07,.34-.11,.68-.16,1.02,.02,0,0,.02,0,.02-.11,1-.11,2.03-.2,3.05l-.02,.52,.07,.73,.09,.96,.11,1.05,.09,.89,.02,.32,.05,.46,.07,.64,.02,.16,1.53,.23,2.25,.32,.57,.09,.66-.02,.98-.02h.09c1.23,.02,2.64-.14,4.1-.43,1.55-.2,2.82-.68,4.21-1.07,1.39-.34,2.62-1,3.96-1.5,1.3-.52,2.5-1.28,3.76-1.91,1.25-.66,2.39-1.5,3.6-2.28,1.16-.82,2.23-1.78,3.35-2.66,.82-.73,1.57-1.5,2.32-2.3,.25-.25,.5-.5,.75-.75l.16-.18c.71-.89,1.41-1.75,2.07-2.66,.14-.14,.25-.3,.36-.46,.64-1.05,1.32-1.89,1.84-3.14,.07-.14,.14-.27,.18-.41l1.78-4.08,.84-2.05,.5-2.07,.98-4.14c.43-1.34,.3-2.82,.41-4.24l.14-4.21c-.05-1.23-.2-1.46-.32-2.23Zm-4.44,1.48v.75c-.05-.46-.05,0-.07-.05l-.68,3.62c-.25,1.18-.23,2.41-.77,3.55l-1.28,3.42-.64,1.71-.89,1.5-1.71,3.01c-.27,.68-.89,1.37-1.48,2.1-.25,.32-.5,.64-.73,.98-.66,.89-1.25,1.87-1.87,2.82-.09,.14-.18,.3-.27,.43l-.02,.05c-.71,.82-1.34,1.71-2.07,2.53-.34,.32-.66,.64-.98,.98-.5,.5-1.02,1.02-1.57,1.53-.96,.73-1.84,1.55-2.82,2.23-1.02,.64-1.98,1.41-3.05,1.96-1.09,.55-2.12,1.25-3.23,1.64-1.12,.43-2.25,1-3.3,1.23l-1.62,.48c-.61,.14-1.3,.18-1.94,.27l-.98,.14s-.2,.05-.3,.05h-.05l-.39-.02h-.14l.18,1.75-1.5-1.62-.18-.18h.18l1.32,.05-.02-.16-.09-.96s-.02-.16-.05-.25l.05-.43c.11-1.21,.05-2.39,.3-3.57,.25-1.14,.34-2.32,.73-3.44,0-.05,0-.07,.02-.11,.34-1.18,.61-2.35,1.12-3.48,.2-.55,.41-1.07,.64-1.62,.71-1.71,1.59-3.37,2.57-4.96v-.02c.59-1.09,1.32-2,1.98-3.01,.66-.96,1.62-2.07,2.35-2.94l2.53-2.62,2.8-2.37,3.01-2.12,3.19-1.84c2.19-1.12,4.44-2.07,6.76-2.82,1.16-.34,2.35-.57,3.51-.87,.48-.07,.96-.14,1.43-.16v-.11l-.02-1.98,2.14,1.84c-.71,.09-1.41,.16-2.12,.25l.02,.87Z"/></g><g><path class="cls-4" d="M455.77,193.57c3.74,4.42,9.37,8.05,15.43,9.08,.85,.14,1.71,.22,2.42,.18,.79-6.03-1.77-13.79-6.03-18.94-3.27-4.02-8.8-8.2-14.95-9.24-.92-.16-1.87-.16-2.18-.14-.13,.36-.32,.97-.43,1.58-.9,5.38,1.55,12.75,5.75,17.47h0Z"/><path d="M474.59,197.64c-.11-.87-.27-1.71-.48-2.55-.2-.86-.43-1.71-.71-2.57-.02-.09-.07-.18-.09-.27-.16-.46-.32-.91-.5-1.37-.43-1.07-.91-2.14-1.43-3.17,0-.02-.02-.02-.02-.05-.84-1.46-1.75-2.89-2.8-4.21-.02-.05-.07-.07-.09-.11l-1.78-1.91c-.59-.59-1.09-1.25-1.84-1.78-1.43-1.02-2.73-2.34-4.33-3.05l-2.32-1.23c-.75-.5-1.66-.61-2.48-.91l-2.55-.73c-1.09-.25-1.75-.16-2.64-.25l-.82-.09-.23,.77-.43,1.37c-.18,.46-.18,1.05-.25,1.39-.14,.82-.16,1.75-.14,2.71-.02,.98,.16,1.84,.25,2.76,.09,.93,.39,1.78,.57,2.66,.48,1.75,1.14,3.46,1.94,5.1,.16,.32,.32,.61,.48,.91,.71,1.32,1.55,2.55,2.48,3.73l.09,.09c.07,.07,.14,.16,.2,.23,.5,.57,1,1.12,1.57,1.64,.64,.61,1.14,1.23,2,1.73,.09,.05,.16,.11,.25,.16,1.53,.96,2.91,2.14,4.55,2.73l2.5,1.09c.8,.43,1.75,.5,2.62,.75l2.66,.57c.23,.02,.39,.05,.55,.05,.32,.02,.55,0,.89,.02h1.3l1.07,.02v-.93c.02-.11,.02-.2,.02-.32,.02-.11,.02-.23,.05-.34,.05-.66,.07-1.32,.07-1.96v-.18c-.02-.84-.09-1.66-.18-2.5Zm-2.21,3.96c-.09-.02-.2-.02-.34-.05-.32-.05-.71-.07-.8-.14l-2.3-.8c-.77-.3-1.57-.41-2.25-.89l-2.14-1.18c-1.02-.46-1.84-1.18-2.66-1.87-.36-.32-.75-.61-1.14-.89-.61-.41-1.16-1.21-1.78-1.75-.3-.32-.61-.64-.96-.93-.27-.25-.57-.5-.84-.77-.89-.96-1.69-1.96-2.39-3.05-.18-.23-.32-.48-.48-.73-.8-1.39-1.5-2.85-2.05-4.35-.23-.77-.57-1.53-.68-2.32-.16-.77-.39-1.59-.41-2.32-.09-.75-.16-1.55-.07-2.44,.05-.48-.02-.77,.09-1.14l.09-.39c-.3,0-.59-.02-.87-.05l1.02-.68-.16,.73c.57,.05,1.14,.07,1.5,.18l2.3,.68c.75,.25,1.57,.34,2.25,.8l2.14,1.14c1.5,.66,2.6,1.84,3.92,2.76,.66,.43,1.21,1.14,1.78,1.71l1.18,1.25,.5,.55c.89,1.12,1.71,2.35,2.41,3.6h.02c.09,.14,.16,.3,.25,.43,.68,1.34,1.3,2.71,1.78,4.14,.05,.11,.07,.23,.11,.34,.23,.68,.41,1.37,.57,2.05,.02,0,0,.02,0,.02,.23,.86,.39,1.75,.52,2.66,.16,1.25,.2,2.51,.14,3.73l1,.14-1.07,.91v-.02c.02-.34,.05-.68,.07-1.02l-.27-.05Z"/></g><path class="cls-1" d="M462.25,217.51c0,1.16-.95,2.11-2.11,2.11s-2.1-.94-2.1-2.11,.94-2.11,2.1-2.11,2.11,.94,2.11,2.11Z"/><path class="cls-1" d="M449.99,225.75c0,1.17-.95,2.11-2.1,2.11s-2.11-.94-2.11-2.11,.95-2.11,2.11-2.11,2.1,.94,2.1,2.11Z"/><path class="cls-1" d="M458.69,237.64c0,1.17-.95,2.11-2.11,2.11s-2.11-.94-2.11-2.11,.95-2.11,2.11-2.11,2.11,.94,2.11,2.11Z"/><path d="M479.24,207.35c0,2.61-2.11,4.71-4.72,4.71s-4.72-2.1-4.72-4.71,2.11-4.71,4.72-4.71,4.72,2.11,4.72,4.71Z"/><path class="cls-1" d="M511.32,211.38c0,1.17-.95,2.11-2.11,2.11s-2.11-.94-2.11-2.11,.95-2.11,2.11-2.11,2.11,.94,2.11,2.11Z"/><path class="cls-1" d="M474.53,229.78c0,1.17-.95,2.11-2.11,2.11s-2.11-.94-2.11-2.11,.95-2.11,2.11-2.11,2.11,.94,2.11,2.11Z"/><path class="cls-1" d="M487.79,218.51c0,1.16-.94,2.11-2.11,2.11s-2.11-.94-2.11-2.11,.95-2.11,2.11-2.11,2.11,.94,2.11,2.11Z"/><path class="cls-1" d="M486.79,242.04c0,1.16-.94,2.11-2.11,2.11s-2.11-.94-2.11-2.11,.95-2.11,2.11-2.11,2.11,.94,2.11,2.11Z"/><path class="cls-1" d="M468.39,248.18c0,1.16-.95,2.11-2.11,2.11s-2.11-.94-2.11-2.11,.95-2.11,2.11-2.11,2.11,.94,2.11,2.11Z"/><path class="cls-1" d="M449.99,248.18c0,1.16-.95,2.11-2.1,2.11s-2.11-.94-2.11-2.11,.95-2.11,2.11-2.11,2.1,.94,2.1,2.11Z"/><path class="cls-1" d="M517.46,223.64c0,1.17-.95,2.11-2.11,2.11s-2.11-.94-2.11-2.11,.95-2.11,2.11-2.11,2.11,.94,2.11,2.11Z"/><path class="cls-1" d="M456.12,266.58c0,1.16-.95,2.11-2.11,2.11s-2.11-.94-2.11-2.11,.95-2.11,2.11-2.11,2.11,.94,2.11,2.11Z"/><path class="cls-1" d="M474.53,266.58c0,1.16-.95,2.11-2.11,2.11s-2.11-.94-2.11-2.11,.95-2.11,2.11-2.11,2.11,.94,2.11,2.11Z"/><path class="cls-1" d="M500.06,231.78c0,1.16-.95,2.11-2.11,2.11s-2.11-.94-2.11-2.11,.95-2.11,2.11-2.11,2.11,.94,2.11,2.11Z"/><path class="cls-1" d="M499.06,205.24c0,1.17-.95,2.11-2.11,2.11s-2.1-.94-2.1-2.11,.95-2.11,2.1-2.11,2.11,.94,2.11,2.11Z"/><path class="cls-1" d="M469.4,281.08c0,1.17-.95,2.11-2.11,2.11s-2.11-.94-2.11-2.11,.95-2.11,2.11-2.11,2.11,.94,2.11,2.11Z"/><path class="cls-1" d="M484.78,255.43c0,1.17-.95,2.11-2.1,2.11s-2.11-.94-2.11-2.11,.95-2.11,2.11-2.11,2.1,.94,2.1,2.11Z"/><path class="cls-1" d="M530.96,229.78c0,1.17-.95,2.11-2.1,2.11s-2.11-.94-2.11-2.11,.95-2.11,2.11-2.11,2.1,.94,2.1,2.11Z"/><path class="cls-1" d="M489.91,270.82c0,1.17-.95,2.11-2.1,2.11s-2.11-.94-2.11-2.11,.95-2.1,2.11-2.1,2.1,.94,2.1,2.1Z"/><path class="cls-1" d="M500.17,250.3c0,1.16-.95,2.11-2.1,2.11s-2.11-.94-2.11-2.11,.95-2.11,2.11-2.11,2.1,.94,2.1,2.11Z"/><path class="cls-1" d="M461.14,343.5c-3.7,.37-7.17,.7-11.09,.81,1.13-1.87,2.27-3.7,3.51-5.53,1.21-1.94,2.49-3.84,3.81-5.75,21.52-31.37,49.93-57.61,83.01-76.64,1.57-.88,3.18-1.79,4.79-2.67,1.5-.81,4.01-1.65,5.55-2.42-.15,1.9-1.48,4.21-1.92,6.81-.44,3.4-1.35,7.17-2.56,11.31-2.42,8.24-6,18.19-12.74,28.18-6.48,10.07-15.59,20.46-27.85,28.92-12.23,8.38-27.52,14.71-44.51,16.98Z"/><path class="cls-1" d="M538.13,304.62c12,13.25,25.5,28.96,24.68,48.12-1.18,13.62-16.03,21.59-28.3,21.45-12.25,.14-27.1-7.83-28.28-21.45-.82-19.17,12.66-34.84,24.66-48.12,1.05-.91,2.19-2.66,3.62-2.69,1.46,.02,2.6,1.78,3.62,2.69Z"/><path class="cls-1" d="M612.13,255.06l-69.13-.14c1.48-.79,2.97-1.39,4.5-2.08,26.87-13.01,55.72-22.67,86.01-28.31,.84-.15,1.73-.3,2.62-.5-.05,2.72-.59,20.29-9.55,26.58-3.17,2.62-7.77,4.45-14.45,4.45Z"/><path class="cls-1" d="M592.14,319.72c-.82-19.17,12.66-34.86,24.66-48.12,1.02-.91,2.16-2.66,3.62-2.69,1.43,.02,2.6,1.78,3.62,2.69,12,13.25,25.48,28.94,24.66,48.12-1.18,13.59-16.03,21.56-28.28,21.43-12.25,.14-27.12-7.83-28.28-21.43Z"/><path class="cls-1" d="M773.85,435.3c-.89,3.03-1.84,6.03-2.91,8.97-1.94,5.4-4.14,10.63-6.63,15.74-2.25,4.67-4.74,9.2-7.45,13.57-1,1.66-2.07,3.32-3.14,4.94-1.12,1.69-2.25,3.32-3.44,4.94-28.67,39.74-75.37,65.58-128.11,65.58-47.48,0-90.08-20.95-119.02-54.13-1.82-2.05-3.55-4.14-5.26-6.29-1.25-1.64-2.5-3.28-3.71-4.96-10.63-14.64-18.79-31.17-23.91-48.98-1.39-4.87-2.55-9.84-3.48-14.89-.43-2.25-.8-4.55-1.09-6.85,76.94-23.84,159.31-22.04,237.82-6.74,21.77,5.24,51.76,12.66,70.34,29.1Z"/><g><path class="cls-8" d="M352.69,744.52v-.42l2.02-.33c.41-.09,.71-.19,.92-.28,.2-.09,.34-.24,.42-.45,.08-.2,.12-.48,.12-.82v-28.33c0-.38-.04-.66-.12-.85-.08-.19-.22-.34-.42-.45-.2-.11-.51-.2-.92-.26l-2.02-.33v-.42h14.4c2.57,0,4.97,.33,7.2,.99,2.23,.66,4.2,1.65,5.91,2.96,1.71,1.32,3.04,2.97,4,4.94,.96,1.98,1.44,4.27,1.44,6.87,0,3.55-.79,6.61-2.35,9.18-1.57,2.57-3.73,4.55-6.47,5.93-2.75,1.38-5.94,2.07-9.58,2.07h-14.54Zm11.48-.85h3.25c2.38,0,4.49-.63,6.31-1.91,1.82-1.27,3.25-3.08,4.28-5.44s1.55-5.13,1.55-8.33c0-3.45-.58-6.33-1.74-8.64-1.16-2.31-2.78-4.04-4.85-5.2s-4.46-1.74-7.15-1.74h-3.91v28.85c0,.91,.13,1.54,.4,1.88,.27,.35,.89,.52,1.86,.52Z"/><path class="cls-8" d="M401.64,744.94c-2.29,0-4.32-.48-6.1-1.44-1.77-.96-3.16-2.35-4.17-4.17-1-1.82-1.51-4.05-1.51-6.68,0-1.95,.3-3.7,.89-5.27,.6-1.57,1.44-2.91,2.52-4.02,1.08-1.11,2.35-1.97,3.81-2.57,1.46-.6,3.04-.89,4.73-.89,2.29,0,4.33,.47,6.12,1.41s3.18,2.32,4.19,4.14c1,1.82,1.51,4.06,1.51,6.73,0,1.95-.31,3.69-.92,5.25-.61,1.55-1.45,2.89-2.52,4.02-1.07,1.13-2.33,1.99-3.79,2.59s-3.05,.89-4.78,.89Zm.52-.66c.97,0,1.8-.27,2.49-.82,.69-.55,1.26-1.3,1.72-2.26,.45-.96,.79-2.04,1.01-3.25,.22-1.21,.33-2.49,.33-3.84,0-1.88-.13-3.64-.38-5.27-.25-1.63-.64-3.07-1.15-4.31s-1.18-2.21-1.98-2.92c-.8-.71-1.75-1.06-2.85-1.06-.97,0-1.8,.27-2.49,.8-.69,.53-1.27,1.28-1.74,2.24-.47,.96-.81,2.04-1.01,3.25-.2,1.21-.31,2.5-.31,3.88,0,1.85,.12,3.59,.35,5.22,.24,1.63,.61,3.08,1.13,4.33,.52,1.26,1.18,2.24,2,2.94,.82,.71,1.77,1.06,2.87,1.06Z"/><path class="cls-8" d="M426.3,744.94c-1.38,0-2.64-.29-3.77-.87-1.13-.58-2.08-1.38-2.85-2.4-.77-1.02-1.36-2.23-1.76-3.62-.41-1.4-.61-2.93-.61-4.59s.2-3.19,.59-4.59c.39-1.4,.95-2.66,1.67-3.79,.72-1.13,1.59-2.08,2.61-2.85,1.02-.77,2.16-1.35,3.41-1.74,1.25-.39,2.62-.59,4.09-.59,.82,0,1.65,.1,2.52,.31,.86,.2,1.72,.57,2.56,1.11v-8.47l-2.82-1.04v-.28l8.1-1.98,.28,.14v32.19c0,.25,.06,.45,.19,.59,.12,.14,.31,.24,.56,.31l2.17,.38v.28l-8.19,1.51-.28-.19v-4.99h-.24c-1.07,1.63-2.28,2.9-3.62,3.81-1.35,.91-2.89,1.37-4.61,1.37Zm2.92-2.92c1.04,0,2.02-.27,2.94-.8,.93-.53,1.8-1.35,2.61-2.45v-11.06c0-2.64-.46-4.49-1.36-5.55-.91-1.07-2.09-1.6-3.53-1.6-1.16,0-2.25,.42-3.27,1.25-1.02,.83-1.84,2.06-2.45,3.67s-.92,3.63-.92,6.05c0,2.29,.24,4.22,.73,5.79,.49,1.57,1.18,2.75,2.09,3.53,.91,.78,1.96,1.18,3.15,1.18Z"/><path class="cls-8" d="M451.53,744.94c-1.22,0-2.28-.21-3.18-.64-.89-.42-1.57-1-2.02-1.72-.46-.72-.68-1.55-.68-2.49,0-1.54,.52-2.81,1.58-3.81,1.05-1,2.61-1.71,4.68-2.12l7.01-1.32v-6.45c0-2.04-.35-3.44-1.06-4.19-.71-.75-1.69-1.13-2.94-1.13-.6,0-1.16,.07-1.69,.21-.53,.14-1.05,.35-1.55,.64l-.05,5.18h-5.22l-.19-.24c.47-1.32,1.21-2.5,2.21-3.55,1-1.05,2.24-1.88,3.72-2.5,1.47-.61,3.14-.92,4.99-.92,1.47,0,2.76,.22,3.86,.66,1.1,.44,1.95,1.18,2.56,2.24,.61,1.05,.92,2.5,.92,4.35v13.13c0,1.29,.42,1.93,1.27,1.93,.28,0,.55-.05,.8-.14,.25-.09,.53-.31,.85-.66l.24,.19c-.53,1.19-1.19,2.05-1.95,2.57-.77,.52-1.67,.78-2.71,.78-1.26,0-2.23-.35-2.92-1.04-.69-.69-1.07-1.82-1.13-3.39h-.19c-.78,1.35-1.8,2.42-3.04,3.22-1.24,.8-2.63,1.2-4.17,1.2Zm2.78-2.82c.82,0,1.63-.2,2.45-.59,.82-.39,1.54-1.04,2.17-1.95v-6.21l-4.09,1.04c-1.48,.41-2.52,.93-3.13,1.58-.61,.64-.92,1.53-.92,2.66,0,1.04,.31,1.88,.92,2.52,.61,.64,1.48,.96,2.61,.96Z"/><path class="cls-8" d="M478.08,744.94c-1.91,0-3.35-.51-4.31-1.53-.96-1.02-1.44-2.58-1.44-4.68v-16.8h-2.17v-.28l7.44-6.35,.28,.09v5.18l6.26-.47,.24,.19-.19,1.84h-6.31v16.24c0,1.35,.26,2.33,.78,2.94,.52,.61,1.31,.92,2.38,.92,.6,0,1.15-.09,1.67-.28,.52-.19,1.07-.53,1.67-1.04l.24,.28c-.85,1.26-1.84,2.2-2.97,2.82-1.13,.63-2.32,.94-3.58,.94Z"/><path class="cls-8" d="M486.17,744.52v-.38l1.51-.28c.35-.09,.6-.18,.78-.26,.17-.08,.29-.2,.35-.35,.06-.16,.09-.36,.09-.61v-19.3l-2.64-1.13v-.28l7.91-1.88,.24,.19v22.4c0,.25,.03,.46,.09,.61,.06,.16,.17,.27,.31,.35,.14,.08,.34,.15,.59,.21l1.65,.33v.38h-10.87Zm5.55-27.72c-.88,0-1.62-.3-2.24-.89-.61-.6-.92-1.35-.92-2.26s.31-1.65,.92-2.24c.61-.58,1.36-.87,2.24-.87s1.67,.29,2.28,.87c.61,.58,.92,1.33,.92,2.24s-.31,1.66-.92,2.26c-.61,.6-1.37,.89-2.28,.89Z"/><path class="cls-8" d="M509.05,744.52v-.38l6.5-7.01c1.82-2.04,3.37-3.8,4.64-5.29,1.27-1.49,2.31-2.85,3.13-4.07s1.4-2.42,1.77-3.6c.36-1.18,.54-2.44,.54-3.79,0-2.23-.6-3.92-1.79-5.08-1.19-1.16-2.7-1.74-4.52-1.74-1.26,0-2.58,.35-3.98,1.06-1.4,.71-2.69,1.88-3.88,3.51l-.52-.28c.85-1.44,1.82-2.67,2.92-3.67,1.1-1,2.32-1.77,3.67-2.28,1.35-.52,2.78-.78,4.28-.78,1.76,0,3.37,.31,4.85,.94,1.47,.63,2.65,1.55,3.53,2.78,.88,1.22,1.32,2.75,1.32,4.57,0,1.38-.27,2.68-.8,3.91-.53,1.22-1.29,2.42-2.26,3.6-.97,1.18-2.17,2.39-3.58,3.65-1.41,1.25-3.01,2.65-4.8,4.19l-6.54,5.27v.24l13.41-.47c.85-.03,1.51-.1,1.98-.21,.47-.11,.87-.36,1.2-.75,.33-.39,.65-.98,.96-1.76l1.18-2.68h.38l-2.31,10.17h-21.27Z"/><path class="cls-8" d="M546.18,744.52v-.38l1.55-.28c.31-.09,.56-.18,.73-.26,.17-.08,.29-.2,.35-.35,.06-.16,.09-.36,.09-.61v-29.7l-2.82-1.04v-.28l8.1-1.98,.24,.14v22.03l9.46-8.14c.47-.44,.71-.87,.71-1.29s-.25-.79-.75-1.11c-.5-.31-1.29-.5-2.35-.56v-.42h9.84v.38c-1.13,.25-2.12,.62-2.97,1.11-.85,.49-1.79,1.12-2.82,1.91l-6.17,4.61,12.43,15.86v.38h-6.54l-9.7-12.19h-1.13v10.31c0,.25,.03,.46,.09,.61,.06,.16,.16,.27,.31,.35,.14,.08,.34,.15,.59,.21l1.65,.33v.38h-10.87Z"/><path class="cls-8" d="M579.08,744.94c-1.22,0-2.28-.21-3.18-.64-.89-.42-1.57-1-2.02-1.72-.46-.72-.68-1.55-.68-2.49,0-1.54,.52-2.81,1.58-3.81,1.05-1,2.61-1.71,4.68-2.12l7.01-1.32v-6.45c0-2.04-.35-3.44-1.06-4.19-.71-.75-1.69-1.13-2.94-1.13-.6,0-1.16,.07-1.69,.21-.53,.14-1.05,.35-1.55,.64l-.05,5.18h-5.22l-.19-.24c.47-1.32,1.21-2.5,2.21-3.55,1-1.05,2.24-1.88,3.72-2.5,1.47-.61,3.14-.92,4.99-.92,1.47,0,2.76,.22,3.86,.66,1.1,.44,1.95,1.18,2.56,2.24,.61,1.05,.92,2.5,.92,4.35v13.13c0,1.29,.42,1.93,1.27,1.93,.28,0,.55-.05,.8-.14,.25-.09,.53-.31,.85-.66l.24,.19c-.53,1.19-1.19,2.05-1.95,2.57-.77,.52-1.67,.78-2.71,.78-1.26,0-2.23-.35-2.92-1.04-.69-.69-1.07-1.82-1.13-3.39h-.19c-.78,1.35-1.8,2.42-3.04,3.22-1.24,.8-2.63,1.2-4.17,1.2Zm2.78-2.82c.82,0,1.63-.2,2.45-.59,.82-.39,1.54-1.04,2.17-1.95v-6.21l-4.09,1.04c-1.48,.41-2.52,.93-3.13,1.58-.61,.64-.92,1.53-.92,2.66,0,1.04,.31,1.88,.92,2.52,.61,.64,1.48,.96,2.61,.96Z"/><path class="cls-8" d="M597.58,754.5v-.38l1.46-.28c.31-.09,.56-.18,.75-.26,.19-.08,.31-.2,.38-.35,.06-.16,.09-.36,.09-.61v-29.28l-2.59-1.13v-.28l7.91-1.88,.24,.19v4.8h.24c1.07-1.63,2.28-2.89,3.62-3.79,1.35-.89,2.89-1.34,4.61-1.34,1.38,0,2.64,.28,3.76,.85,1.13,.56,2.08,1.36,2.85,2.38,.77,1.02,1.36,2.24,1.77,3.65,.41,1.41,.61,2.95,.61,4.61s-.2,3.19-.59,4.59c-.39,1.4-.95,2.65-1.67,3.77-.72,1.11-1.59,2.06-2.61,2.82-1.02,.77-2.16,1.36-3.41,1.76-1.26,.41-2.62,.61-4.09,.61-.82,0-1.66-.1-2.52-.31-.86-.2-1.72-.57-2.57-1.11v9.04c0,.25,.03,.46,.09,.63,.06,.17,.17,.3,.33,.38,.16,.08,.39,.15,.71,.21l2.45,.33v.38h-11.81Zm13.13-10.21c1.19,0,2.29-.42,3.29-1.25,1-.83,1.81-2.06,2.42-3.7,.61-1.63,.92-3.64,.92-6.02s-.24-4.26-.73-5.81c-.49-1.55-1.18-2.73-2.09-3.53-.91-.8-1.96-1.2-3.15-1.2-1.04,0-2.02,.28-2.94,.82s-1.8,1.36-2.61,2.42v11.06c0,2.6,.46,4.46,1.39,5.55,.93,1.1,2.09,1.65,3.51,1.65Z"/><path class="cls-8" d="M626.71,744.52v-.38l1.51-.28c.34-.09,.6-.18,.78-.26,.17-.08,.29-.2,.35-.35s.09-.36,.09-.61v-19.3l-2.64-1.13v-.28l7.91-1.88,.24,.19v22.4c0,.25,.03,.46,.09,.61,.06,.16,.17,.27,.31,.35,.14,.08,.34,.15,.59,.21l1.65,.33v.38h-10.87Zm5.55-27.72c-.88,0-1.62-.3-2.24-.89-.61-.6-.92-1.35-.92-2.26s.31-1.65,.92-2.24c.61-.58,1.36-.87,2.24-.87s1.67,.29,2.28,.87c.61,.58,.92,1.33,.92,2.24s-.31,1.66-.92,2.26c-.61,.6-1.37,.89-2.28,.89Z"/><path class="cls-8" d="M662.1,744.94c-1.66,0-3.18-.3-4.54-.89s-2.53-1.44-3.48-2.54c-.96-1.1-1.7-2.41-2.21-3.93-.52-1.52-.78-3.19-.78-5.01,0-2.57,.52-4.81,1.55-6.71,1.04-1.9,2.42-3.37,4.14-4.4,1.72-1.04,3.62-1.55,5.69-1.55,1.73,0,3.26,.31,4.61,.94,1.35,.63,2.45,1.61,3.32,2.94,.86,1.33,1.37,3.07,1.53,5.2l-.14,.24h-15.72l.05-.47,10.83-.8c-.16-2.54-.6-4.41-1.34-5.6-.74-1.19-1.81-1.79-3.22-1.79-1.22,0-2.26,.46-3.11,1.37-.85,.91-1.49,2.14-1.93,3.69-.44,1.55-.66,3.35-.66,5.39,0,2.32,.33,4.31,.99,5.98,.66,1.66,1.59,2.93,2.8,3.79,1.21,.86,2.63,1.29,4.26,1.29,1.35,0,2.54-.28,3.58-.85,1.04-.56,2.05-1.47,3.06-2.73l.33,.24c-.91,1.91-2.16,3.43-3.74,4.54-1.58,1.11-3.54,1.67-5.86,1.67Z"/><path class="cls-8" d="M682.62,744.94c-1.92,0-3.35-.51-4.31-1.53-.96-1.02-1.44-2.58-1.44-4.68v-16.8h-2.17v-.28l7.44-6.35,.28,.09v5.18l6.26-.47,.24,.19-.19,1.84h-6.31v16.24c0,1.35,.26,2.33,.78,2.94,.52,.61,1.31,.92,2.38,.92,.6,0,1.15-.09,1.67-.28s1.07-.53,1.67-1.04l.24,.28c-.85,1.26-1.84,2.2-2.97,2.82-1.13,.63-2.32,.94-3.58,.94Z"/><path class="cls-8" d="M701.5,744.94c-1.66,0-3.18-.3-4.54-.89s-2.53-1.44-3.48-2.54c-.96-1.1-1.7-2.41-2.21-3.93-.52-1.52-.78-3.19-.78-5.01,0-2.57,.52-4.81,1.55-6.71,1.04-1.9,2.42-3.37,4.14-4.4,1.72-1.04,3.62-1.55,5.69-1.55,1.73,0,3.26,.31,4.61,.94,1.35,.63,2.45,1.61,3.32,2.94,.86,1.33,1.37,3.07,1.53,5.2l-.14,.24h-15.72l.05-.47,10.83-.8c-.16-2.54-.6-4.41-1.34-5.6-.74-1.19-1.81-1.79-3.22-1.79-1.22,0-2.26,.46-3.11,1.37-.85,.91-1.49,2.14-1.93,3.69-.44,1.55-.66,3.35-.66,5.39,0,2.32,.33,4.31,.99,5.98,.66,1.66,1.59,2.93,2.8,3.79,1.21,.86,2.63,1.29,4.26,1.29,1.35,0,2.54-.28,3.58-.85,1.04-.56,2.05-1.47,3.06-2.73l.33,.24c-.91,1.91-2.16,3.43-3.74,4.54-1.58,1.11-3.54,1.67-5.86,1.67Z"/><path class="cls-8" d="M714.06,744.52v-.38l1.51-.28c.31-.09,.56-.18,.73-.26,.17-.08,.29-.2,.35-.35,.06-.16,.09-.36,.09-.61v-19.25l-2.59-1.13v-.28l7.86-1.93,.28,.19v7.01h.24c.53-1.38,1.13-2.6,1.79-3.65,.66-1.05,1.44-1.88,2.33-2.47s1.95-.89,3.18-.89h.8v4.99l-.19,.14h-5.79c-.41,.35-.79,.75-1.15,1.2-.36,.46-.76,1.09-1.2,1.91v14.07c0,.25,.03,.46,.09,.63,.06,.17,.17,.3,.31,.38,.14,.08,.34,.13,.59,.17l2.82,.42v.38h-12.05Z"/><path class="cls-8" d="M732.7,744.52v-.38l1.51-.28c.34-.09,.6-.18,.78-.26,.17-.08,.29-.2,.35-.35s.09-.36,.09-.61v-19.3l-2.64-1.13v-.28l7.91-1.88,.24,.19v22.4c0,.25,.03,.46,.09,.61,.06,.16,.17,.27,.31,.35,.14,.08,.34,.15,.59,.21l1.65,.33v.38h-10.87Zm5.55-27.72c-.88,0-1.62-.3-2.24-.89-.61-.6-.92-1.35-.92-2.26s.31-1.65,.92-2.24c.61-.58,1.36-.87,2.24-.87s1.67,.29,2.28,.87c.61,.58,.92,1.33,.92,2.24s-.31,1.66-.92,2.26c-.61,.6-1.37,.89-2.28,.89Z"/><path class="cls-8" d="M757.6,744.94c-2.17,0-4.06-.51-5.67-1.53-1.62-1.02-2.86-2.46-3.74-4.33-.88-1.87-1.32-4.07-1.32-6.61,0-1.95,.32-3.7,.96-5.25,.64-1.55,1.52-2.88,2.64-3.98,1.11-1.1,2.38-1.93,3.81-2.49,1.43-.56,2.92-.85,4.49-.85,1.32,0,2.62,.14,3.91,.42,1.29,.28,2.54,.77,3.76,1.46v6.45h-.38l-.8-1.37c-.91-1.69-1.7-3-2.38-3.91-.68-.91-1.32-1.54-1.93-1.88-.61-.34-1.34-.52-2.19-.52-1.16,0-2.21,.42-3.15,1.25-.94,.83-1.7,2.02-2.28,3.55-.58,1.54-.87,3.34-.87,5.41,0,2.29,.32,4.28,.96,5.95,.64,1.68,1.55,2.97,2.73,3.88,1.18,.91,2.58,1.36,4.21,1.36,1.25,0,2.4-.28,3.44-.85,1.04-.56,2.04-1.46,3.01-2.68l.33,.24c-.6,1.25-1.35,2.35-2.26,3.29-.91,.94-1.97,1.67-3.18,2.19-1.21,.52-2.58,.78-4.12,.78Zm-.61-27.06l-4.99-6.68h.28l6.35,3.15h.19l6.4-3.15h.24l-4.94,6.68h-3.53Z"/><path class="cls-8" d="M769.74,744.52v-.38l1.51-.28c.31-.09,.56-.18,.73-.26,.17-.08,.29-.2,.35-.35,.06-.16,.09-.36,.09-.61v-19.3l-2.59-1.13v-.28l7.86-1.88,.28,.19v4.61h.19c1.22-1.73,2.54-2.98,3.95-3.77,1.41-.78,2.93-1.18,4.57-1.18,2.07,0,3.7,.61,4.89,1.84s1.79,3.06,1.79,5.51v15.39c0,.25,.02,.46,.07,.61s.15,.27,.31,.35c.16,.08,.36,.15,.61,.21l1.55,.33v.38h-10.83v-.38l1.65-.28c.28-.09,.51-.18,.68-.26,.17-.08,.28-.2,.33-.35,.05-.16,.07-.36,.07-.61v-13.98c0-1.88-.33-3.3-.99-4.26-.66-.96-1.74-1.44-3.25-1.44-1,0-1.98,.23-2.92,.68-.94,.46-1.84,1.15-2.68,2.09v16.9c0,.25,.02,.46,.07,.61s.14,.27,.28,.35c.14,.08,.34,.15,.59,.21l1.65,.33v.38h-10.83Z"/><path class="cls-8" d="M810.59,744.94c-2.29,0-4.32-.48-6.09-1.44-1.77-.96-3.16-2.35-4.17-4.17-1-1.82-1.51-4.05-1.51-6.68,0-1.95,.3-3.7,.89-5.27,.6-1.57,1.44-2.91,2.52-4.02,1.08-1.11,2.35-1.97,3.81-2.57,1.46-.6,3.04-.89,4.73-.89,2.29,0,4.33,.47,6.12,1.41,1.79,.94,3.18,2.32,4.19,4.14,1,1.82,1.51,4.06,1.51,6.73,0,1.95-.31,3.69-.92,5.25-.61,1.55-1.45,2.89-2.52,4.02-1.07,1.13-2.33,1.99-3.79,2.59s-3.05,.89-4.78,.89Zm.52-.66c.97,0,1.8-.27,2.5-.82,.69-.55,1.26-1.3,1.72-2.26,.45-.96,.79-2.04,1.01-3.25,.22-1.21,.33-2.49,.33-3.84,0-1.88-.12-3.64-.38-5.27-.25-1.63-.64-3.07-1.15-4.31s-1.18-2.21-1.98-2.92c-.8-.71-1.75-1.06-2.85-1.06-.97,0-1.8,.27-2.5,.8s-1.27,1.28-1.74,2.24-.81,2.04-1.01,3.25c-.2,1.21-.31,2.5-.31,3.88,0,1.85,.12,3.59,.35,5.22,.24,1.63,.61,3.08,1.13,4.33,.52,1.26,1.18,2.24,2,2.94,.82,.71,1.77,1.06,2.87,1.06Z"/><path class="cls-8" d="M835.87,754.92c-2.23,0-4.17-.16-5.84-.47-1.66-.31-2.96-.81-3.91-1.48s-1.41-1.55-1.41-2.61c0-.85,.29-1.58,.87-2.19,.58-.61,1.34-1.15,2.28-1.62s1.96-.88,3.06-1.22v-.19l-5.04-1.13-.09-.28,5.55-8.52c-1.66-.53-2.98-1.4-3.95-2.59-.97-1.19-1.46-2.71-1.46-4.57,0-1.63,.42-3.07,1.27-4.31,.85-1.24,2.02-2.19,3.53-2.85,1.51-.66,3.25-.99,5.22-.99,1.41,0,2.7,.13,3.86,.4,1.16,.27,2.17,.67,3.01,1.2l4.33-3.91,.28,.09v4.09h-4.19c.91,.66,1.61,1.48,2.09,2.45,.49,.97,.73,2.13,.73,3.48,0,1.63-.42,3.06-1.27,4.28-.85,1.22-2.02,2.17-3.53,2.85-1.51,.67-3.25,1.01-5.22,1.01-.79,0-1.54-.05-2.26-.14-.72-.09-1.4-.22-2.02-.38l-2.07,4.66h10.92c2.67,0,4.64,.56,5.93,1.67,1.29,1.11,1.93,2.57,1.93,4.35s-.54,3.35-1.62,4.68c-1.08,1.33-2.57,2.37-4.47,3.11-1.9,.74-4.07,1.11-6.52,1.11Zm.28-.71c1.66,0,3.1-.25,4.31-.75s2.14-1.18,2.8-2.02c.66-.85,.99-1.8,.99-2.87,0-1.22-.44-2.09-1.32-2.61-.88-.52-2.2-.78-3.95-.78h-7.01c-.94,.63-1.63,1.28-2.07,1.95-.44,.67-.66,1.51-.66,2.52,0,1.41,.6,2.53,1.79,3.34,1.19,.82,2.9,1.22,5.13,1.22Zm.09-19.01c.78,0,1.46-.19,2.02-.56,.57-.38,1.04-.87,1.41-1.48,.38-.61,.66-1.29,.85-2.02,.19-.74,.28-1.45,.28-2.14,0-.85-.09-1.75-.26-2.71-.17-.96-.46-1.87-.85-2.73s-.91-1.58-1.55-2.14c-.64-.57-1.44-.85-2.38-.85-.75,0-1.42,.19-2,.57-.58,.38-1.06,.87-1.43,1.48-.38,.61-.66,1.29-.85,2.02-.19,.74-.28,1.47-.28,2.19,0,.79,.09,1.66,.26,2.64,.17,.97,.45,1.89,.82,2.75,.38,.86,.89,1.58,1.53,2.14,.64,.56,1.45,.85,2.42,.85Z"/><path class="cls-8" d="M447.51,810.84c-2.07,0-3.69-.62-4.85-1.86-1.16-1.24-1.74-3.07-1.74-5.48v-14.5l-2.59-1.13v-.28l7.86-1.65,.28,.14v15.86c0,1.85,.31,3.31,.94,4.38,.63,1.07,1.73,1.6,3.29,1.6,1,0,1.98-.23,2.92-.68,.94-.46,1.8-1.12,2.59-2v-16.24l-2.87-1.13v-.28l8.14-1.65,.28,.14v21.7c0,.25,.06,.45,.19,.59,.12,.14,.31,.24,.56,.31l2.17,.38v.28l-8.19,1.51-.28-.19v-4.57h-.24c-1.26,1.54-2.57,2.71-3.95,3.53-1.38,.82-2.89,1.22-4.52,1.22Z"/><path class="cls-8" d="M466.95,810.41v-.38l1.55-.28c.31-.09,.56-.18,.73-.26,.17-.08,.29-.2,.35-.35,.06-.16,.09-.36,.09-.61v-29.7l-2.82-1.04v-.28l8.1-1.98,.24,.14v32.85c0,.25,.04,.46,.12,.61,.08,.16,.2,.27,.38,.35,.17,.08,.42,.17,.73,.26l1.51,.28v.38h-10.97Z"/><path class="cls-8" d="M479.7,820.82l-.28-.38,1.74-1.84c.6-.63,1.04-1.23,1.32-1.81,.28-.58,.47-1.25,.56-2,.09-.75,.14-1.68,.14-2.78v-22.78l-2.59-1.13v-.28l7.91-1.88,.24,.19v23.86c0,1.1-.09,2.03-.28,2.8-.19,.77-.51,1.46-.96,2.07-.46,.61-1.05,1.21-1.79,1.81-.74,.6-1.64,1.25-2.71,1.98l-3.29,2.17Zm6.31-38.12c-.88,0-1.62-.3-2.24-.89-.61-.6-.92-1.35-.92-2.26s.31-1.65,.92-2.24c.61-.58,1.36-.87,2.24-.87s1.67,.29,2.28,.87c.61,.58,.92,1.33,.92,2.24s-.31,1.66-.92,2.26c-.61,.6-1.37,.89-2.28,.89Z"/><path class="cls-8" d="M499.94,810.84c-1.22,0-2.28-.21-3.18-.64-.89-.42-1.57-1-2.02-1.72-.46-.72-.68-1.55-.68-2.49,0-1.54,.52-2.81,1.58-3.81,1.05-1,2.61-1.71,4.68-2.12l7.01-1.32v-6.45c0-2.04-.35-3.44-1.06-4.19-.71-.75-1.69-1.13-2.94-1.13-.6,0-1.16,.07-1.69,.21-.53,.14-1.05,.35-1.55,.64l-.05,5.18h-5.22l-.19-.24c.47-1.32,1.21-2.5,2.21-3.55,1-1.05,2.24-1.88,3.72-2.5,1.47-.61,3.14-.92,4.99-.92,1.47,0,2.76,.22,3.86,.66,1.1,.44,1.95,1.18,2.56,2.24,.61,1.05,.92,2.5,.92,4.35v13.13c0,1.29,.42,1.93,1.27,1.93,.28,0,.55-.05,.8-.14,.25-.09,.53-.31,.85-.66l.24,.19c-.53,1.19-1.19,2.05-1.95,2.57-.77,.52-1.67,.78-2.71,.78-1.26,0-2.23-.35-2.92-1.04-.69-.69-1.07-1.82-1.13-3.39h-.19c-.78,1.35-1.8,2.42-3.04,3.22-1.24,.8-2.63,1.2-4.17,1.2Zm2.78-2.82c.82,0,1.63-.2,2.45-.59,.82-.39,1.54-1.04,2.17-1.95v-6.21l-4.09,1.04c-1.48,.41-2.52,.93-3.13,1.58-.61,.64-.92,1.53-.92,2.66,0,1.04,.31,1.88,.92,2.52,.61,.64,1.48,.96,2.61,.96Z"/><path class="cls-8" d="M528.93,810.41v-.38l1.51-.28c.31-.09,.56-.18,.73-.26,.17-.08,.29-.2,.35-.35s.09-.36,.09-.61v-19.3l-2.59-1.13v-.28l7.86-1.88,.28,.19v4.61h.19c1.22-1.66,2.5-2.9,3.84-3.72,1.33-.82,2.85-1.22,4.54-1.22,1.6,0,2.96,.41,4.07,1.22,1.11,.82,1.84,2.05,2.19,3.72h.24c1.32-1.69,2.66-2.94,4.02-3.74,1.37-.8,2.85-1.2,4.45-1.2,2.04,0,3.65,.61,4.85,1.81,1.19,1.21,1.79,3.08,1.79,5.62v15.3c0,.25,.02,.46,.07,.61,.05,.16,.15,.27,.31,.35,.16,.08,.36,.15,.61,.21l1.55,.33v.38h-10.78v-.38l1.6-.28c.28-.09,.5-.18,.66-.26,.16-.08,.27-.2,.33-.35,.06-.16,.09-.36,.09-.61v-13.88c0-1.95-.33-3.4-.99-4.35-.66-.96-1.74-1.44-3.25-1.44-1.04,0-1.99,.22-2.87,.66s-1.73,1.1-2.54,1.98c.03,.25,.05,.52,.07,.8,.02,.28,.02,.56,.02,.85v15.39c0,.25,.03,.46,.09,.61,.06,.16,.16,.27,.31,.35,.14,.08,.34,.15,.59,.21l1.55,.33v.38h-10.78v-.38l1.6-.28c.28-.09,.51-.18,.68-.26,.17-.08,.28-.2,.33-.35,.05-.16,.07-.36,.07-.61v-13.98c0-1.88-.31-3.3-.92-4.26-.61-.96-1.62-1.44-3.04-1.44-1.04,0-2.01,.23-2.92,.68-.91,.46-1.79,1.14-2.64,2.05v16.94c0,.25,.02,.46,.07,.61,.05,.16,.14,.27,.28,.35,.14,.08,.34,.15,.59,.21l1.65,.33v.38h-10.83Z"/><path class="cls-8" d="M578.4,810.84c-1.22,0-2.28-.21-3.18-.64-.89-.42-1.57-1-2.02-1.72-.46-.72-.68-1.55-.68-2.49,0-1.54,.52-2.81,1.58-3.81,1.05-1,2.61-1.71,4.68-2.12l7.01-1.32v-6.45c0-2.04-.35-3.44-1.06-4.19-.71-.75-1.69-1.13-2.94-1.13-.6,0-1.16,.07-1.69,.21-.53,.14-1.05,.35-1.55,.64l-.05,5.18h-5.22l-.19-.24c.47-1.32,1.21-2.5,2.21-3.55,1-1.05,2.24-1.88,3.72-2.5,1.47-.61,3.14-.92,4.99-.92,1.47,0,2.76,.22,3.86,.66,1.1,.44,1.95,1.18,2.56,2.24,.61,1.05,.92,2.5,.92,4.35v13.13c0,1.29,.42,1.93,1.27,1.93,.28,0,.55-.05,.8-.14,.25-.09,.53-.31,.85-.66l.24,.19c-.53,1.19-1.19,2.05-1.95,2.57-.77,.52-1.67,.78-2.71,.78-1.26,0-2.23-.35-2.92-1.04-.69-.69-1.07-1.82-1.13-3.39h-.19c-.78,1.35-1.8,2.42-3.04,3.22-1.24,.8-2.63,1.2-4.17,1.2Zm2.78-2.82c.82,0,1.63-.2,2.45-.59,.82-.39,1.54-1.04,2.17-1.95v-6.21l-4.09,1.04c-1.48,.41-2.52,.93-3.13,1.58-.61,.64-.92,1.53-.92,2.66,0,1.04,.31,1.88,.92,2.52,.61,.64,1.48,.96,2.61,.96Z"/><path class="cls-8" d="M596.99,810.41v-.38l1.51-.28c.31-.09,.56-.18,.73-.26,.17-.08,.29-.2,.35-.35s.09-.36,.09-.61v-19.3l-2.59-1.13v-.28l7.86-1.88,.28,.19v4.61h.19c1.22-1.73,2.54-2.98,3.95-3.77,1.41-.78,2.93-1.18,4.57-1.18,2.07,0,3.7,.61,4.89,1.84s1.79,3.06,1.79,5.51v15.39c0,.25,.02,.46,.07,.61s.15,.27,.31,.35c.16,.08,.36,.15,.61,.21l1.55,.33v.38h-10.83v-.38l1.65-.28c.28-.09,.51-.18,.68-.26,.17-.08,.28-.2,.33-.35,.05-.16,.07-.36,.07-.61v-13.98c0-1.88-.33-3.3-.99-4.26-.66-.96-1.74-1.44-3.25-1.44-1,0-1.98,.23-2.92,.68-.94,.46-1.84,1.15-2.68,2.09v16.9c0,.25,.02,.46,.07,.61s.14,.27,.28,.35c.14,.08,.34,.15,.59,.21l1.65,.33v.38h-10.83Z"/><path class="cls-8" d="M635.25,810.84c-1.38,0-2.64-.29-3.76-.87-1.13-.58-2.08-1.38-2.85-2.4-.77-1.02-1.36-2.23-1.77-3.62-.41-1.4-.61-2.93-.61-4.59s.2-3.19,.59-4.59c.39-1.4,.95-2.66,1.67-3.79s1.59-2.08,2.61-2.85c1.02-.77,2.16-1.35,3.41-1.74,1.25-.39,2.62-.59,4.09-.59,.82,0,1.66,.1,2.52,.31,.86,.2,1.72,.57,2.57,1.11v-8.47l-2.82-1.04v-.28l8.1-1.98,.28,.14v32.19c0,.25,.06,.45,.19,.59,.12,.14,.31,.24,.57,.31l2.17,.38v.28l-8.19,1.51-.28-.19v-4.99h-.24c-1.07,1.63-2.28,2.9-3.62,3.81-1.35,.91-2.89,1.37-4.61,1.37Zm2.92-2.92c1.04,0,2.02-.27,2.94-.8,.92-.53,1.8-1.35,2.61-2.45v-11.06c0-2.64-.46-4.49-1.37-5.55-.91-1.07-2.09-1.6-3.53-1.6-1.16,0-2.25,.42-3.27,1.25-1.02,.83-1.84,2.06-2.45,3.67-.61,1.62-.92,3.63-.92,6.05,0,2.29,.24,4.22,.73,5.79,.49,1.57,1.18,2.75,2.09,3.53s1.96,1.18,3.15,1.18Z"/><path class="cls-8" d="M660.48,810.84c-1.22,0-2.28-.21-3.18-.64s-1.57-1-2.02-1.72c-.46-.72-.68-1.55-.68-2.49,0-1.54,.53-2.81,1.58-3.81,1.05-1,2.61-1.71,4.68-2.12l7.01-1.32v-6.45c0-2.04-.35-3.44-1.06-4.19s-1.69-1.13-2.94-1.13c-.6,0-1.16,.07-1.69,.21-.53,.14-1.05,.35-1.55,.64l-.05,5.18h-5.22l-.19-.24c.47-1.32,1.21-2.5,2.21-3.55,1-1.05,2.24-1.88,3.72-2.5,1.47-.61,3.14-.92,4.99-.92,1.47,0,2.76,.22,3.86,.66,1.1,.44,1.95,1.18,2.56,2.24,.61,1.05,.92,2.5,.92,4.35v13.13c0,1.29,.42,1.93,1.27,1.93,.28,0,.55-.05,.8-.14,.25-.09,.53-.31,.85-.66l.24,.19c-.53,1.19-1.18,2.05-1.95,2.57-.77,.52-1.67,.78-2.71,.78-1.25,0-2.23-.35-2.92-1.04-.69-.69-1.07-1.82-1.13-3.39h-.19c-.78,1.35-1.8,2.42-3.04,3.22-1.24,.8-2.63,1.2-4.17,1.2Zm2.78-2.82c.82,0,1.63-.2,2.45-.59,.82-.39,1.54-1.04,2.17-1.95v-6.21l-4.09,1.04c-1.48,.41-2.52,.93-3.13,1.58-.61,.64-.92,1.53-.92,2.66,0,1.04,.31,1.88,.92,2.52,.61,.64,1.48,.96,2.61,.96Z"/><path class="cls-8" d="M679.07,810.41v-.38l1.51-.28c.31-.09,.56-.18,.73-.26,.17-.08,.29-.2,.35-.35,.06-.16,.09-.36,.09-.61v-19.25l-2.59-1.13v-.28l7.86-1.93,.28,.19v7.01h.24c.53-1.38,1.13-2.6,1.79-3.65,.66-1.05,1.44-1.88,2.33-2.47s1.95-.89,3.18-.89h.8v4.99l-.19,.14h-5.79c-.41,.35-.79,.75-1.15,1.2-.36,.46-.76,1.09-1.2,1.91v14.07c0,.25,.03,.46,.09,.63,.06,.17,.17,.3,.31,.38,.14,.08,.34,.13,.59,.17l2.82,.42v.38h-12.05Z"/><path class="cls-8" d="M697.71,810.41v-.38l1.51-.28c.34-.09,.6-.18,.78-.26,.17-.08,.29-.2,.35-.35s.09-.36,.09-.61v-19.3l-2.64-1.13v-.28l7.91-1.88,.24,.19v22.4c0,.25,.03,.46,.09,.61,.06,.16,.17,.27,.31,.35,.14,.08,.34,.15,.59,.21l1.65,.33v.38h-10.87Zm5.55-27.72c-.88,0-1.62-.3-2.24-.89-.61-.6-.92-1.35-.92-2.26s.31-1.65,.92-2.24c.61-.58,1.36-.87,2.24-.87s1.67,.29,2.28,.87c.61,.58,.92,1.33,.92,2.24s-.31,1.66-.92,2.26c-.61,.6-1.37,.89-2.28,.89Z"/><path class="cls-8" d="M711.55,810.41v-.38l1.51-.28c.31-.09,.56-.18,.73-.26,.17-.08,.29-.2,.35-.35,.06-.16,.09-.36,.09-.61v-19.3l-2.59-1.13v-.28l7.86-1.88,.28,.19v4.61h.19c1.22-1.73,2.54-2.98,3.95-3.77,1.41-.78,2.93-1.18,4.57-1.18,2.07,0,3.7,.61,4.89,1.84s1.79,3.06,1.79,5.51v15.39c0,.25,.02,.46,.07,.61s.15,.27,.31,.35c.16,.08,.36,.15,.61,.21l1.55,.33v.38h-10.83v-.38l1.65-.28c.28-.09,.51-.18,.68-.26,.17-.08,.28-.2,.33-.35,.05-.16,.07-.36,.07-.61v-13.98c0-1.88-.33-3.3-.99-4.26-.66-.96-1.74-1.44-3.25-1.44-1,0-1.98,.23-2.92,.68-.94,.46-1.84,1.15-2.68,2.09v16.9c0,.25,.02,.46,.07,.61s.14,.27,.28,.35c.14,.08,.34,.15,.59,.21l1.65,.33v.38h-10.83Z"/><path class="cls-8" d="M751.65,810.84c-1.66,0-3.18-.3-4.54-.89s-2.53-1.44-3.48-2.54c-.96-1.1-1.7-2.41-2.21-3.93-.52-1.52-.78-3.19-.78-5.01,0-2.57,.52-4.81,1.55-6.71,1.04-1.9,2.42-3.37,4.14-4.4,1.72-1.04,3.62-1.55,5.69-1.55,1.73,0,3.26,.31,4.61,.94,1.35,.63,2.45,1.61,3.32,2.94,.86,1.33,1.37,3.07,1.53,5.2l-.14,.24h-15.72l.05-.47,10.83-.8c-.16-2.54-.6-4.41-1.34-5.6-.74-1.19-1.81-1.79-3.22-1.79-1.22,0-2.26,.46-3.11,1.37-.85,.91-1.49,2.14-1.93,3.69-.44,1.55-.66,3.35-.66,5.39,0,2.32,.33,4.31,.99,5.98,.66,1.66,1.59,2.93,2.8,3.79,1.21,.86,2.63,1.29,4.26,1.29,1.35,0,2.54-.28,3.58-.85,1.04-.56,2.05-1.47,3.06-2.73l.33,.24c-.91,1.91-2.16,3.43-3.74,4.54-1.58,1.11-3.54,1.67-5.86,1.67Z"/></g><path class="cls-6" d="M423.64,463.61c48.78-47.97,146.03-50.64,212.48-44.97,26.97,2.3,59.31,7.23,84.86,19.21,13.41,6.29,34.8,16.52,55.73,29.57-34.66,21.87-97.08,28.46-134.92,31.1-49.36,.6-98.74,1.58-147.53-10.76-4.97-1.37-9.93-2.73-14.9-4.1-11.07-5.66-44.67-14.38-55.73-20.05Z"/><path d="M790.7,464.11c-.14-.32-.32-.61-.57-.84-.87-.93-2.32-1.21-3.51-.59-.66,.27-1.32,.55-1.98,.8-2.89,1.18-5.81,2.32-8.74,3.44-6.28,2.37-12.64,4.6-19.04,6.67-50.53,16.49-104.22,23.98-157.21,23.45-35.5-.43-70.98-4.87-105.48-13.37-11.93-2.94-23.77-6.38-35.43-10.29-11.07-3.39-21.84-7.88-32.77-11.98-3.1-1.16-6.19-2.28-9.31-3.32-1.8-.64-3.62-1.23-5.44-1.8-.32,.09-.61,.39-.87,.75-.5,.73-.84,1.73-.73,1.75-.39,.64-.77,1.37-.98,2.07-1.8,10.82,.48,22.11,2.12,32.84,10.75,61.57,58.8,102.95,118.73,114.38,102.29,19.63,278.72-5.01,261.21-143.96Zm-259.45,135.85c-69.27-13.53-114.72-65.56-114.31-136.7,0-.11-.02-.21-.05-.32-.25-.11-.48-.23-.73-.39-.64-.32-1.3-.68-1.94-1.03,.87-.14,1.59-1.91,1.62-2.21,.18,.34,.34,.71,.48,1.09,.3,.82,.48,1.68,.57,2.53,26.89,14.35,56.04,24.89,86.26,31.97,63.28,14.87,131.28,14.66,193.3,2.55,18.22-3.64,36.21-8.2,53.83-14,11.86-3.89,23.55-8.38,35.02-13.55-.09-1.39-.23-2.78-.39-4.19,0,0,.25,.14,.61,.34,.73,.39,1.98,1.09,2.82,1.57,.52,.3,.89,.5,.89,.5-1.32,.61-2.62,1.21-3.94,1.78,10.18,128.7-158.31,148.49-254.06,130.05Zm254.29-133.89c-.02-.09-.07-.18-.09-.27-.25-.8-.5-1.55-.8-2.32-2.89,1.18-5.81,2.32-8.74,3.44-6.28,2.37-12.64,4.6-19.04,6.67-1,1.66-2.07,3.32-3.14,4.94-1.12,1.69-2.25,3.32-3.44,4.94,11.86-3.89,23.55-8.38,35.02-13.55-.09-1.39-.23-2.78-.39-4.19,0,0,.25,.14,.61,.34Z"/><path d="M790.41,465.02c.05,1.48-.93,2.39-2.05,2.62-1.09,.2-2.32-.27-2.82-1.57-.02-.09-.07-.18-.09-.27-.25-.8-.5-1.55-.8-2.32-2.82-7.51-7.63-13.82-13.71-19.2-18.29-16.24-48.02-23.96-69.32-29.9-78.92-19.65-157.17-20.74-234.84,5.42-.3,.09-.61,.18-.91,.3-19.33,5.88-45.18,16.94-49.21,37.98-.16,.77-.27,1.55-.34,2.35-.09,.71-.16,1.41-.16,2.14-.09,1.84,0,3.73,.25,5.72,.23,1.37-.71,2.64-2.07,2.87-1.23,.21-2.39-.55-2.78-1.69-1.34-4.1-1.69-8.31-1.21-12.43,.66-5.67,2.87-11.13,6.13-15.76,10.98-15.8,29.99-22.02,47.25-27.74,.66-.2,1.3-.41,1.96-.59,76.94-23.84,159.31-22.04,237.82-6.74,21.77,5.24,51.76,12.66,70.34,29.1,8.27,7.33,14.28,16.44,16.28,27.96,.09,.57,.18,1.16,.27,1.75Z"/><g><path class="cls-7" d="M534.51,304.15s-44.69,46.43-13.96,62.64c8.66,4.57,19.28,4.57,27.93,0,30.72-16.2-13.96-62.64-13.96-62.64Z"/><path d="M538.13,304.62c-1.02-.91-2.16-2.66-3.62-2.69-1.43,.02-2.57,1.78-3.62,2.69-12,13.28-25.48,28.94-24.66,48.12,1.18,13.62,16.03,21.59,28.28,21.45,12.27,.14,27.12-7.83,28.3-21.45,.82-19.15-12.68-34.86-24.68-48.12Zm-4.35,2.07c-.11-.09-.52-.66-.64-.77,.32,.32,.93,.5,1.37,.43,.46,.07,1.05-.11,1.39-.43-.11,.16-.52,.61-.64,.77-.25,.3-.5,.59-.73,.89,14.53,17.47,38.71,56.02-.02,58.66-38.71-2.62-14.53-41.22,.02-58.66-.25-.3-.5-.59-.75-.89Z"/><path class="cls-1" d="M523.36,342.86c.88,4.83-.05,11.07,4.83,13.9,1.61,.7,.76,3.24-.93,2.83-5.51-1.11-7.91-7.41-7.76-12.42,.15-1.75,.16-6.34,2.9-5.64,.57,.23,.91,.75,.96,1.32h0Z"/></g><g><path class="cls-7" d="M620.42,271.11s-44.69,46.43-13.96,62.64c8.65,4.57,19.27,4.57,27.93,0,30.72-16.21-13.96-62.64-13.96-62.64Z"/><path d="M624.04,271.6c-1.02-.91-2.19-2.66-3.62-2.69-1.46,.02-2.6,1.78-3.62,2.69-12,13.25-25.48,28.94-24.66,48.12,1.16,13.59,16.03,21.56,28.28,21.43,12.25,.14,27.1-7.83,28.28-21.43,.82-19.17-12.66-34.86-24.66-48.12Zm-4.35,2.07c-.11-.11-.55-.68-.66-.77,0,0-.14-.16-.02-.07,.32,.34,.96,.55,1.41,.5,.46,.05,1.09-.16,1.41-.5,.11-.09-.02,.07-.02,.07-.11,.16-.52,.59-.66,.77-.25,.3-.5,.59-.73,.89,14.53,17.44,38.71,55.99,0,58.64-38.71-2.62-14.55-41.19,0-58.64-.23-.3-.48-.59-.73-.89Z"/><path class="cls-1" d="M609.26,309.82c.88,4.83-.05,11.07,4.83,13.9,1.61,.7,.76,3.24-.93,2.83-5.51-1.11-7.9-7.41-7.76-12.42,.15-1.75,.16-6.34,2.9-5.64,.57,.23,.91,.75,.97,1.32h0Z"/></g><path class="cls-1" d="M517.46,242.47c0,1.17-.95,2.11-2.11,2.11s-2.11-.94-2.11-2.11,.95-2.11,2.11-2.11,2.11,.94,2.11,2.11Z"/><path class="cls-1" d="M508.04,266c0,1.17-.95,2.11-2.11,2.11s-2.11-.94-2.11-2.11,.95-2.11,2.11-2.11,2.11,.94,2.11,2.11Z"/><path class="cls-1" d="M484.51,289.53c0,1.17-.95,2.11-2.11,2.11s-2.11-.94-2.11-2.11,.95-2.11,2.11-2.11,2.11,.94,2.11,2.11Z"/><path class="cls-1" d="M531.58,251.88c0,1.17-.95,2.11-2.11,2.11s-2.11-.94-2.11-2.11,.95-2.11,2.11-2.11,2.11,.94,2.11,2.11Z"/><g><path class="cls-5" d="M581.38,129.7l-.32-19.58-7.77-3.49-1.18-20.9-3.15-3.89-4.45-2.66-4.43,.31s-3.03,2.24-3.14,2.55c-.11,.31-2.19,4.53-2.26,4.95-.07,.42-1.09,9.7-1.09,9.7l-1.1,10.46-6.27,3.02-.57,21.47,11.49,1.42,19.93,.13,3.08-.36,1.22-3.13Z"/><path class="cls-2" d="M570.47,134.4l9.01-.33s2.27-.58,2.38-4.88l-.33-16.82s-.22-3.4-3.71-3.54l-4.13-1.72-.75-18.38s.05-8.27-9.17-9.24c0,0-7.96,.33-8.9,9.32l-2.02,19.25s-7.06-.51-7.27,5.99c-.22,6.5,.52,.64,.52,.64,0,0-1.21,15.96,.37,18.69l11.57,.75"/><line class="cls-2" x1="570.47" y1="134.4" x2="558.02" y2="134.15"/><path d="M573.93,129.69c-.8-5.8-.91-11.63-.2-17.44,.04-.26,.28-.44,.54-.4,1.82,5.37,.98,12.05,.6,17.83-.06,.53-.87,.54-.94,.01h0Z"/><path d="M557.99,129.13c-.76-6.32-1.04-12.65-.18-18.98,.05-.34,.37-.57,.71-.51,1.54,1.71,.93,7.45,1.19,9.98-.02,3.16-.09,6.33-.49,9.49-.04,.34-.35,.58-.69,.53-.28-.04-.49-.26-.53-.52h0Z"/><path d="M552.8,128.06c-.75-4.46-1.11-9.32-1.29-13.84-.02-.57-.05-1.72,.9-2.13,.83,.43,1.11,1.32,1.03,2.09l.02,1.97c.11,3.85,.13,8.05-.09,11.89,0,.34-.53,.37-.58,.03h0Z"/></g></svg>