<?xml version="1.0" encoding="UTF-8"?><svg id="Layer_1" xmlns="http://www.w3.org/2000/svg" viewBox="0 0 1199.91 900"><defs><style>.cls-1{fill:#c7ad44;}.cls-2{fill:#4c61ac;}.cls-3{fill:none;stroke:#000;stroke-linecap:round;stroke-miterlimit:10;stroke-width:1.3px;}.cls-4{fill:#231f20;}.cls-5{fill:#8e7d32;}</style></defs><path class="cls-5" d="M241.46,225.54c3.25,6.48,10.46,9.07,17.17,10.24,7.87,1.37,15.84,2.21,23.8,1.07-.81-1.39-1.62-2.79-2.43-4.18-5.13,5.55-8.09,12.5-10.63,19.52,1.22-.5,2.45-1,3.67-1.49-5.49-3.44-11.29-6.33-17.32-8.69-2.91-1.14-5.88-2.14-8.88-3-1.57-.45-3.16-.86-4.76-1.23-.73-.17-1.45-.33-2.18-.48-.59-.12-1.79-.2-2.14-.4,.3,.3,.6,.6,.9,.9-.04-.08-.09-.16-.13-.23,.08,.64,.17,1.28,.25,1.93-.06,.42,.09-.18,.23-.38,.15-.24,.32-.47,.48-.7,.37-.52,.76-1.03,1.15-1.54,.83-1.08,1.65-2.16,2.35-3.34,1.4-2.36,2.39-4.98,2.95-7.67h-4.82c.83,2.83,1.81,5.74,3.88,7.92,2.43,2.56,6.01,3.12,9.32,3.77,7.41,1.45,14.95,2.2,22.5,2.26-.59-1.42-1.18-2.85-1.77-4.27-1.72,1.85-3.14,3.94-4.14,6.26-1.06,2.46-1.49,4.89-1.82,7.54l.34-1.26c-.05,.11-.1,.22-.15,.33,.3-.3,.6-.6,.9-.9,.03-.01,.05-.02,.08-.04h1.33c-.27-.06-.72-.57-1-.82-.59-.5-1.2-.98-1.81-1.44-1.12-.84-2.29-1.61-3.51-2.3-2.51-1.42-5.19-2.56-7.93-3.47-6.09-2.02-12.48-2.83-18.82-3.67,.59,1.42,1.18,2.85,1.77,4.27,2.06-2.46,3.91-5.08,5.46-7.88h-4.32c2.57,4.96,8.1,6.71,13.14,8.01,5.53,1.43,11.27,2.41,16.99,2-.72-1.25-1.44-2.51-2.16-3.76-1.57,2.4-2.66,5.11-3.16,7.94h4.82c-1-2.57-2.15-4.91-4.67-6.3-2.44-1.35-5.29-2.19-7.93-3.05-5.42-1.77-10.99-3.04-16.64-3.84-.22,1.64-.44,3.27-.66,4.91,9.41,.43,18.64,2.54,27.34,6.13,1.25,.51,2.75-.56,3.08-1.75,.39-1.44-.49-2.56-1.75-3.08-9.11-3.76-18.83-5.85-28.67-6.31-2.76-.13-3.48,4.51-.66,4.91,5.03,.71,9.99,1.8,14.85,3.28,2.39,.73,4.75,1.55,7.08,2.46,.83,.33,1.74,.67,2.37,1.32,.71,.71,1.08,1.73,1.44,2.65,.4,1.04,1.23,1.84,2.41,1.84,1.03,0,2.22-.77,2.41-1.84,.44-2.45,1.3-4.66,2.66-6.74,1-1.53-.3-3.89-2.16-3.76-5,.36-9.9-.39-14.75-1.59-3.99-.99-9-1.95-11.07-5.95-.86-1.66-3.44-1.59-4.32,0-1.35,2.43-2.89,4.74-4.68,6.87-1.49,1.78-.41,3.98,1.77,4.27,8.67,1.15,17.72,2.41,25.3,7.1,.83,.51,1.65,1.06,2.42,1.66,.86,.67,1.6,1.51,2.51,2.11,2.25,1.5,5,.42,5.34-2.31,.47-3.88,1.8-7.37,4.5-10.27,1.46-1.57,.45-4.25-1.77-4.27-6.62-.05-13.22-.63-19.73-1.81-1.58-.29-3.16-.6-4.72-.96-1.15-.27-2.38-.54-3.32-1.3-1.82-1.47-2.48-4.06-3.1-6.2-.66-2.25-4.3-2.51-4.82,0-.74,3.58-2.32,6.59-4.53,9.48-.97,1.27-2.54,2.82-2.67,4.49-.2,2.63,2.2,3.13,4.22,3.54,7.29,1.49,14.45,3.79,21.21,6.92,3.85,1.78,7.58,3.82,11.18,6.07,1.46,.92,3.14-.04,3.67-1.49,2.24-6.18,4.83-12.42,9.35-17.31,1.82-1.97-.05-4.52-2.43-4.18-6.85,.98-13.92,.15-20.7-1-5.57-.94-11.87-2.54-14.62-8.02-1.44-2.88-5.76-.35-4.32,2.52h0Z"/><path d="M796.11,235.92c-.85-39.08-1.49-83.07-1.88-122.59-2.24-27.02-41.58-27.19-43.76-.03-.13,39.27-.28,82.21-1.83,121.24l-.07,1.78c-14.17,8.64-18.58,28.29-12.44,43.18,13.16,32.25,58.08,30.99,71.43-.27,6.85-15.17,2.49-33.41-11.46-43.31h0Zm5.98-2.77c29.02,28.61,13.2,79.33-29.87,79.27-42.22-1.27-58.96-52.03-29.01-80.4,0-.05-1.21,2.71-1.17,2.46-1.3-33.5-1.64-67.7-1.75-101.25,.02-3.08-.06-12.15-.01-15.19-.58-9.63,2.83-20.01,10.18-26.57,21.38-20.01,56.14-2.4,53.39,26.57-.05,3.02-.1,11.78-.15,14.94-.26,33.21-.92,66.76-1.61,100.17h0Z"/><line class="cls-3" x1="801.33" y1="128.06" x2="818.63" y2="128.06"/><line class="cls-3" x1="801.33" y1="168.71" x2="818.63" y2="168.71"/><line class="cls-3" x1="801.33" y1="149.34" x2="809.98" y2="149.34"/><line class="cls-3" x1="801.33" y1="188.76" x2="809.98" y2="188.76"/><path class="cls-2" d="M786.05,240.7v-55.75c0-7.64-6.19-13.83-13.83-13.83s-13.83,6.19-13.83,13.83v55.75c-9.23,4.96-15.58,14.59-15.58,25.81,0,16.24,13.17,29.41,29.41,29.41s29.41-13.17,29.41-29.41c0-11.21-6.35-20.85-15.58-25.81Z"/><line class="cls-3" x1="801.33" y1="208.8" x2="818.63" y2="208.8"/><g><path class="cls-1" d="M520,311.79c0-.08,.01-.16,.02-.24-.1-.05-.22-.08-.32-.13l.31,.38Z"/><path class="cls-1" d="M714.74,384.77c-17.98-.68-56.15-11.83-71.23,7.23-.48,4.56,6.18,6.64-3.97,12.05-21.28-54.85-53.03-79.77-105.21-105.59-2.77,4.7-.33,2.7-3.1,7.39-.24,3.16-3.71,8.48-3.95,11.63,4.07,1.81-1.35-3.58,1.72-.74,24.09,22.28,36.42,58.25,46.04,90.1,2.35,7.79-1.46,5.52-6.2,7.39-3.62,14.52-7.14,16.7-12.2,10.04-12.48-16.44-30.02-17.18-47.76-18.63-10.12,4.49-25.33,8.2-29.23,21.63,12.53,5.07,27.83,9.66,40.36,14.73,20.49,5.33,40.43,14.11,60.96,17.49,3.89,.21,11.65,1.8,15.51,2.31,79.45,10.56,147.2,18.15,282.71-29.13,.73-8.76-67.99-18.23-73.86-21.83-27.77-17-57.85-26.28-90.61-26.08"/></g><path d="M477.04,430.09c1.03-.17,1.87-2.47,1.7-2.41,.72,1.31,1.05,2.82,1.21,4.27-.44,76.49,48.42,132.45,122.9,146.98,104.06,20.06,288.03-1.89,272.76-144.33-.02-.04,4.65,2.6,4.65,2.59-31.93,14.85-65.5,24.68-99.77,31.54-99.59,19.45-213.45,10.39-303.45-38.64h0Zm-3.23-5.64c17.32,5.38,33.89,13.12,51.08,18.38,48.75,16.39,100.12,24.83,151.52,25.45,68.31,.66,137.72-11.02,201.02-36.94,1.61-.84,3.67-.16,4.39,1.54,18.85,149.41-170.86,175.89-280.85,154.79-64.45-12.31-116.1-56.79-127.66-122.98-1.77-11.55-4.21-23.68-2.29-35.31,.21-.76,.64-1.55,1.06-2.23-.16-.04,.69-2.44,1.72-2.7h0Z"/><path d="M474.17,438.61c-12.88-19.96,18.92-42.42,34.12-50.17,2.68-1.36,5.4-2.63,8.06-4.08,1.32-.72,2.97-.23,3.68,1.09,.84,1.5,.02,3.43-1.62,3.91-15.14,5.68-32.64,15.62-36.01,32.64-1.28,3.48-1.27,22.24-8.23,16.61h0Z"/><path d="M667.92,357.93c48.49-4.1,211.16,12.88,213.62,75.91-.12,3.13-4.2,3.66-5.38,.85-7.27-17.67-20.71-29.49-38.09-37.41-34.95-15.9-74.06-22.47-112.13-27.27-19.36-2.14-38.8-3.81-58.18-6.65-3.07-.4-3.08-5.22,.16-5.44h0Z"/><path d="M529.96,316.75c25.59,25.76,42.08,60.33,46.29,96.32,.25,2.06-1.22,3.92-3.27,4.17-1.97,.24-3.76-1.11-4.13-3.01-5.58-25.28-15.44-49.46-29.38-71.28-4.58-7.34-9.71-14.57-15.01-21.14-2.9-3.55,2.21-8.27,5.51-5.06h0Z"/><path d="M591.72,376.55c12.82,11.39,23.77,26.52,25.67,43.99,.14,2-1.37,3.73-3.36,3.86-1.62,.11-3.07-.86-3.63-2.31-4.09-11.03-10.55-20.96-17.12-30.73-.01-.06-6.81-9.89-6.85-9.98-2.37-3.38,2.16-7.5,5.29-4.85h0Z"/><path d="M511.59,322.41c5.89,5.11,9.77,13.02,8.41,20.92-.81,3.67-5.97,3.79-7.19,.35-2.65-5.71-5.61-11.4-7.2-17.55-.86-3.33,3.4-5.92,5.97-3.72h0Z"/><path d="M535.66,296.54c49.47,19.35,92.34,58.2,111.68,108.11,.79,1.91-.12,4.1-2.03,4.89-1.91,.8-4.08-.14-4.89-2l-4.37-8.49c-19.16-36.73-50.58-66.1-86.26-86.7-5.52-3.26-11.32-6.35-17-8.9-4.29-1.92-1.61-8.6,2.86-6.92h0Z"/><path d="M559.13,269.28c21.65,7.95,42.58,19.69,55.92,39.28,1.25,1.95,.69,4.55-1.27,5.81-1.84,1.18-4.26,.74-5.58-.94-13.58-16.08-33.27-27.07-52.08-36.31-4.81-2.1-1.96-9.5,3.01-7.84h0Z"/><path d="M293.71,168.69c-80.64,24.6-119.71,85.35-80.5,164.93,.46,1.88,.9,4.32,1,6.28,1.08,8.23,5.56,14.08,12.82,18.56,15.06,10.39,30.77,20.97,46.41,30.09,6.87,4.41,14.89,4.81,22.16,1.8,3.28-1.7,8.17-3.5,12.41-3.6,36.05-3.13,79.36-17.19,94.67-53.08,7.64-20.52,11.85-41.77,9.79-63.8-.61-11.14-2.85-23.82-5.18-34.55-8.23-14.5-22.81-24.45-36.43-34.56-22.43-14.43-49.22-35.72-77.16-32.07h0Zm-2.3-8.44c16.59-3.49,31.53,3.14,45.84,9.76,13.63,6.69,25.99,15.28,38.49,23.84,14.23,10.67,30.53,21.77,39.19,38.43,7.11,30.53,8.96,63.64-2.34,93.51-4.98,10.25-12.21,19.45-18.94,28.55-21.33,26.99-55.45,40.35-89.3,43.22-10.76,5.9-25.48,7.12-36.07,.14-13.26-7.43-25.66-15.77-38.07-24.13-5.81-4.52-13.87-8.34-18.8-14.47-4.25-5.08-6.94-11.39-7.7-17.96-.11-3-.8-6.09-2.3-8.71-38.84-83.22,6.98-148.82,90.02-172.2h0Z"/><path d="M308.96,182.18c10.27,.35,19.09,8.88,27.2,13.59,8.39,5.49,16.46,11.16,25.05,16.3,4.19,2.24,51.84,32.77,45.67,17.11-.27-.79,.17-1.65,.97-1.89,.72-.22,1.47,.13,1.78,.8,.9,1.99,1.89,4.54,.81,6.91-9.07,13.24-68.2-24.25-79.65-31.37-7.34-5.27-19.65-10.22-23.65-19.11-.59-1.19,.52-2.58,1.81-2.33h0Z"/><path d="M418.35,269.31c2.22,13.75,14.61,25.41,28.84,20.15,0,0,8.27-3.07,8.27-3.07,11.75-3.88,23.13-8.57,35.66-9.61,14.71-.55,28.61,10.02,32.51,24.14,.34,.86,.91,3.24,.36,5.1-.62,2.62-4.36,4.41-6.94,2.97-2.97-1.74-6.4-2.55-9.89-2.53-16.44,.26-28.4,16.51-37.29,29.68-11.68,14.5-20.16,31.57-39.05,39.07-6.2,2.44-13.09,3.28-19.56,2.32-6.46-1.08-12.47-3.42-17.68-6.79-.87-.56-1.12-1.72-.56-2.58,.48-.74,1.4-1.03,2.2-.75,28.73,10.83,46.32-8.11,61.27-30.19l2.79-3.75c5.01-5.57,8.63-12.23,13.89-17.92,10.68-13.54,32.4-24.15,47.69-14.84-2.39-1.22-5.73,.98-5.73,3.39,.04,.74-.03-.22-.2-.66-2.62-10.72-12.68-18.82-23.78-18.77-10.64,.58-22.92,5.06-33.57,8.07l-8.68,2.73c-9.53,2.83-21.03-.09-27.15-8.12-4.12-5.17-6.25-11.21-7.11-17.56-.14-1.02,.57-1.95,1.59-2.09,1.04-.14,1.97,.61,2.1,1.64h0Z"/><path d="M176.31,250.2c-11.82-1.3-20.4-11.67-23.54-22.29-8.65-31.86,5.66-64.39,16.45-93.26,7.55-20.47,26.86-26.15,44.35-13.12,20.73,15.54,41.75,31.51,61.91,47.73,.73,.59,.85,1.66,.26,2.39-.55,.68-1.53,.83-2.25,.37-17.51-11.27-34.79-22.81-51.9-34.6-9.78-6.18-24.78-20.25-36.08-10.18-6.89,6.1-8.75,17.41-12.49,25.63-8.84,24.98-29.81,80.38,3.69,93.95,2.16,.32,1.76,3.62-.41,3.38h0Z"/><path d="M196.19,247.78c-43.83-11.47-22.73-78.22-10.15-107.17,.67-1.81,1.83-3.32,3.39-4.38,6.24-4.1,12.91,.25,17.78,3.57,12.3,8.05,24.38,16.47,36.06,25.51,1.72,1.28,0,4.1-1.93,3.13-13.32-6.35-26.26-13.31-38.97-20.65-3.24-1.96-6.37-3.67-7.38-3.4-.21,.02-.09,.04,.05-.05,.06-.05,.13-.09,.18-.17-9.14,24.56-33.78,84.99,1.5,99.97,2.31,.41,1.8,3.95-.53,3.64h0Z"/><path d="M205.65,325.91c17.31,19.57,42.84,30.61,66.49,40.77,3.53,1.42,6.85,3.41,9.42,7.46,.65,.97,.1,2.35-1.03,2.63-9.13,2.35-15.56-2.93-22.85-5.64-20.88-10.28-42.98-22.85-54.58-43.89-.74-1.6,1.65-2.84,2.55-1.32h0Z"/><g><path class="cls-4" d="M348.16,735.67c-4.69,0-8.19-1.19-10.5-3.57-2.31-2.38-3.47-5.68-3.47-9.89v-18.98c0-.54-.05-.94-.15-1.21-.1-.27-.29-.48-.56-.63-.27-.15-.68-.29-1.21-.43l-1.62-.3v-.96h14.17v.96l-2.43,.35c-.54,.07-.95,.19-1.24,.35-.29,.17-.48,.4-.58,.68-.1,.29-.15,.7-.15,1.24v18.52c0,3.58,.8,6.32,2.4,8.22,1.6,1.91,4.02,2.86,7.26,2.86s5.57-.94,7.31-2.81c1.74-1.87,2.59-4.68,2.56-8.43l-.2-17.21c0-.78-.08-1.39-.25-1.85-.17-.46-.46-.8-.86-1.04-.4-.24-1-.44-1.77-.61l-1.87-.3v-.96h10.53v.96l-1.32,.35c-.61,.13-1.08,.34-1.42,.61-.34,.27-.57,.62-.71,1.06-.14,.44-.22,1.03-.25,1.77l-.35,17.66c-.07,4.22-1.21,7.53-3.42,9.94-2.21,2.41-5.51,3.62-9.89,3.62Z"/><path class="cls-4" d="M368.05,735.12v-.86l1.62-.3c.44-.1,.77-.22,.99-.35,.22-.13,.37-.32,.46-.56,.08-.24,.13-.59,.13-1.06v-30.01l-3.29-1.21v-.66l8.96-2.38,.35,.25v34.01c0,.47,.04,.83,.13,1.06,.08,.24,.24,.42,.48,.56,.24,.14,.57,.25,1.01,.35l1.57,.3v.86h-12.4Z"/><path class="cls-4" d="M383.39,735.12v-.86l1.62-.3c.47-.1,.82-.22,1.04-.35,.22-.13,.37-.32,.46-.56,.08-.24,.13-.59,.13-1.06v-19.13l-3.04-1.21v-.71l8.65-2.12,.4,.3v22.87c0,.47,.03,.83,.1,1.09,.07,.25,.21,.43,.43,.53,.22,.1,.51,.2,.89,.3l1.72,.35v.86h-12.4Zm6.17-29.76c-1.01,0-1.86-.32-2.53-.96-.68-.64-1.01-1.48-1.01-2.53,0-.98,.34-1.8,1.01-2.45,.67-.66,1.52-.99,2.53-.99s1.9,.33,2.56,.99c.66,.66,.99,1.48,.99,2.45,0,1.05-.33,1.89-.99,2.53-.66,.64-1.51,.96-2.56,.96Z"/><path class="cls-4" d="M407.88,735.62c-2.09,0-3.68-.54-4.76-1.62-1.08-1.08-1.62-2.72-1.62-4.91v-17.66h-2.68v-.71l8.3-7.03,.46,.15v5.67l6.83-.56,.3,.3-.2,2.28h-6.93v16.8c0,1.45,.27,2.49,.81,3.11,.54,.62,1.38,.94,2.53,.94,.64,0,1.24-.11,1.8-.33s1.16-.58,1.8-1.09l.51,.81c-.91,1.25-1.97,2.2-3.19,2.86-1.21,.66-2.53,.99-3.95,.99Z"/><path class="cls-4" d="M416.89,735.12v-.86l1.62-.3c.47-.1,.82-.22,1.04-.35,.22-.13,.37-.32,.46-.56,.08-.24,.13-.59,.13-1.06v-19.13l-3.04-1.21v-.71l8.65-2.12,.4,.3v22.87c0,.47,.03,.83,.1,1.09,.07,.25,.21,.43,.43,.53,.22,.1,.51,.2,.89,.3l1.72,.35v.86h-12.4Zm6.17-29.76c-1.01,0-1.86-.32-2.53-.96-.68-.64-1.01-1.48-1.01-2.53,0-.98,.34-1.8,1.01-2.45,.67-.66,1.52-.99,2.53-.99s1.9,.33,2.56,.99c.66,.66,.99,1.48,.99,2.45,0,1.05-.33,1.89-.99,2.53-.66,.64-1.51,.96-2.56,.96Z"/><path class="cls-4" d="M442.55,735.12v-.86l7.14-7.64c1.82-2.06,3.4-3.85,4.73-5.39,1.33-1.54,2.44-2.94,3.31-4.2,.88-1.27,1.52-2.51,1.92-3.75s.61-2.52,.61-3.87c0-2.29-.63-4.04-1.9-5.24-1.27-1.2-2.86-1.8-4.78-1.8-1.38,0-2.83,.38-4.33,1.14-1.5,.76-2.88,1.97-4.12,3.62l-.91-.66c.94-1.62,2.04-2.96,3.29-4.02,1.25-1.06,2.61-1.88,4.1-2.45,1.48-.57,3.04-.86,4.66-.86,1.89,0,3.63,.35,5.21,1.04,1.59,.69,2.86,1.7,3.82,3.04,.96,1.33,1.44,3.01,1.44,5.04,0,1.45-.27,2.82-.81,4.1-.54,1.28-1.32,2.54-2.33,3.77-1.01,1.23-2.25,2.5-3.72,3.79-1.47,1.3-3.15,2.74-5.04,4.33l-6.88,5.77v.3l13.66-.56c.91-.03,1.62-.12,2.13-.25,.51-.13,.93-.42,1.27-.86,.34-.44,.67-1.08,1.01-1.92l1.16-2.68h.86l-2.28,11.08h-23.23Z"/><path class="cls-4" d="M487.23,735.67c-2.29,0-4.34-.48-6.12-1.44-1.79-.96-3.31-2.28-4.55-3.95-1.25-1.67-2.19-3.59-2.83-5.77-.64-2.18-.96-4.5-.96-6.96s.33-4.81,.99-7.03c.66-2.23,1.61-4.19,2.86-5.9,1.25-1.7,2.77-3.04,4.58-4.02,1.8-.98,3.87-1.47,6.2-1.47s4.29,.48,6.1,1.44c1.8,.96,3.33,2.28,4.58,3.95,1.25,1.67,2.2,3.59,2.86,5.77,.66,2.18,.99,4.5,.99,6.96s-.34,4.86-1.01,7.08c-.68,2.23-1.64,4.18-2.88,5.87-1.25,1.69-2.78,3.02-4.58,4-1.81,.98-3.87,1.47-6.2,1.47Zm.3-1.37c1.15,0,2.14-.3,2.99-.91,.84-.61,1.57-1.44,2.18-2.5,.61-1.06,1.1-2.28,1.47-3.64,.37-1.37,.64-2.83,.81-4.38,.17-1.55,.25-3.09,.25-4.61,0-1.69-.09-3.37-.28-5.06-.19-1.69-.46-3.3-.83-4.83-.37-1.54-.88-2.89-1.52-4.07-.64-1.18-1.41-2.11-2.3-2.78-.89-.67-1.95-1.01-3.16-1.01-1.15,0-2.15,.3-3.01,.89-.86,.59-1.59,1.43-2.2,2.5-.61,1.08-1.09,2.3-1.44,3.67-.35,1.37-.62,2.83-.78,4.38-.17,1.55-.25,3.1-.25,4.66,0,1.69,.08,3.38,.25,5.09,.17,1.7,.45,3.31,.83,4.81,.39,1.5,.89,2.84,1.52,4.02,.62,1.18,1.38,2.11,2.28,2.78,.89,.68,1.97,1.01,3.21,1.01Z"/><path class="cls-4" d="M521.54,735.67c-2.29,0-4.34-.48-6.12-1.44-1.79-.96-3.31-2.28-4.55-3.95-1.25-1.67-2.19-3.59-2.83-5.77-.64-2.18-.96-4.5-.96-6.96s.33-4.81,.99-7.03c.66-2.23,1.61-4.19,2.86-5.9,1.25-1.7,2.77-3.04,4.58-4.02,1.8-.98,3.87-1.47,6.2-1.47s4.29,.48,6.1,1.44c1.8,.96,3.33,2.28,4.58,3.95,1.25,1.67,2.2,3.59,2.86,5.77,.66,2.18,.99,4.5,.99,6.96s-.34,4.86-1.01,7.08c-.68,2.23-1.64,4.18-2.88,5.87-1.25,1.69-2.78,3.02-4.58,4-1.81,.98-3.87,1.47-6.2,1.47Zm.3-1.37c1.15,0,2.14-.3,2.99-.91,.84-.61,1.57-1.44,2.18-2.5,.61-1.06,1.1-2.28,1.47-3.64,.37-1.37,.64-2.83,.81-4.38,.17-1.55,.25-3.09,.25-4.61,0-1.69-.09-3.37-.28-5.06-.19-1.69-.46-3.3-.83-4.83-.37-1.54-.88-2.89-1.52-4.07-.64-1.18-1.41-2.11-2.3-2.78-.89-.67-1.95-1.01-3.16-1.01-1.15,0-2.15,.3-3.01,.89-.86,.59-1.59,1.43-2.2,2.5-.61,1.08-1.09,2.3-1.44,3.67-.35,1.37-.62,2.83-.78,4.38-.17,1.55-.25,3.1-.25,4.66,0,1.69,.08,3.38,.25,5.09,.17,1.7,.45,3.31,.83,4.81,.39,1.5,.89,2.84,1.52,4.02,.62,1.18,1.38,2.11,2.28,2.78,.89,.68,1.97,1.01,3.21,1.01Z"/><path class="cls-4" d="M540.42,735.12v-.86l1.62-.3c.44-.1,.77-.22,.99-.35,.22-.13,.37-.32,.46-.56,.08-.24,.13-.59,.13-1.06v-19.13l-2.99-1.16v-.76l8.65-2.12,.4,.3v4.71h.25c1.28-1.72,2.65-3.01,4.1-3.87,1.45-.86,3.07-1.29,4.86-1.29s3.18,.42,4.38,1.27c1.2,.84,2.02,2.14,2.45,3.9h.25c1.35-1.75,2.77-3.05,4.25-3.9s3.09-1.27,4.81-1.27c2.29,0,4.1,.67,5.41,2,1.32,1.33,1.97,3.38,1.97,6.15v15.08c0,.51,.03,.89,.08,1.14s.19,.45,.43,.58c.24,.14,.56,.24,.96,.3l1.57,.35v.86h-12.2v-.86l1.62-.3c.41-.13,.7-.26,.89-.38,.18-.12,.32-.3,.4-.56s.13-.63,.13-1.14v-13.56c0-2.02-.36-3.53-1.09-4.53-.73-1-1.9-1.49-3.52-1.49-1.08,0-2.08,.24-3.01,.71s-1.85,1.18-2.76,2.12c.03,.24,.06,.49,.08,.76,.02,.27,.03,.56,.03,.86v15.13c0,.51,.03,.89,.1,1.14,.07,.25,.2,.45,.4,.58,.2,.14,.49,.24,.86,.3l1.62,.35v.86h-12.15v-.86l1.67-.3c.4-.13,.71-.26,.91-.38,.2-.12,.34-.3,.4-.56,.07-.25,.1-.63,.1-1.14v-13.61c0-1.99-.35-3.48-1.04-4.48-.69-1-1.8-1.49-3.31-1.49-1.11,0-2.14,.25-3.09,.73-.95,.49-1.89,1.21-2.83,2.15v16.8c0,.47,.03,.83,.1,1.09,.07,.25,.2,.43,.4,.53,.2,.1,.49,.2,.86,.3l1.62,.35v.86h-12.25Z"/><path class="cls-4" d="M588.04,735.12v-.86l1.62-.3c.44-.1,.77-.22,.99-.35,.22-.13,.37-.32,.46-.56,.08-.24,.13-.59,.13-1.06v-30.01l-3.29-1.21v-.66l8.96-2.38,.35,.25v34.01c0,.47,.04,.83,.13,1.06,.08,.24,.24,.42,.48,.56,.24,.14,.57,.25,1.01,.35l1.57,.3v.86h-12.4Z"/><path class="cls-4" d="M627.82,735.62c-2.53,0-4.76-.52-6.68-1.57s-3.42-2.56-4.5-4.53c-1.08-1.97-1.62-4.36-1.62-7.16,0-2.02,.31-3.87,.94-5.54s1.52-3.12,2.68-4.35,2.55-2.18,4.15-2.83c1.6-.66,3.38-.99,5.34-.99,2.53,0,4.77,.51,6.71,1.54,1.94,1.03,3.45,2.53,4.53,4.5,1.08,1.97,1.62,4.38,1.62,7.21,0,1.99-.31,3.83-.94,5.52-.62,1.69-1.52,3.15-2.68,4.38s-2.55,2.18-4.15,2.83c-1.6,.66-3.4,.99-5.39,.99Zm.51-1.26c1.04,0,1.96-.29,2.73-.89,.78-.59,1.42-1.38,1.92-2.35,.51-.98,.88-2.1,1.11-3.37,.24-1.27,.35-2.61,.35-4.02,0-1.86-.13-3.61-.4-5.26-.27-1.65-.68-3.12-1.24-4.4-.56-1.28-1.26-2.29-2.1-3.01s-1.87-1.09-3.09-1.09c-1.05,0-1.95,.27-2.71,.81-.76,.54-1.4,1.32-1.92,2.33-.52,1.01-.89,2.14-1.11,3.39s-.33,2.6-.33,4.05c0,1.82,.13,3.56,.38,5.21,.25,1.65,.65,3.13,1.19,4.43,.54,1.3,1.26,2.32,2.15,3.06,.89,.74,1.91,1.11,3.06,1.11Z"/><path class="cls-4" d="M644.11,735.12v-.86l1.62-.3c.44-.1,.77-.22,.99-.35,.22-.13,.37-.33,.46-.58,.08-.25,.13-.62,.13-1.09v-29.96l-3.29-1.21v-.66l8.96-2.38,.35,.25v15.84h.3c1.28-1.79,2.67-3.09,4.17-3.92,1.5-.83,3.13-1.24,4.88-1.24,2.29,0,4.09,.68,5.39,2.02,1.3,1.35,1.95,3.37,1.95,6.07v15.13c0,.51,.03,.89,.1,1.14,.07,.25,.21,.45,.43,.58,.22,.14,.53,.24,.94,.3l1.67,.35v.86h-12.35v-.86l1.67-.3c.44-.13,.76-.26,.96-.38,.2-.12,.35-.3,.43-.56,.08-.25,.13-.63,.13-1.14v-13.61c0-1.99-.37-3.48-1.11-4.48s-1.91-1.49-3.49-1.49c-1.11,0-2.17,.24-3.16,.71-1,.47-1.97,1.23-2.91,2.28v16.65c0,.47,.03,.83,.1,1.09,.07,.25,.2,.44,.4,.56,.2,.12,.49,.23,.86,.33l1.67,.35v.86h-12.25Z"/><path class="cls-4" d="M675.69,735.12v-.86l1.62-.3c.44-.1,.77-.22,.99-.35,.22-.13,.37-.32,.46-.56,.08-.24,.13-.59,.13-1.06v-30.01l-3.29-1.21v-.66l8.96-2.38,.35,.25v34.01c0,.47,.04,.83,.13,1.06,.08,.24,.24,.42,.48,.56,.24,.14,.57,.25,1.01,.35l1.57,.3v.86h-12.4Z"/><path class="cls-4" d="M697.4,735.62c-1.28,0-2.4-.22-3.37-.66-.96-.44-1.7-1.05-2.23-1.85-.52-.79-.79-1.75-.79-2.86,0-1.75,.6-3.18,1.8-4.28,1.2-1.1,2.99-1.88,5.39-2.35l7.19-1.32v-6.33c0-2.09-.36-3.52-1.09-4.3-.73-.78-1.78-1.16-3.16-1.16-.64,0-1.26,.08-1.85,.23-.59,.15-1.16,.38-1.7,.68l-.05,5.36h-5.67l-.3-.35c.47-1.45,1.26-2.77,2.35-3.95,1.1-1.18,2.45-2.12,4.07-2.81,1.62-.69,3.47-1.04,5.57-1.04,1.72,0,3.15,.26,4.3,.78,1.15,.52,2.03,1.38,2.66,2.56,.62,1.18,.94,2.73,.94,4.66v13.71c0,1.38,.49,2.07,1.47,2.07,.27,0,.54-.05,.81-.15,.27-.1,.56-.3,.86-.61l.41,.56c-.57,1.15-1.29,2-2.15,2.56-.86,.56-1.86,.83-3.01,.83-1.35,0-2.4-.36-3.16-1.09-.76-.72-1.19-1.9-1.29-3.52h-.2c-.91,1.49-2.02,2.62-3.34,3.42-1.32,.79-2.8,1.19-4.45,1.19Zm3.04-3.29c.91,0,1.79-.21,2.63-.63,.84-.42,1.62-1.1,2.33-2.05v-6.33l-4.15,1.01c-1.59,.4-2.72,.95-3.39,1.64-.67,.69-1.01,1.61-1.01,2.76,0,1.08,.32,1.95,.96,2.61,.64,.66,1.52,.99,2.63,.99Z"/><path class="cls-4" d="M727.92,735.62c-1.52,0-2.9-.31-4.15-.94-1.25-.62-2.29-1.49-3.11-2.61-.83-1.11-1.47-2.4-1.92-3.87-.46-1.47-.68-3.08-.68-4.83,0-1.65,.2-3.2,.61-4.66,.4-1.45,.98-2.78,1.72-3.97,.74-1.2,1.65-2.22,2.73-3.06,1.08-.84,2.31-1.49,3.69-1.95,1.38-.46,2.94-.68,4.66-.68,.91,0,1.84,.11,2.78,.33,.94,.22,1.84,.62,2.68,1.19v-4.45h-8.05v-1.27h8.05v-3.19l-3.24-1.16v-.71l8.91-2.12,.46,.2v6.98h3.29v1.27h-3.29v25.1c0,.54,.09,.91,.28,1.11,.18,.2,.51,.35,.99,.46l1.97,.3v.76l-8.96,1.72-.41-.25v-4.96h-.25c-1.18,1.69-2.48,2.99-3.9,3.9s-3.04,1.37-4.86,1.37Zm3.19-3.49c1.08,0,2.1-.28,3.06-.84,.96-.56,1.88-1.37,2.76-2.45v-11.54c-.1-2.53-.66-4.32-1.67-5.36-1.01-1.05-2.26-1.57-3.74-1.57-1.25,0-2.4,.42-3.47,1.27-1.06,.84-1.91,2.08-2.53,3.72-.62,1.64-.94,3.65-.94,6.05,0,1.72,.14,3.24,.43,4.55,.29,1.32,.71,2.44,1.27,3.37,.56,.93,1.24,1.63,2.05,2.1,.81,.47,1.74,.71,2.78,.71Z"/><path class="cls-4" d="M761.37,735.62c-1.75,0-3.37-.31-4.86-.94-1.48-.62-2.76-1.53-3.82-2.71-1.06-1.18-1.89-2.58-2.48-4.2-.59-1.62-.88-3.42-.88-5.42,0-2.77,.56-5.18,1.67-7.24,1.11-2.06,2.61-3.65,4.48-4.78,1.87-1.13,3.96-1.7,6.25-1.7,1.96,0,3.69,.38,5.21,1.14,1.52,.76,2.73,1.89,3.64,3.39,.91,1.5,1.43,3.42,1.57,5.74l-.25,.35h-17.05l.1-.96,11.44-.86c-.14-2.5-.61-4.38-1.42-5.64-.81-1.27-1.97-1.9-3.49-1.9-1.28,0-2.38,.46-3.29,1.39-.91,.93-1.59,2.18-2.02,3.77-.44,1.59-.66,3.41-.66,5.47,0,2.5,.35,4.6,1.06,6.3,.71,1.7,1.7,3,2.99,3.9,1.28,.89,2.8,1.34,4.55,1.34,1.42,0,2.69-.29,3.82-.86,1.13-.57,2.23-1.5,3.32-2.78l.71,.56c-1.08,2.09-2.5,3.72-4.28,4.88s-3.87,1.75-6.3,1.75Z"/><path class="cls-4" d="M775.08,735.12v-.86l1.62-.3c.44-.1,.77-.22,.99-.35,.22-.13,.37-.32,.46-.56,.08-.24,.13-.59,.13-1.06v-19.13l-2.99-1.16v-.76l8.65-2.12,.41,.3v4.71h.25c1.28-1.79,2.68-3.09,4.2-3.92,1.52-.83,3.15-1.24,4.91-1.24,2.26,0,4.05,.68,5.36,2.02,1.32,1.35,1.97,3.37,1.97,6.07v15.13c0,.51,.03,.89,.1,1.14,.07,.25,.21,.45,.43,.58,.22,.14,.53,.24,.94,.3l1.57,.35v.86h-12.2v-.86l1.62-.3c.4-.13,.72-.26,.94-.38,.22-.12,.36-.3,.43-.56,.07-.25,.1-.63,.1-1.14v-13.61c0-1.99-.37-3.48-1.11-4.48s-1.91-1.49-3.49-1.49c-1.08,0-2.12,.25-3.11,.73s-1.96,1.24-2.91,2.25v16.7c0,.47,.03,.83,.1,1.09s.2,.43,.41,.53c.2,.1,.49,.2,.86,.3l1.62,.35v.86h-12.25Z"/><path class="cls-4" d="M819.97,735.62c-2.53,0-4.76-.52-6.68-1.57s-3.42-2.56-4.5-4.53c-1.08-1.97-1.62-4.36-1.62-7.16,0-2.02,.31-3.87,.94-5.54s1.52-3.12,2.68-4.35,2.55-2.18,4.15-2.83c1.6-.66,3.38-.99,5.34-.99,2.53,0,4.77,.51,6.71,1.54,1.94,1.03,3.45,2.53,4.53,4.5,1.08,1.97,1.62,4.38,1.62,7.21,0,1.99-.31,3.83-.94,5.52-.62,1.69-1.52,3.15-2.68,4.38s-2.55,2.18-4.15,2.83c-1.6,.66-3.4,.99-5.39,.99Zm.51-1.26c1.04,0,1.96-.29,2.73-.89,.78-.59,1.42-1.38,1.92-2.35,.51-.98,.88-2.1,1.11-3.37,.24-1.27,.35-2.61,.35-4.02,0-1.86-.13-3.61-.4-5.26-.27-1.65-.68-3.12-1.24-4.4-.56-1.28-1.26-2.29-2.1-3.01s-1.87-1.09-3.09-1.09c-1.05,0-1.95,.27-2.71,.81-.76,.54-1.4,1.32-1.92,2.33-.52,1.01-.89,2.14-1.11,3.39s-.33,2.6-.33,4.05c0,1.82,.13,3.56,.38,5.21,.25,1.65,.65,3.13,1.19,4.43,.54,1.3,1.26,2.32,2.15,3.06,.89,.74,1.91,1.11,3.06,1.11Z"/><path class="cls-4" d="M847.5,746.2c-2.43,0-4.53-.18-6.3-.53s-3.16-.9-4.15-1.64c-1-.74-1.49-1.65-1.49-2.73,0-.88,.28-1.64,.83-2.3,.56-.66,1.31-1.23,2.25-1.72,.94-.49,1.99-.9,3.14-1.24v-.3l-4.96-1.01-.15-.4,5.87-9.11c-1.79-.61-3.19-1.56-4.2-2.86-1.01-1.3-1.52-2.91-1.52-4.83,0-1.79,.46-3.35,1.39-4.68,.93-1.33,2.22-2.36,3.87-3.09,1.65-.72,3.58-1.09,5.77-1.09,1.48,0,2.85,.15,4.1,.46,1.25,.3,2.31,.74,3.19,1.32l4.91-4.3,.46,.15v4.71h-4.61c.91,.74,1.6,1.63,2.08,2.66,.47,1.03,.71,2.22,.71,3.57,0,1.75-.46,3.3-1.39,4.63s-2.22,2.36-3.87,3.09c-1.65,.73-3.58,1.09-5.77,1.09-.74,0-1.46-.04-2.15-.13-.69-.08-1.34-.19-1.95-.33l-2.13,4.71h11.54c2.73,0,4.82,.58,6.25,1.75,1.43,1.16,2.15,2.76,2.15,4.78,0,1.89-.59,3.54-1.77,4.96s-2.82,2.51-4.91,3.29c-2.09,.78-4.49,1.16-7.19,1.16Zm.46-1.27c1.72,0,3.21-.25,4.48-.76,1.27-.51,2.25-1.18,2.96-2.02,.71-.84,1.06-1.8,1.06-2.88,0-1.18-.42-2.04-1.26-2.58-.84-.54-2.13-.81-3.85-.81h-7.95c-.94,.61-1.64,1.27-2.07,1.97-.44,.71-.66,1.54-.66,2.48,0,1.45,.63,2.58,1.9,3.39,1.27,.81,3.06,1.21,5.39,1.21Zm.05-20.14c.78,0,1.46-.18,2.05-.53,.59-.35,1.09-.83,1.49-1.44,.4-.61,.71-1.3,.91-2.07,.2-.78,.3-1.55,.3-2.33,0-1.01-.1-2.01-.3-2.99-.2-.98-.51-1.89-.94-2.73-.42-.84-.97-1.52-1.65-2.02s-1.47-.76-2.38-.76c-.78,0-1.46,.18-2.05,.53-.59,.35-1.09,.83-1.49,1.44-.4,.61-.71,1.29-.91,2.05-.2,.76-.3,1.54-.3,2.35,0,.95,.1,1.92,.3,2.94,.2,1.01,.51,1.93,.91,2.76,.41,.83,.94,1.5,1.59,2.02,.66,.52,1.48,.78,2.45,.78Z"/><path class="cls-4" d="M886.97,735.62c-2.33,0-4.37-.53-6.12-1.59s-3.12-2.6-4.1-4.61c-.98-2.01-1.47-4.39-1.47-7.16,0-2.09,.35-3.98,1.04-5.67,.69-1.69,1.64-3.12,2.83-4.3,1.2-1.18,2.58-2.08,4.15-2.71,1.57-.62,3.21-.94,4.93-.94,1.48,0,2.94,.16,4.35,.48,1.42,.32,2.77,.83,4.05,1.54v7.19h-.86l-.91-1.67c-.81-1.59-1.57-2.83-2.28-3.75s-1.41-1.55-2.1-1.92-1.49-.56-2.4-.56c-1.25,0-2.37,.43-3.37,1.29-1,.86-1.79,2.08-2.38,3.64-.59,1.57-.89,3.4-.89,5.49,0,2.43,.35,4.51,1.04,6.25,.69,1.74,1.67,3.07,2.93,4,1.27,.93,2.76,1.39,4.48,1.39,1.35,0,2.58-.3,3.69-.91,1.11-.61,2.16-1.5,3.14-2.68l.66,.66c-.67,1.28-1.51,2.41-2.5,3.39-1,.98-2.15,1.75-3.47,2.3s-2.8,.83-4.45,.83Zm-.86-29.3l-5.47-7.29h.91l6.48,3.39h.25l6.58-3.39h.81l-5.42,7.29h-4.15Z"/><path class="cls-4" d="M906.31,735.62c-1.28,0-2.4-.22-3.37-.66-.96-.44-1.7-1.05-2.23-1.85-.52-.79-.79-1.75-.79-2.86,0-1.75,.6-3.18,1.8-4.28,1.2-1.1,2.99-1.88,5.39-2.35l7.19-1.32v-6.33c0-2.09-.36-3.52-1.09-4.3-.73-.78-1.78-1.16-3.16-1.16-.64,0-1.26,.08-1.85,.23-.59,.15-1.16,.38-1.7,.68l-.05,5.36h-5.67l-.3-.35c.47-1.45,1.26-2.77,2.35-3.95,1.1-1.18,2.45-2.12,4.07-2.81,1.62-.69,3.47-1.04,5.57-1.04,1.72,0,3.15,.26,4.3,.78,1.15,.52,2.03,1.38,2.66,2.56,.62,1.18,.94,2.73,.94,4.66v13.71c0,1.38,.49,2.07,1.47,2.07,.27,0,.54-.05,.81-.15,.27-.1,.56-.3,.86-.61l.41,.56c-.57,1.15-1.29,2-2.15,2.56-.86,.56-1.86,.83-3.01,.83-1.35,0-2.4-.36-3.16-1.09-.76-.72-1.19-1.9-1.29-3.52h-.2c-.91,1.49-2.02,2.62-3.34,3.42-1.32,.79-2.8,1.19-4.45,1.19Zm3.04-3.29c.91,0,1.79-.21,2.63-.63,.84-.42,1.62-1.1,2.33-2.05v-6.33l-4.15,1.01c-1.59,.4-2.72,.95-3.39,1.64-.67,.69-1.01,1.61-1.01,2.76,0,1.08,.32,1.95,.96,2.61,.64,.66,1.52,.99,2.63,.99Z"/><path class="cls-4" d="M925.84,746.25l-.61-.71,2.12-2.58c.61-.67,1.05-1.32,1.34-1.95,.29-.62,.48-1.35,.58-2.18,.1-.83,.15-1.85,.15-3.06v-22.93l-2.99-1.21v-.71l8.7-2.12,.41,.3v24.49c0,1.25-.08,2.32-.25,3.21-.17,.89-.47,1.69-.91,2.38-.44,.69-1.02,1.37-1.75,2.05-.73,.67-1.64,1.38-2.76,2.13l-4.05,2.88Zm6.58-40.89c-1.01,0-1.86-.32-2.53-.96-.68-.64-1.01-1.48-1.01-2.53,0-.98,.34-1.8,1.01-2.45,.67-.66,1.52-.99,2.53-.99s1.9,.33,2.56,.99,.99,1.48,.99,2.45c0,1.05-.33,1.89-.99,2.53-.66,.64-1.51,.96-2.56,.96Z"/><path class="cls-4" d="M947.8,735.62c-1.28,0-2.4-.22-3.37-.66-.96-.44-1.7-1.05-2.23-1.85-.52-.79-.79-1.75-.79-2.86,0-1.75,.6-3.18,1.8-4.28,1.2-1.1,2.99-1.88,5.39-2.35l7.19-1.32v-6.33c0-2.09-.36-3.52-1.09-4.3-.73-.78-1.78-1.16-3.16-1.16-.64,0-1.26,.08-1.85,.23-.59,.15-1.16,.38-1.7,.68l-.05,5.36h-5.67l-.3-.35c.47-1.45,1.26-2.77,2.35-3.95,1.1-1.18,2.45-2.12,4.07-2.81,1.62-.69,3.47-1.04,5.57-1.04,1.72,0,3.15,.26,4.3,.78,1.15,.52,2.03,1.38,2.66,2.56,.62,1.18,.94,2.73,.94,4.66v13.71c0,1.38,.49,2.07,1.47,2.07,.27,0,.54-.05,.81-.15,.27-.1,.56-.3,.86-.61l.41,.56c-.57,1.15-1.29,2-2.15,2.56-.86,.56-1.86,.83-3.01,.83-1.35,0-2.4-.36-3.16-1.09-.76-.72-1.19-1.9-1.29-3.52h-.2c-.91,1.49-2.02,2.62-3.34,3.42-1.32,.79-2.8,1.19-4.45,1.19Zm3.04-3.29c.91,0,1.79-.21,2.63-.63,.84-.42,1.62-1.1,2.33-2.05v-6.33l-4.15,1.01c-1.59,.4-2.72,.95-3.39,1.64-.67,.69-1.01,1.61-1.01,2.76,0,1.08,.32,1.95,.96,2.61,.64,.66,1.52,.99,2.63,.99Z"/><path class="cls-4" d="M359.5,806.47c-2.4,0-4.21-.71-5.44-2.12-1.23-1.42-1.85-3.47-1.85-6.17v-14.78l-3.04-1.16v-.71l8.65-1.87,.4,.2v17c0,1.92,.35,3.42,1.06,4.48,.71,1.06,1.89,1.59,3.54,1.59,1.05,0,2.07-.24,3.06-.71,.99-.47,1.93-1.2,2.81-2.18v-16.65l-3.19-1.16v-.71l8.86-1.87,.46,.2v22.27c0,.54,.08,.9,.25,1.09,.17,.19,.49,.33,.96,.43l2.02,.3v.76l-8.91,1.72-.46-.25v-4.71h-.3c-1.28,1.65-2.67,2.9-4.15,3.75-1.49,.84-3.07,1.26-4.76,1.26Z"/><path class="cls-4" d="M392.19,816.59v-.91l1.57-.3c.44-.1,.78-.21,1.01-.33,.24-.12,.4-.3,.48-.56,.08-.25,.13-.62,.13-1.09v-29.66l-3.04-1.26v-.66l8.75-2.18,.35,.3v4.81h.3c1.15-1.72,2.44-3.03,3.87-3.92,1.43-.89,3.06-1.34,4.88-1.34,1.52,0,2.9,.31,4.15,.94,1.25,.62,2.29,1.5,3.11,2.63,.83,1.13,1.46,2.45,1.9,3.97,.44,1.52,.66,3.15,.66,4.91s-.19,3.26-.58,4.73c-.39,1.47-.95,2.8-1.7,4-.74,1.2-1.65,2.23-2.73,3.09-1.08,.86-2.32,1.53-3.72,2-1.4,.47-2.94,.71-4.63,.71-.91,0-1.85-.12-2.81-.35-.96-.24-1.86-.64-2.71-1.21v8.45c0,.47,.03,.84,.1,1.11,.07,.27,.21,.46,.43,.56,.22,.1,.56,.2,1.04,.3l2.38,.35v.91h-13.21Zm14.68-11.39c1.28,0,2.45-.44,3.52-1.32,1.06-.88,1.91-2.15,2.53-3.82,.62-1.67,.94-3.72,.94-6.15s-.25-4.3-.76-5.92c-.51-1.62-1.25-2.86-2.23-3.72-.98-.86-2.14-1.29-3.49-1.29-1.11,0-2.16,.28-3.14,.83-.98,.56-1.91,1.39-2.78,2.5v11.13c0,2.8,.51,4.79,1.54,5.97,1.03,1.18,2.32,1.77,3.87,1.77Z"/><path class="cls-4" d="M437.08,806.47c-2.53,0-4.76-.52-6.68-1.57-1.92-1.05-3.42-2.56-4.5-4.53-1.08-1.97-1.62-4.36-1.62-7.16,0-2.02,.31-3.87,.94-5.54,.62-1.67,1.52-3.12,2.68-4.35s2.55-2.18,4.15-2.83c1.6-.66,3.38-.99,5.34-.99,2.53,0,4.77,.51,6.71,1.54,1.94,1.03,3.45,2.53,4.53,4.5,1.08,1.97,1.62,4.38,1.62,7.21,0,1.99-.31,3.83-.94,5.52-.62,1.69-1.52,3.15-2.68,4.38s-2.55,2.18-4.15,2.83c-1.6,.66-3.4,.99-5.39,.99Zm.51-1.26c1.04,0,1.96-.29,2.73-.89,.78-.59,1.42-1.38,1.92-2.35,.51-.98,.88-2.1,1.11-3.37,.24-1.27,.35-2.61,.35-4.02,0-1.86-.13-3.61-.4-5.26-.27-1.65-.68-3.12-1.24-4.4-.56-1.28-1.26-2.29-2.1-3.01-.84-.73-1.87-1.09-3.09-1.09-1.05,0-1.95,.27-2.71,.81-.76,.54-1.4,1.32-1.92,2.33-.52,1.01-.89,2.14-1.11,3.39-.22,1.25-.33,2.6-.33,4.05,0,1.82,.13,3.56,.38,5.21,.25,1.65,.65,3.13,1.19,4.43,.54,1.3,1.26,2.32,2.15,3.06,.89,.74,1.91,1.11,3.06,1.11Z"/><path class="cls-4" d="M463.35,806.47c-1.01,0-2.06-.08-3.14-.23-1.08-.15-2.13-.35-3.14-.61s-1.96-.55-2.83-.89v-6.98h.86l.91,1.82c.71,1.45,1.43,2.57,2.18,3.37,.74,.79,1.54,1.37,2.4,1.72,.86,.35,1.81,.53,2.86,.53,.98,0,1.84-.18,2.58-.53,.74-.35,1.33-.84,1.77-1.47,.44-.62,.66-1.36,.66-2.2s-.22-1.63-.66-2.25c-.44-.62-1.11-1.18-2.02-1.67-.91-.49-2.11-1.02-3.59-1.59-1.45-.54-2.76-1.16-3.92-1.85-1.16-.69-2.09-1.54-2.78-2.56-.69-1.01-1.04-2.29-1.04-3.85,0-1.28,.25-2.4,.76-3.37,.51-.96,1.2-1.77,2.07-2.43,.88-.66,1.9-1.15,3.06-1.47,1.16-.32,2.4-.48,3.72-.48,1.48,0,2.99,.16,4.53,.48,1.53,.32,2.86,.75,3.97,1.29v6.73h-.86l-1.11-2.08c-.74-1.32-1.47-2.35-2.18-3.11-.71-.76-1.43-1.28-2.18-1.57-.74-.29-1.55-.43-2.43-.43s-1.7,.17-2.38,.51c-.68,.34-1.21,.81-1.59,1.42-.39,.61-.58,1.28-.58,2.02,0,1.35,.5,2.41,1.49,3.19,.99,.78,2.57,1.57,4.73,2.38,1.45,.54,2.77,1.15,3.97,1.82,1.2,.67,2.15,1.51,2.86,2.5s1.06,2.29,1.06,3.87c0,1.69-.45,3.12-1.34,4.3-.89,1.18-2.09,2.08-3.59,2.71-1.5,.62-3.2,.94-5.09,.94Z"/><path class="cls-4" d="M486.98,806.47c-2.4,0-4.21-.71-5.44-2.12-1.23-1.42-1.85-3.47-1.85-6.17v-14.78l-3.04-1.16v-.71l8.65-1.87,.4,.2v17c0,1.92,.35,3.42,1.06,4.48,.71,1.06,1.89,1.59,3.54,1.59,1.05,0,2.07-.24,3.06-.71,.99-.47,1.93-1.2,2.81-2.18v-16.65l-3.19-1.16v-.71l8.86-1.87,.46,.2v22.27c0,.54,.08,.9,.25,1.09,.17,.19,.49,.33,.96,.43l2.02,.3v.76l-8.91,1.72-.46-.25v-4.71h-.3c-1.28,1.65-2.67,2.9-4.15,3.75-1.49,.84-3.07,1.26-4.76,1.26Z"/><path class="cls-4" d="M518.66,806.47c-1.52,0-2.9-.32-4.15-.96-1.25-.64-2.29-1.52-3.11-2.63-.83-1.11-1.47-2.42-1.92-3.92s-.68-3.15-.68-4.93c0-1.65,.2-3.21,.61-4.68,.41-1.47,.98-2.82,1.72-4.05,.74-1.23,1.65-2.28,2.73-3.14,1.08-.86,2.31-1.52,3.69-1.97,1.38-.46,2.94-.68,4.66-.68,.91,0,1.85,.11,2.81,.33,.96,.22,1.86,.62,2.71,1.19v-8.3l-3.29-1.21v-.66l8.91-2.33,.46,.2v33.35c0,.54,.09,.91,.28,1.11,.19,.2,.51,.35,.99,.46l1.97,.3v.76l-8.91,1.72-.4-.25v-5.01h-.3c-1.18,1.69-2.48,2.99-3.9,3.92s-3.04,1.39-4.86,1.39Zm3.14-3.49c1.11,0,2.16-.28,3.14-.84,.98-.56,1.91-1.39,2.78-2.5v-11.18c0-2.8-.52-4.77-1.54-5.92-1.03-1.15-2.34-1.72-3.92-1.72-1.25,0-2.4,.43-3.47,1.29-1.06,.86-1.91,2.12-2.53,3.77-.62,1.65-.94,3.71-.94,6.17,0,2.29,.25,4.27,.76,5.92,.51,1.65,1.26,2.9,2.25,3.75,.99,.84,2.15,1.27,3.47,1.27Z"/><path class="cls-4" d="M549.73,806.47c-2.4,0-4.21-.71-5.44-2.12-1.23-1.42-1.85-3.47-1.85-6.17v-14.78l-3.04-1.16v-.71l8.65-1.87,.4,.2v17c0,1.92,.35,3.42,1.06,4.48,.71,1.06,1.89,1.59,3.54,1.59,1.05,0,2.07-.24,3.06-.71,.99-.47,1.93-1.2,2.81-2.18v-16.65l-3.19-1.16v-.71l8.86-1.87,.46,.2v22.27c0,.54,.08,.9,.25,1.09,.17,.19,.49,.33,.96,.43l2.02,.3v.76l-8.91,1.72-.46-.25v-4.71h-.3c-1.28,1.65-2.67,2.9-4.15,3.75-1.49,.84-3.07,1.26-4.76,1.26Z"/><path class="cls-4" d="M592.24,806.47c-1.01,0-2.06-.08-3.14-.23s-2.12-.35-3.14-.61c-1.01-.25-1.96-.55-2.83-.89v-6.98h.86l.91,1.82c.71,1.45,1.43,2.57,2.18,3.37s1.54,1.37,2.4,1.72c.86,.35,1.81,.53,2.86,.53,.98,0,1.84-.18,2.58-.53,.74-.35,1.33-.84,1.77-1.47,.44-.62,.66-1.36,.66-2.2s-.22-1.63-.66-2.25c-.44-.62-1.11-1.18-2.02-1.67-.91-.49-2.11-1.02-3.59-1.59-1.45-.54-2.76-1.16-3.92-1.85-1.16-.69-2.09-1.54-2.78-2.56-.69-1.01-1.04-2.29-1.04-3.85,0-1.28,.25-2.4,.76-3.37,.51-.96,1.2-1.77,2.08-2.43,.88-.66,1.9-1.15,3.06-1.47,1.16-.32,2.4-.48,3.72-.48,1.48,0,2.99,.16,4.53,.48,1.54,.32,2.86,.75,3.97,1.29v6.73h-.86l-1.11-2.08c-.74-1.32-1.47-2.35-2.18-3.11-.71-.76-1.43-1.28-2.18-1.57-.74-.29-1.55-.43-2.43-.43s-1.7,.17-2.38,.51-1.21,.81-1.59,1.42c-.39,.61-.58,1.28-.58,2.02,0,1.35,.5,2.41,1.49,3.19,1,.78,2.57,1.57,4.73,2.38,1.45,.54,2.77,1.15,3.97,1.82,1.2,.67,2.15,1.51,2.86,2.5,.71,1,1.06,2.29,1.06,3.87,0,1.69-.45,3.12-1.34,4.3-.89,1.18-2.09,2.08-3.59,2.71-1.5,.62-3.2,.94-5.09,.94Z"/><path class="cls-4" d="M606.01,805.97v-.86l1.62-.3c.44-.1,.77-.22,.99-.35,.22-.13,.37-.33,.46-.58,.08-.25,.13-.62,.13-1.09v-19.03l-2.99-1.21v-.71l8.65-2.18,.41,.3v7.34h.3c.61-1.45,1.28-2.74,2.02-3.87,.74-1.13,1.6-2.02,2.58-2.66s2.13-.96,3.44-.96h.81v5.77l-.35,.25h-6.12c-.44,.4-.88,.89-1.32,1.44s-.89,1.24-1.37,2.05v13.36c0,.47,.03,.84,.1,1.11,.07,.27,.21,.47,.43,.61,.22,.13,.51,.22,.89,.25l2.88,.46v.86h-13.56Z"/><path class="cls-4" d="M638.65,806.47c-1.75,0-3.37-.31-4.86-.94-1.48-.62-2.76-1.53-3.82-2.71-1.06-1.18-1.89-2.58-2.48-4.2-.59-1.62-.88-3.42-.88-5.42,0-2.77,.56-5.18,1.67-7.24,1.11-2.06,2.61-3.65,4.48-4.78,1.87-1.13,3.96-1.7,6.25-1.7,1.96,0,3.69,.38,5.21,1.14,1.52,.76,2.73,1.89,3.64,3.39,.91,1.5,1.43,3.42,1.57,5.74l-.25,.35h-17.05l.1-.96,11.44-.86c-.14-2.5-.61-4.38-1.42-5.64-.81-1.27-1.97-1.9-3.49-1.9-1.28,0-2.38,.46-3.29,1.39-.91,.93-1.59,2.18-2.02,3.77-.44,1.59-.66,3.41-.66,5.47,0,2.5,.35,4.6,1.06,6.3,.71,1.7,1.7,3,2.99,3.9,1.28,.89,2.8,1.34,4.55,1.34,1.42,0,2.69-.29,3.82-.86,1.13-.57,2.23-1.5,3.32-2.78l.71,.56c-1.08,2.09-2.5,3.72-4.28,4.88s-3.87,1.75-6.3,1.75Z"/><path class="cls-4" d="M662.63,806.47c-1.52,0-2.9-.32-4.15-.96-1.25-.64-2.29-1.52-3.11-2.63-.83-1.11-1.47-2.42-1.92-3.92-.46-1.5-.68-3.15-.68-4.93,0-1.65,.2-3.21,.61-4.68,.4-1.47,.98-2.82,1.72-4.05,.74-1.23,1.65-2.28,2.73-3.14,1.08-.86,2.31-1.52,3.69-1.97,1.38-.46,2.94-.68,4.66-.68,.91,0,1.85,.11,2.81,.33,.96,.22,1.86,.62,2.71,1.19v-8.3l-3.29-1.21v-.66l8.91-2.33,.46,.2v33.35c0,.54,.09,.91,.28,1.11,.18,.2,.51,.35,.99,.46l1.97,.3v.76l-8.91,1.72-.41-.25v-5.01h-.3c-1.18,1.69-2.48,2.99-3.9,3.92s-3.04,1.39-4.86,1.39Zm3.14-3.49c1.11,0,2.16-.28,3.14-.84s1.91-1.39,2.78-2.5v-11.18c0-2.8-.51-4.77-1.54-5.92-1.03-1.15-2.34-1.72-3.92-1.72-1.25,0-2.4,.43-3.47,1.29-1.06,.86-1.91,2.12-2.53,3.77-.62,1.65-.94,3.71-.94,6.17,0,2.29,.25,4.27,.76,5.92,.51,1.65,1.26,2.9,2.25,3.75,1,.84,2.15,1.27,3.47,1.27Z"/><path class="cls-4" d="M683.84,805.97v-.86l1.62-.3c.44-.1,.77-.22,.99-.35,.22-.13,.37-.32,.46-.56,.08-.24,.13-.59,.13-1.06v-19.13l-2.99-1.16v-.76l8.65-2.12,.41,.3v4.71h.25c1.28-1.79,2.68-3.09,4.2-3.92,1.52-.83,3.15-1.24,4.91-1.24,2.26,0,4.05,.68,5.36,2.02,1.32,1.35,1.97,3.37,1.97,6.07v15.13c0,.51,.03,.89,.1,1.14,.07,.25,.21,.45,.43,.58,.22,.14,.53,.24,.94,.3l1.57,.35v.86h-12.2v-.86l1.62-.3c.4-.13,.72-.26,.94-.38,.22-.12,.36-.3,.43-.56,.07-.25,.1-.63,.1-1.14v-13.61c0-1.99-.37-3.48-1.11-4.48s-1.91-1.49-3.49-1.49c-1.08,0-2.12,.25-3.11,.73s-1.96,1.24-2.91,2.25v16.7c0,.47,.03,.83,.1,1.09s.2,.43,.41,.53c.2,.1,.49,.2,.86,.3l1.62,.35v.86h-12.25Z"/><path class="cls-4" d="M715.01,817.1l-.61-.71,2.12-2.58c.61-.67,1.05-1.32,1.34-1.95,.29-.62,.48-1.35,.58-2.18,.1-.83,.15-1.85,.15-3.06v-22.93l-2.99-1.21v-.71l8.7-2.12,.41,.3v24.49c0,1.25-.08,2.32-.25,3.21-.17,.89-.47,1.69-.91,2.38-.44,.69-1.02,1.37-1.75,2.05-.73,.67-1.64,1.38-2.76,2.13l-4.05,2.88Zm6.58-40.89c-1.01,0-1.86-.32-2.53-.96-.68-.64-1.01-1.48-1.01-2.53,0-.98,.34-1.8,1.01-2.45,.67-.66,1.52-.99,2.53-.99s1.9,.33,2.56,.99,.99,1.48,.99,2.45c0,1.05-.33,1.89-.99,2.53-.66,.64-1.51,.96-2.56,.96Z"/><path class="cls-4" d="M742.84,806.47c-1.75,0-3.37-.31-4.86-.94-1.48-.62-2.76-1.53-3.82-2.71-1.06-1.18-1.89-2.58-2.48-4.2-.59-1.62-.88-3.42-.88-5.42,0-2.77,.56-5.18,1.67-7.24,1.11-2.06,2.61-3.65,4.48-4.78,1.87-1.13,3.96-1.7,6.25-1.7,1.96,0,3.69,.38,5.21,1.14,1.52,.76,2.73,1.89,3.64,3.39,.91,1.5,1.43,3.42,1.57,5.74l-.25,.35h-17.05l.1-.96,11.44-.86c-.14-2.5-.61-4.38-1.42-5.64-.81-1.27-1.97-1.9-3.49-1.9-1.28,0-2.38,.46-3.29,1.39-.91,.93-1.59,2.18-2.02,3.77-.44,1.59-.66,3.41-.66,5.47,0,2.5,.35,4.6,1.06,6.3,.71,1.7,1.7,3,2.99,3.9,1.28,.89,2.8,1.34,4.55,1.34,1.42,0,2.69-.29,3.82-.86,1.13-.57,2.23-1.5,3.32-2.78l.71,.56c-1.08,2.09-2.5,3.72-4.28,4.88s-3.87,1.75-6.3,1.75Z"/><path class="cls-4" d="M778.27,806.07l-9.87-22.98c-.2-.47-.42-.86-.66-1.16-.24-.3-.51-.54-.81-.71-.3-.17-.67-.3-1.11-.41v-.86h12.91v.86c-1.62,.2-2.64,.53-3.06,.99s-.45,1.19-.08,2.2l6.22,15.79h.3l5.67-15.44c.37-1.04,.37-1.84,0-2.38-.37-.54-1.37-.93-2.99-1.16v-.86h8.5v.86c-.74,.24-1.34,.6-1.8,1.09-.46,.49-.94,1.29-1.44,2.4l-9.31,21.76h-2.48Z"/><path class="cls-4" d="M806,806.47c-1.75,0-3.37-.31-4.86-.94-1.48-.62-2.76-1.53-3.82-2.71-1.06-1.18-1.89-2.58-2.48-4.2-.59-1.62-.88-3.42-.88-5.42,0-2.77,.56-5.18,1.67-7.24,1.11-2.06,2.61-3.65,4.48-4.78,1.87-1.13,3.96-1.7,6.25-1.7,1.96,0,3.69,.38,5.21,1.14,1.52,.76,2.73,1.89,3.64,3.39,.91,1.5,1.43,3.42,1.57,5.74l-.25,.35h-17.05l.1-.96,11.44-.86c-.14-2.5-.61-4.38-1.42-5.64-.81-1.27-1.97-1.9-3.49-1.9-1.28,0-2.38,.46-3.29,1.39-.91,.93-1.59,2.18-2.02,3.77-.44,1.59-.66,3.41-.66,5.47,0,2.5,.35,4.6,1.06,6.3,.71,1.7,1.7,3,2.99,3.9,1.28,.89,2.8,1.34,4.55,1.34,1.42,0,2.69-.29,3.82-.86,1.13-.57,2.23-1.5,3.32-2.78l.71,.56c-1.08,2.09-2.5,3.72-4.28,4.88s-3.87,1.75-6.3,1.75Z"/><path class="cls-4" d="M819.41,805.97v-.86l1.62-.3c.44-.1,.77-.22,.99-.35,.22-.13,.37-.32,.46-.56,.08-.24,.13-.59,.13-1.06v-30.01l-3.29-1.21v-.66l8.96-2.38,.35,.25v34.01c0,.47,.04,.83,.13,1.06,.08,.24,.24,.42,.48,.56,.24,.14,.57,.25,1.01,.35l1.57,.3v.86h-12.4Z"/><path class="cls-4" d="M834.75,805.97v-.86l1.62-.3c.47-.1,.82-.22,1.04-.35,.22-.13,.37-.32,.46-.56,.08-.24,.13-.59,.13-1.06v-19.13l-3.04-1.21v-.71l8.65-2.12,.41,.3v22.87c0,.47,.03,.83,.1,1.09s.21,.43,.43,.53c.22,.1,.51,.2,.89,.3l1.72,.35v.86h-12.4Zm6.17-29.76c-1.01,0-1.86-.32-2.53-.96-.67-.64-1.01-1.48-1.01-2.53,0-.98,.34-1.8,1.01-2.45,.67-.66,1.52-.99,2.53-.99s1.9,.33,2.56,.99,.99,1.48,.99,2.45c0,1.05-.33,1.89-.99,2.53-.66,.64-1.51,.96-2.56,.96Z"/><path class="cls-4" d="M862.33,806.47c-2.33,0-4.37-.53-6.12-1.59s-3.12-2.6-4.1-4.61c-.98-2.01-1.47-4.39-1.47-7.16,0-2.09,.35-3.98,1.04-5.67,.69-1.69,1.64-3.12,2.83-4.3,1.2-1.18,2.58-2.08,4.15-2.71,1.57-.62,3.21-.94,4.93-.94,1.48,0,2.94,.16,4.35,.48,1.42,.32,2.77,.83,4.05,1.54v7.19h-.86l-.91-1.67c-.81-1.59-1.57-2.83-2.28-3.75s-1.41-1.55-2.1-1.92-1.49-.56-2.4-.56c-1.25,0-2.37,.43-3.37,1.29-1,.86-1.79,2.08-2.38,3.64-.59,1.57-.89,3.4-.89,5.49,0,2.43,.35,4.51,1.04,6.25,.69,1.74,1.67,3.07,2.93,4,1.27,.93,2.76,1.39,4.48,1.39,1.35,0,2.58-.3,3.69-.91,1.11-.61,2.16-1.5,3.14-2.68l.66,.66c-.67,1.28-1.51,2.41-2.5,3.39-1,.98-2.15,1.75-3.47,2.3s-2.8,.83-4.45,.83Zm-.86-29.3l-5.47-7.29h.91l6.48,3.39h.25l6.58-3.39h.81l-5.42,7.29h-4.15Z"/><path class="cls-4" d="M875.54,805.97v-.86l1.62-.3c.47-.1,.82-.22,1.04-.35,.22-.13,.37-.32,.46-.56,.08-.24,.13-.59,.13-1.06v-19.13l-3.04-1.21v-.71l8.65-2.12,.41,.3v22.87c0,.47,.03,.83,.1,1.09s.21,.43,.43,.53c.22,.1,.51,.2,.89,.3l1.72,.35v.86h-12.4Zm6.17-29.76c-1.01,0-1.86-.32-2.53-.96-.67-.64-1.01-1.48-1.01-2.53,0-.98,.34-1.8,1.01-2.45,.67-.66,1.52-.99,2.53-.99s1.9,.33,2.56,.99,.99,1.48,.99,2.45c0,1.05-.33,1.89-.99,2.53-.66,.64-1.51,.96-2.56,.96Z"/><path class="cls-4" d="M891.02,805.97v-.86l1.62-.3c.44-.1,.77-.22,.99-.35,.22-.13,.37-.32,.46-.56,.08-.24,.13-.59,.13-1.06v-19.13l-2.99-1.16v-.76l8.65-2.12,.41,.3v4.71h.25c1.28-1.79,2.68-3.09,4.2-3.92,1.52-.83,3.15-1.24,4.91-1.24,2.26,0,4.05,.68,5.36,2.02,1.32,1.35,1.97,3.37,1.97,6.07v15.13c0,.51,.03,.89,.1,1.14,.07,.25,.21,.45,.43,.58,.22,.14,.53,.24,.94,.3l1.57,.35v.86h-12.2v-.86l1.62-.3c.4-.13,.72-.26,.94-.38,.22-.12,.36-.3,.43-.56,.07-.25,.1-.63,.1-1.14v-13.61c0-1.99-.37-3.48-1.11-4.48s-1.91-1.49-3.49-1.49c-1.08,0-2.12,.25-3.11,.73s-1.96,1.24-2.91,2.25v16.7c0,.47,.03,.83,.1,1.09s.2,.43,.41,.53c.2,.1,.49,.2,.86,.3l1.62,.35v.86h-12.25Z"/><path class="cls-4" d="M935.15,806.47c-1.75,0-3.37-.31-4.86-.94-1.48-.62-2.76-1.53-3.82-2.71-1.06-1.18-1.89-2.58-2.48-4.2-.59-1.62-.88-3.42-.88-5.42,0-2.77,.56-5.18,1.67-7.24,1.11-2.06,2.61-3.65,4.48-4.78,1.87-1.13,3.96-1.7,6.25-1.7,1.96,0,3.69,.38,5.21,1.14,1.52,.76,2.73,1.89,3.64,3.39,.91,1.5,1.43,3.42,1.57,5.74l-.25,.35h-17.05l.1-.96,11.44-.86c-.14-2.5-.61-4.38-1.42-5.64-.81-1.27-1.97-1.9-3.49-1.9-1.28,0-2.38,.46-3.29,1.39-.91,.93-1.59,2.18-2.02,3.77-.44,1.59-.66,3.41-.66,5.47,0,2.5,.35,4.6,1.06,6.3,.71,1.7,1.7,3,2.99,3.9,1.28,.89,2.8,1.34,4.55,1.34,1.42,0,2.69-.29,3.82-.86,1.13-.57,2.23-1.5,3.32-2.78l.71,.56c-1.08,2.09-2.5,3.72-4.28,4.88s-3.87,1.75-6.3,1.75Z"/></g><path class="cls-4" d="M695.7,195.99c-.11,49.87-60.08,75.67-96.17,40.77-23.51-22.52-23.12-58.79,.2-81.34,35.49-34.78,96.78-9.24,95.98,40.57h0Zm-5,0c-1.36-53.65-74.18-68.24-94.81-18.39-.9,2.99-2.45,5.87-2.06,9.14,.2,1.61-.41,3.06-.55,4.61-1.7,13.95,3.05,28.44,12.97,38.69,29.76,31.48,84.94,9.59,84.45-34.05h0Z"/><path class="cls-4" d="M332.33,187.97c-27.02-20.14-51.57-10.04-57.95,22.82-.9,4.53-7.65,2.75-6.11-1.64,7.33-22.32,21.69-40.91,47.63-34.59,7.13,1.7,13.71,4.43,20.17,8.3,1.5,.9,1.99,2.85,1.09,4.36-1,1.7-3.36,2.05-4.83,.75h0Z"/><path class="cls-4" d="M259.09,216.31c-3.42,.64-7.12,1.6-10.49,2.5-.47,.23-2.03,.38-2.42,.76-.54,.23-.99,1.57-1.29,2.01-2.08,4.08-4.32,8.69-5.53,13.07-.05,.64,.55,1.26,1.09,1,11.4,1.91,22.21,8.34,32.15,13.64,1.29,.98,1.87-1.28,3.36-3.65,2.68-4.54,4.82-9.56,6.73-14.41,.31-.53-.76-3.18-.83-3.72-.56-3.76-5.1-9.52,.07-11.76,1.99-.72,4.18,.31,4.9,2.3,.58,3.27,.66,6.67,1.3,9.93,.32,1.64,.39,3.46-.24,5.05-2.33,5.05-4.68,9.77-6.3,15.1-.95,2.87-1.58,6.26-4.77,8.02-3.08,2.11-7.22,.99-10.28-.19-9.72-3.05-19.66-5.74-28.18-11.58-.45-.28-1.38-.87-1.85-1.12-3.82-2.25-5.38-7.42-3.32-11.25,0,0,2.01-3.19,2.01-3.19,1.88-2.92,3.43-6.42,4.92-9.56,.61-1.35,1.34-3.02,2.56-3.95,1.07-1.01,2.76-1.53,4.11-2.07,3.27-1.24,6.8-2.67,9.95-4.16,5.21-2.21,7.86,5.94,2.35,7.22h0Z"/><g><path class="cls-4" d="M614.22,202.29c0,.27-.01,.68-.04,1.23-.03,.55-.04,.97-.04,1.24,0,.2-.15,.3-.45,.3,.1,0-.33-.04-1.3-.11-.97-.07-2.4-.11-4.31-.11-.65,0-1.63,.01-2.95,.04-1.31,.03-2.3,.04-2.96,.04-.21,0-.34-.09-.4-.27l-.36-1.98c0-.11,.32-.22,.96-.33,.71-.13,1.16-.27,1.35-.43,1.27-1.11,2.52-2.42,3.75-3.93,1.58-1.97,2.38-3.46,2.38-4.48,0-.83-.34-1.52-1.02-2.06-.63-.5-1.37-.76-2.21-.76s-1.63,.16-2.45,.48c-.56,.22-1.12,.51-1.68,.88l-.71,.48c-.07,0-.12,0-.15-.01-.09-.05-.15-.21-.16-.48,0-.22-.04-.54-.08-.95-.19-.83-.29-1.17-.29-1.02,0-.07,.07-.16,.21-.26,.73-.56,1.68-1.02,2.83-1.37,1.11-.34,2.15-.51,3.13-.51,1.69,0,3.07,.39,4.16,1.18,1.24,.89,1.85,2.15,1.85,3.78,0,1.78-1.61,4.27-4.84,7.48-.36,.42-.92,1.02-1.69,1.8,.24,.02,.54,.03,.89,.03,1.8,0,3.85-.11,6.17-.33h.11c.19-.01,.29,.13,.29,.43Z"/><path class="cls-4" d="M630.59,196.54c0,2.31-.68,4.3-2.05,5.96-1.46,1.79-3.32,2.68-5.58,2.68s-4.11-.89-5.56-2.68c-1.37-1.68-2.06-3.66-2.06-5.96s.69-4.28,2.06-5.94c1.46-1.77,3.31-2.65,5.56-2.65s4.12,.88,5.58,2.64c1.36,1.66,2.05,3.64,2.05,5.95Zm-3.23,0c0-1.41-.37-2.63-1.11-3.66-.82-1.13-1.92-1.69-3.28-1.69s-2.45,.56-3.27,1.69c-.72,1.01-1.09,2.23-1.09,3.66s.37,2.63,1.1,3.67c.82,1.15,1.91,1.73,3.26,1.73s2.38-.59,3.24-1.77c.77-1.07,1.15-2.28,1.15-3.63Z"/><path class="cls-4" d="M647.39,196.54c0,2.31-.68,4.3-2.05,5.96-1.46,1.79-3.32,2.68-5.58,2.68s-4.11-.89-5.56-2.68c-1.37-1.68-2.06-3.66-2.06-5.96s.69-4.28,2.06-5.94c1.46-1.77,3.31-2.65,5.56-2.65s4.12,.88,5.58,2.64c1.37,1.66,2.05,3.64,2.05,5.95Zm-3.23,0c0-1.41-.37-2.63-1.11-3.66-.82-1.13-1.92-1.69-3.28-1.69s-2.45,.56-3.27,1.69c-.72,1.01-1.09,2.23-1.09,3.66s.37,2.63,1.1,3.67c.82,1.15,1.91,1.73,3.26,1.73s2.38-.59,3.24-1.77c.77-1.07,1.15-2.28,1.15-3.63Z"/><path class="cls-4" d="M670.48,204.3c0,.36-.11,.54-.32,.54-.14,0-.35-.01-.62-.04-.28-.03-.49-.04-.64-.04-.16,0-.39,0-.7,.03-.31,.02-.55,.03-.7,.03-.19,0-.29-.22-.29-.65s.02-1.05,.05-1.89c.03-.84,.05-1.47,.05-1.89,0-2.32,0-3.61-.03-3.88-.07-.94-.27-1.59-.58-1.95-.36-.38-.99-.58-1.91-.58-.58,0-1.23,.27-1.95,.82-.75,.58-1.14,1.14-1.17,1.7-.04,.71-.06,2.02-.06,3.92,0,.45,.02,1.12,.06,2.02,.04,.9,.06,1.57,.06,2.02,0,.25-.08,.37-.25,.37s-.41-.01-.72-.04c-.32-.03-.56-.04-.72-.04-.15,0-.36,0-.65,.03-.28,.02-.5,.03-.65,.03-.18,0-.27-.13-.27-.4,0-.44,.01-1.1,.04-1.99,.03-.88,.04-1.55,.04-1.99v-3.31c0-1.03-.12-1.77-.37-2.21-.35-.62-1.01-.93-1.99-.93-.58,0-1.26,.24-2.06,.73-.88,.53-1.32,1.07-1.32,1.61v4.01c0,.46,0,1.14,.01,2.05s.01,1.58,.01,2.03c0,.27-.11,.4-.32,.4h-2.56c-.18,0-.27-.12-.27-.37,0-.74,0-1.86,.01-3.35,0-1.49,.01-2.6,.01-3.35,0-1.68-.18-3.35-.54-5.02-.03-.12-.04-.22-.04-.29,0-.12,.04-.19,.12-.21,.34-.04,.83-.11,1.48-.21,.3-.09,.76-.19,1.36-.3h.11c.11-.01,.21,.31,.31,.95,.1,.65,.18,.97,.25,.97l.69-.6c.54-.47,1.08-.84,1.62-1.11,.78-.4,1.56-.6,2.34-.6,2.11,0,3.45,.86,4.03,2.58,.57-.73,1.27-1.34,2.12-1.81,.9-.51,1.79-.77,2.67-.77,1.69,0,2.87,.49,3.52,1.48,.47,.73,.7,1.89,.7,3.48,0,.3,0,.77-.03,1.4s-.03,1.1-.03,1.4c0,.58,.01,1.44,.04,2.6,.03,1.16,.04,2.03,.04,2.6Z"/><path class="cls-4" d="M676.67,185.76v.18c-.22,3.41-.32,6.33-.32,8.78,0,1.09,.02,2.72,.06,4.9,.04,2.18,.06,3.8,.06,4.88,0,.21-.07,.32-.22,.32h-2.62c-.16,0-.25-.11-.25-.32,0-1.08,0-2.71,.03-4.88,.02-2.18,.03-3.81,.03-4.9,0-.99-.05-2.48-.14-4.46s-.14-3.47-.14-4.44c0-.18,.1-.27,.29-.27,.16,0,.41,.01,.74,.04,.33,.03,.58,.04,.74,.04,.17,0,.43-.01,.77-.04,.34-.03,.59-.04,.76-.04s.24,.07,.23,.22Z"/></g></svg>