<?xml version="1.0" encoding="UTF-8"?><svg id="Layer_1" xmlns="http://www.w3.org/2000/svg" viewBox="0 0 1199.91 900"><defs><style>.cls-1{fill:#c7ad44;}.cls-2{fill:#231f20;}</style></defs><path class="cls-1" d="M414.34,485.77c54.77-54.97,163.98-58.04,238.6-51.53,30.28,2.64,66.6,8.28,95.29,22.01,15.06,7.21,39.07,18.94,62.58,33.89-38.92,25.06-109.01,32.61-151.5,35.64-55.43,.69-110.88,1.81-165.66-12.33-5.57-1.56-11.15-3.13-16.73-4.7-12.42-6.49-50.15-16.48-62.58-22.97Z"/><path d="M399,483.38c1.09-.18,1.99-2.63,1.81-2.57,.76,1.39,1.12,3.01,1.3,4.55-.47,81.52,51.6,141.15,130.98,156.64,110.9,21.38,306.97-2.02,290.69-153.82-.02-.04,4.96,2.77,4.95,2.76-34.03,15.83-69.8,26.3-106.33,33.61-106.14,20.73-227.48,11.08-323.4-41.18h0Zm-3.44-6.01c18.47,5.74,36.12,13.99,54.44,19.59,51.95,17.47,106.7,26.46,161.48,27.12,72.8,.7,146.77-11.75,214.24-39.37,1.72-.89,3.92-.17,4.68,1.64,20.09,159.23-182.09,187.45-299.31,164.96-68.69-13.11-123.74-60.52-136.06-131.06-1.89-12.31-4.48-25.24-2.44-37.63,.23-.81,.68-1.66,1.13-2.38-.17-.04,.73-2.6,1.83-2.88h0Z"/><path d="M395.95,492.46c-13.73-21.27,20.16-45.21,36.35-53.47,2.85-1.45,5.76-2.81,8.59-4.35,1.41-.76,3.17-.24,3.93,1.16,.89,1.6,.02,3.65-1.73,4.17-16.13,6.05-34.78,16.65-38.38,34.78-1.36,3.71-1.35,23.7-8.76,17.7h0Z"/><path d="M602.43,406.47c51.68-4.37,225.03,13.73,227.66,80.9-.13,3.34-4.47,3.9-5.74,.91-7.74-18.83-22.06-31.43-40.59-39.87-37.25-16.94-78.93-23.94-119.51-29.06-20.63-2.28-41.35-4.06-62-7.08-3.27-.42-3.29-5.57,.18-5.8h0Z"/><path d="M443.36,277.49c-25.09-56.93-50.51-119.26-73.63-177-5.95-10.98-.68-25.41,11.5-29.12,2.68-1.1,5.56-1.97,8.48-1.95,9.29-.35,17.39,6.62,19.81,15.31l9.94,25.52c11.72,29.51,27.65,72.23,38.98,102.37,6.2,17.18,12.61,34.28,18.61,51.53,.35,1.02-.18,2.14-1.21,2.49-.97,.34-2.02-.14-2.43-1.05-7.44-16.69-14.47-33.54-21.71-50.3l-21.05-50.56c-10.63-25.36-21.64-53.58-32.08-79.14-2.14-5.16-8.67-6.83-13.38-4.2-5.2,1.36-8.85,6.97-6.86,12.22,15.87,40.59,34.82,89.75,50.07,130.91,6.19,17.18,12.6,34.28,18.59,51.54,.82,2.21-2.68,3.73-3.64,1.44h0Z"/><path d="M476.55,317.06c-13.45,4.16-28.37,12.04-33.15,25.86-4.6,14.2,4.79,29.03,9.34,42.32,11.7,27.1,25.21,56.91,48.49,75.37,5.38,1.85,21.74,6.8,31.16,6.46,10.51,.38,20.82-2.25,28.39-9.55,19.35-15.52,11.65-37.52,.75-56.07-9.79-25.15-18.7-50.67-28.06-76-9.29-21.96-39.18-14.73-56.93-8.4h0Zm-2.07-6.32c21.91-9.3,56.68-14.44,67.15,11.61,9.83,24.85,19.88,49.62,29.41,74.59,12.34,19.84,21.36,48.25-3.37,68.34-9.38,8.89-23.09,12.57-35.63,11.64-12.67-.84-24.7-3.78-36.13-9.03-25.14-21.01-37.55-50.94-49.48-80.14-4.94-15.09-13.92-30.41-8.71-46.76,5.7-16.08,21.66-25.12,36.75-30.25h0Z"/><path d="M589.25,274.66c-8.81-18.55-24.81-30.8-45.94-24.87-5.23,1.41-7.7-6.14-2.63-8.04,24.57-10.68,50.22,5.28,56.61,30.27,1.33,5.07-6.1,7.46-8.04,2.63h0Z"/><path d="M562.33,295.18c-2.89-9.99-9.44-16.73-20.45-15.23l-5.37,.92c-3.45,.77-9.33,3.56-10.61-1.57-.35-1.73,.51-3.43,1.99-4.22,8.31-4.42,17.42-7.39,27.06-4.32,10.07,3.37,15.61,13.83,15.17,23.9-.07,2.15-1.88,3.83-4.02,3.76-1.93-.05-3.32-1.49-3.76-3.23h0Z"/><path d="M367.66,312.3c-11.73,16.85-14.43,36.83,1.21,52.22,3.85,3.76-1.59,9.77-5.67,6.27-21.46-16.03-20.33-46.22-1.8-64.17,3.74-3.67,9.5,1.6,6.27,5.67h0Z"/><path d="M398.83,325.48c-9.71,10.24-9.12,19.39,.39,29.52,2.38,2.62,7.73,6.33,3.9,9.99-1.33,1.16-3.22,1.26-4.65,.37-7.96-5.02-15.05-11.46-17.18-21.35-2.07-10.41,4.26-20.41,13.22-25.03,1.9-1,4.26-.27,5.26,1.63,.91,1.7,.36,3.63-.94,4.86h0Z"/><path d="M479.53,356.6c5.74,25.2,15.05,52.75,33.47,71.29,5.44,4.56-1.47,12.91-6.97,8.36-5.16-6.23-8.01-13.51-11.29-20.03-8.79-18.76-15.93-37.65-25.43-56.19-3.49-7.47,8.45-11.55,10.22-3.44h0Z"/><path d="M508.37,345.81c5.74,25.2,15.05,52.75,33.47,71.29,5.44,4.56-1.47,12.91-6.97,8.36-5.15-6.23-8.01-13.51-11.28-20.03-8.79-18.76-15.93-37.65-25.44-56.19-3.49-7.47,8.45-11.55,10.22-3.44h0Z"/><path d="M514.51,489.92c14.75,9.91,34.42,10.85,51.77,9.73,6.14-.63,12.25-1.98,17.96-4.84,6.16-2.94,10.73,6.18,4.64,9.34-4.08,1.27-8.63-.58-12.75,.03-19.07,.7-38.28,2.26-57.04-2.56-4.33-1.41-15.15-2.77-12.38-10,1.33-2.99,5.36-3.85,7.8-1.7h0Z"/><path d="M683.46,467.36c-16.11-14.29-40.37-15.58-61.04-15.49-7.26,.3-14.49,1.13-21.64,2.48-2.96,.57-5.81-1.36-6.38-4.31-.57-2.95,1.36-5.81,4.31-6.38,.5-.09,1.04-.12,1.52-.08l22.38,2c22.8,2.26,44.83,5.71,66.81,12.78,3.02,.99,4.64,4.31,3.51,7.29-1.35,3.94-6.85,4.89-9.48,1.7h0Z"/><g><path class="cls-2" d="M388.71,809.09v-.49l2.32-.38c.47-.11,.82-.22,1.05-.32,.23-.11,.4-.28,.49-.51,.09-.23,.13-.55,.13-.94v-32.47c0-.43-.05-.75-.13-.97-.09-.22-.25-.39-.49-.51-.23-.12-.58-.22-1.05-.3l-2.32-.38v-.49h16.5c2.95,0,5.7,.38,8.25,1.13,2.55,.75,4.81,1.89,6.77,3.4,1.96,1.51,3.49,3.4,4.58,5.66,1.1,2.27,1.65,4.89,1.65,7.87,0,4.06-.9,7.57-2.7,10.52-1.8,2.95-4.27,5.21-7.42,6.8-3.15,1.58-6.81,2.37-10.98,2.37h-16.67Zm13.16-.97h3.72c2.73,0,5.14-.73,7.23-2.18,2.08-1.46,3.72-3.53,4.91-6.23,1.19-2.7,1.78-5.88,1.78-9.55,0-3.96-.67-7.25-2-9.9-1.33-2.64-3.18-4.63-5.56-5.96-2.37-1.33-5.11-2-8.2-2h-4.48v33.06c0,1.04,.15,1.76,.46,2.16,.31,.4,1.02,.59,2.13,.59Z"/><path class="cls-2" d="M444.8,809.57c-2.62,0-4.95-.55-6.98-1.64-2.03-1.1-3.62-2.69-4.77-4.77-1.15-2.08-1.73-4.64-1.73-7.66,0-2.23,.34-4.24,1.02-6.04,.68-1.8,1.65-3.33,2.89-4.61,1.24-1.28,2.7-2.26,4.37-2.94s3.48-1.03,5.42-1.03c2.62,0,4.96,.54,7.01,1.62,2.05,1.08,3.65,2.66,4.8,4.75,1.15,2.09,1.73,4.66,1.73,7.71,0,2.23-.35,4.23-1.05,6.01s-1.66,3.32-2.89,4.61c-1.22,1.29-2.67,2.28-4.34,2.97-1.67,.68-3.5,1.02-5.47,1.02Zm.59-.75c1.11,0,2.07-.31,2.86-.94,.79-.63,1.45-1.49,1.97-2.59,.52-1.1,.91-2.34,1.16-3.72,.25-1.38,.38-2.85,.38-4.4,0-2.16-.14-4.17-.43-6.04-.29-1.87-.73-3.51-1.32-4.94-.59-1.42-1.35-2.53-2.27-3.34-.92-.81-2-1.21-3.26-1.21-1.11,0-2.07,.31-2.86,.92-.79,.61-1.46,1.47-2,2.56s-.93,2.34-1.16,3.72c-.23,1.38-.35,2.87-.35,4.45,0,2.12,.13,4.12,.4,5.99,.27,1.87,.7,3.52,1.29,4.96,.59,1.44,1.36,2.56,2.29,3.37,.93,.81,2.03,1.21,3.29,1.21Z"/><path class="cls-2" d="M476.9,809.57c-1.47,0-2.96-.15-4.45-.46-1.49-.31-2.89-.71-4.18-1.21-1.29-.5-2.41-1.1-3.34-1.78v-33.33l-3.24-1.19v-.32l9.33-2.27,.27,.16v17.58h.27c1.19-1.87,2.56-3.32,4.13-4.34,1.56-1.02,3.33-1.54,5.31-1.54,1.58,0,3.02,.32,4.31,.97,1.29,.65,2.38,1.56,3.26,2.72,.88,1.17,1.56,2.56,2.02,4.18s.7,3.38,.7,5.29c0,1.8-.22,3.5-.65,5.1-.43,1.6-1.06,3.04-1.89,4.32-.83,1.28-1.83,2.37-3.02,3.29-1.19,.92-2.52,1.62-3.99,2.1-1.47,.49-3.09,.73-4.85,.73Zm0-.75c1.37,0,2.62-.48,3.78-1.43,1.15-.95,2.08-2.36,2.78-4.23,.7-1.87,1.05-4.17,1.05-6.9s-.28-4.88-.84-6.66c-.56-1.78-1.36-3.13-2.4-4.04-1.04-.92-2.25-1.38-3.61-1.38-1.19,0-2.31,.32-3.37,.94-1.06,.63-2.06,1.56-2.99,2.78v12.67c0,2.98,.51,5.11,1.54,6.36,1.02,1.26,2.38,1.89,4.07,1.89Z"/><path class="cls-2" d="M495.23,809.09v-.43l1.73-.32c.36-.11,.64-.21,.84-.3,.2-.09,.33-.22,.4-.4,.07-.18,.11-.41,.11-.7v-22.06l-2.97-1.29v-.32l9.01-2.21,.32,.22v8.04h.27c.61-1.58,1.29-2.97,2.05-4.18,.75-1.2,1.65-2.15,2.67-2.83,1.02-.68,2.24-1.02,3.64-1.02h.92v5.72l-.22,.16h-6.63c-.47,.4-.91,.85-1.32,1.38-.41,.52-.87,1.25-1.38,2.18v16.13c0,.29,.04,.53,.11,.73,.07,.2,.19,.34,.35,.43s.39,.15,.67,.19l3.24,.49v.43h-13.81Z"/><path class="cls-2" d="M529.97,809.57c-2.62,0-4.95-.55-6.98-1.64-2.03-1.1-3.62-2.69-4.77-4.77-1.15-2.08-1.73-4.64-1.73-7.66,0-2.23,.34-4.24,1.02-6.04,.68-1.8,1.65-3.33,2.89-4.61,1.24-1.28,2.7-2.26,4.37-2.94s3.48-1.03,5.42-1.03c2.62,0,4.96,.54,7.01,1.62,2.05,1.08,3.65,2.66,4.8,4.75,1.15,2.09,1.73,4.66,1.73,7.71,0,2.23-.35,4.23-1.05,6.01s-1.66,3.32-2.89,4.61c-1.22,1.29-2.67,2.28-4.34,2.97-1.67,.68-3.5,1.02-5.47,1.02Zm.59-.75c1.11,0,2.07-.31,2.86-.94,.79-.63,1.45-1.49,1.97-2.59,.52-1.1,.91-2.34,1.16-3.72,.25-1.38,.38-2.85,.38-4.4,0-2.16-.14-4.17-.43-6.04-.29-1.87-.73-3.51-1.32-4.94-.59-1.42-1.35-2.53-2.27-3.34-.92-.81-2-1.21-3.26-1.21-1.11,0-2.07,.31-2.86,.92-.79,.61-1.46,1.47-2,2.56s-.93,2.34-1.16,3.72c-.23,1.38-.35,2.87-.35,4.45,0,2.12,.13,4.12,.4,5.99,.27,1.87,.7,3.52,1.29,4.96,.59,1.44,1.36,2.56,2.29,3.37,.93,.81,2.03,1.21,3.29,1.21Z"/><path class="cls-2" d="M559.25,820.52v-.43l1.67-.32c.36-.11,.65-.21,.86-.3,.22-.09,.36-.23,.43-.41,.07-.18,.11-.41,.11-.7v-33.55l-2.97-1.29v-.32l9.06-2.16,.27,.22v5.5h.27c1.22-1.87,2.61-3.32,4.15-4.34,1.55-1.02,3.31-1.54,5.29-1.54,1.58,0,3.02,.32,4.31,.97,1.29,.65,2.38,1.56,3.26,2.72,.88,1.17,1.55,2.56,2.02,4.18,.47,1.62,.7,3.38,.7,5.29s-.23,3.66-.67,5.26c-.45,1.6-1.09,3.04-1.91,4.31-.83,1.28-1.83,2.36-2.99,3.24-1.17,.88-2.47,1.56-3.91,2.02-1.44,.47-3,.7-4.69,.7-.94,0-1.9-.12-2.89-.35-.99-.23-1.97-.66-2.94-1.27v10.36c0,.29,.04,.53,.11,.73,.07,.2,.2,.34,.38,.43,.18,.09,.45,.17,.81,.24l2.8,.38v.43h-13.54Zm15.05-11.7c1.37,0,2.62-.48,3.78-1.43,1.15-.95,2.08-2.36,2.78-4.23,.7-1.87,1.05-4.17,1.05-6.9s-.28-4.88-.84-6.66c-.56-1.78-1.36-3.13-2.4-4.04-1.04-.92-2.25-1.38-3.61-1.38-1.19,0-2.31,.32-3.37,.94-1.06,.63-2.06,1.56-2.99,2.78v12.67c0,2.98,.53,5.11,1.59,6.36,1.06,1.26,2.4,1.89,4.02,1.89Z"/><path class="cls-2" d="M592.64,809.09v-.43l1.73-.32c.36-.11,.64-.21,.84-.3,.2-.09,.33-.22,.4-.4,.07-.18,.11-.41,.11-.7v-22.06l-2.97-1.29v-.32l9.01-2.21,.32,.22v8.04h.27c.61-1.58,1.29-2.97,2.05-4.18,.76-1.2,1.65-2.15,2.67-2.83,1.03-.68,2.24-1.02,3.64-1.02h.92v5.72l-.22,.16h-6.63c-.47,.4-.91,.85-1.32,1.38-.41,.52-.87,1.25-1.38,2.18v16.13c0,.29,.04,.53,.11,.73,.07,.2,.19,.34,.35,.43s.39,.15,.67,.19l3.24,.49v.43h-13.81Z"/><path class="cls-2" d="M627.37,809.57c-2.62,0-4.95-.55-6.98-1.64s-3.62-2.69-4.77-4.77c-1.15-2.08-1.73-4.64-1.73-7.66,0-2.23,.34-4.24,1.03-6.04,.68-1.8,1.64-3.33,2.88-4.61,1.24-1.28,2.7-2.26,4.37-2.94s3.48-1.03,5.42-1.03c2.62,0,4.96,.54,7.01,1.62,2.05,1.08,3.65,2.66,4.8,4.75,1.15,2.09,1.73,4.66,1.73,7.71,0,2.23-.35,4.23-1.05,6.01s-1.66,3.32-2.89,4.61c-1.22,1.29-2.67,2.28-4.34,2.97s-3.5,1.02-5.47,1.02Zm.59-.75c1.11,0,2.07-.31,2.86-.94,.79-.63,1.45-1.49,1.97-2.59,.52-1.1,.91-2.34,1.16-3.72s.38-2.85,.38-4.4c0-2.16-.14-4.17-.43-6.04-.29-1.87-.73-3.51-1.32-4.94-.59-1.42-1.35-2.53-2.27-3.34-.92-.81-2-1.21-3.26-1.21-1.12,0-2.07,.31-2.86,.92-.79,.61-1.46,1.47-2,2.56-.54,1.1-.93,2.34-1.16,3.72-.23,1.38-.35,2.87-.35,4.45,0,2.12,.13,4.12,.4,5.99,.27,1.87,.7,3.52,1.29,4.96,.59,1.44,1.36,2.56,2.29,3.37,.93,.81,2.03,1.21,3.29,1.21Z"/><path class="cls-2" d="M644.85,809.09v-.43l1.73-.32c.36-.11,.64-.21,.84-.3,.2-.09,.33-.22,.4-.4,.07-.18,.11-.41,.11-.7v-22.11l-2.97-1.29v-.32l9.01-2.16,.32,.22v5.29h.22c1.4-1.91,2.87-3.33,4.4-4.26,1.53-.93,3.26-1.4,5.2-1.4,1.83,0,3.39,.47,4.67,1.4,1.28,.94,2.11,2.36,2.51,4.26h.27c1.51-1.94,3.05-3.37,4.61-4.29s3.26-1.38,5.1-1.38c2.34,0,4.19,.69,5.56,2.08,1.37,1.38,2.05,3.53,2.05,6.44v17.53c0,.29,.03,.52,.08,.7s.17,.32,.35,.4c.18,.09,.41,.17,.7,.24l1.78,.38v.43h-12.35v-.43l1.83-.32c.32-.11,.58-.21,.75-.3,.18-.09,.31-.22,.38-.4,.07-.18,.11-.41,.11-.7v-15.91c0-2.23-.38-3.89-1.13-4.99-.76-1.1-2-1.65-3.72-1.65-1.19,0-2.28,.25-3.29,.75-1.01,.5-1.98,1.26-2.91,2.27,.04,.29,.06,.59,.08,.92,.02,.32,.03,.65,.03,.97v17.64c0,.29,.04,.52,.11,.7s.19,.32,.35,.4c.16,.09,.39,.17,.67,.24l1.78,.38v.43h-12.35v-.43l1.83-.32c.32-.11,.58-.21,.78-.3,.2-.09,.32-.22,.38-.4s.08-.41,.08-.7v-16.02c0-2.16-.35-3.78-1.05-4.88s-1.86-1.65-3.48-1.65c-1.19,0-2.3,.26-3.34,.78-1.04,.52-2.05,1.3-3.02,2.35v19.42c0,.29,.03,.52,.08,.7,.05,.18,.16,.32,.32,.4,.16,.09,.39,.17,.67,.24l1.89,.38v.43h-12.4Z"/><path class="cls-2" d="M694.95,809.09v-.43l1.73-.32c.4-.11,.69-.21,.89-.3,.2-.09,.33-.22,.4-.4s.11-.41,.11-.7v-22.11l-3.02-1.29v-.32l9.06-2.16,.27,.22v25.67c0,.29,.04,.52,.11,.7,.07,.18,.19,.32,.35,.4,.16,.09,.39,.17,.67,.24l1.89,.38v.43h-12.46Zm6.36-31.77c-1.01,0-1.86-.34-2.56-1.02-.7-.68-1.05-1.55-1.05-2.59s.35-1.9,1.05-2.56c.7-.66,1.55-1,2.56-1s1.91,.33,2.62,1c.7,.67,1.05,1.52,1.05,2.56s-.35,1.91-1.05,2.59c-.7,.68-1.57,1.02-2.62,1.02Z"/><path class="cls-2" d="M709.67,821.01l-.32-.43,2-2.1c.68-.72,1.19-1.41,1.51-2.08,.32-.67,.54-1.43,.65-2.29,.11-.86,.16-1.92,.16-3.18v-26.1l-2.97-1.29v-.32l9.06-2.16,.27,.22v27.34c0,1.26-.11,2.33-.32,3.21-.22,.88-.58,1.67-1.11,2.37-.52,.7-1.21,1.39-2.05,2.08s-1.88,1.44-3.1,2.27l-3.78,2.48Zm7.23-43.69c-1.01,0-1.86-.34-2.56-1.02-.7-.68-1.05-1.55-1.05-2.59s.35-1.9,1.05-2.56c.7-.66,1.55-1,2.56-1s1.92,.33,2.62,1c.7,.67,1.05,1.52,1.05,2.56s-.35,1.91-1.05,2.59c-.7,.68-1.57,1.02-2.62,1.02Z"/><path class="cls-2" d="M739.07,809.57c-1.91,0-3.64-.34-5.21-1.02-1.56-.68-2.89-1.65-3.99-2.91-1.1-1.26-1.94-2.76-2.53-4.5-.59-1.74-.89-3.66-.89-5.74,0-2.95,.59-5.51,1.78-7.69s2.77-3.86,4.75-5.04c1.98-1.19,4.15-1.78,6.53-1.78,1.98,0,3.74,.36,5.29,1.08,1.55,.72,2.81,1.84,3.8,3.37,.99,1.53,1.57,3.51,1.75,5.96l-.16,.27h-18.01l.05-.54,12.4-.92c-.18-2.91-.69-5.05-1.54-6.42-.84-1.37-2.08-2.05-3.69-2.05-1.4,0-2.59,.52-3.56,1.56-.97,1.04-1.71,2.45-2.21,4.23-.5,1.78-.76,3.84-.76,6.17,0,2.66,.38,4.94,1.13,6.85,.75,1.91,1.83,3.35,3.21,4.34,1.38,.99,3.01,1.48,4.88,1.48,1.54,0,2.91-.32,4.1-.97s2.35-1.69,3.51-3.13l.38,.27c-1.04,2.19-2.47,3.93-4.29,5.2-1.82,1.28-4.05,1.92-6.71,1.92Z"/><path class="cls-2" d="M763.61,809.57c-1.04,0-2.14-.08-3.29-.24-1.15-.16-2.26-.38-3.32-.65s-2.04-.58-2.94-.94v-7.5h.43l.97,2c.9,1.76,1.79,3.11,2.67,4.04,.88,.94,1.79,1.59,2.72,1.97,.93,.38,1.92,.57,2.97,.57s1.92-.2,2.75-.59c.83-.39,1.48-.94,1.97-1.64s.73-1.54,.73-2.51-.24-1.86-.73-2.56-1.22-1.33-2.21-1.89c-.99-.56-2.26-1.14-3.8-1.75-1.65-.61-3.1-1.29-4.34-2.02-1.24-.74-2.21-1.64-2.91-2.7s-1.05-2.4-1.05-4.02c0-1.37,.26-2.56,.78-3.59,.52-1.03,1.23-1.89,2.13-2.59,.9-.7,1.94-1.22,3.13-1.56s2.46-.51,3.83-.51c1.62,0,3.25,.17,4.91,.51,1.65,.34,3.06,.8,4.21,1.38v7.17h-.43l-1.29-2.27c-.94-1.62-1.82-2.87-2.64-3.75-.83-.88-1.64-1.48-2.43-1.81-.79-.32-1.64-.49-2.53-.49-1.01,0-1.88,.2-2.62,.59-.74,.4-1.31,.94-1.73,1.62-.41,.68-.62,1.46-.62,2.32,0,1.51,.56,2.71,1.67,3.59,1.11,.88,2.8,1.75,5.07,2.62,1.69,.65,3.16,1.33,4.42,2.05,1.26,.72,2.24,1.6,2.94,2.64s1.05,2.39,1.05,4.04c0,1.8-.46,3.33-1.38,4.58s-2.16,2.22-3.72,2.88c-1.56,.67-3.35,1-5.37,1Zm-1.56-31.01l-5.72-7.66h.32l7.28,3.61h.22l7.33-3.61h.27l-5.66,7.66h-4.04Z"/><path class="cls-2" d="M784.64,809.57c-1.4,0-2.62-.24-3.64-.73-1.03-.49-1.8-1.14-2.32-1.97-.52-.83-.78-1.78-.78-2.86,0-1.76,.6-3.22,1.81-4.37,1.2-1.15,2.99-1.96,5.37-2.43l8.04-1.51v-7.39c0-2.34-.4-3.94-1.21-4.8-.81-.86-1.93-1.29-3.37-1.29-.68,0-1.33,.08-1.94,.24-.61,.16-1.21,.4-1.78,.73l-.05,5.93h-5.99l-.22-.27c.54-1.51,1.38-2.87,2.53-4.07,1.15-1.2,2.57-2.16,4.26-2.86s3.6-1.05,5.72-1.05c1.69,0,3.16,.25,4.42,.75,1.26,.5,2.24,1.36,2.94,2.56,.7,1.21,1.05,2.87,1.05,4.99v15.05c0,1.48,.49,2.21,1.46,2.21,.32,0,.63-.05,.92-.16,.29-.11,.61-.36,.97-.75l.27,.22c-.61,1.37-1.36,2.35-2.24,2.94-.88,.59-1.92,.89-3.1,.89-1.44,0-2.55-.4-3.34-1.19-.79-.79-1.22-2.08-1.29-3.88h-.22c-.9,1.55-2.06,2.78-3.48,3.69-1.42,.92-3.01,1.38-4.77,1.38Zm3.18-3.24c.93,0,1.87-.22,2.8-.67,.93-.45,1.76-1.2,2.48-2.24v-7.12l-4.69,1.19c-1.69,.47-2.89,1.07-3.59,1.81-.7,.74-1.05,1.75-1.05,3.05,0,1.19,.35,2.15,1.05,2.89,.7,.74,1.7,1.11,2.99,1.11Z"/><path class="cls-2" d="M815.06,809.57c-2.19,0-3.84-.58-4.93-1.75-1.1-1.17-1.65-2.96-1.65-5.37v-19.25h-2.48v-.32l8.52-7.28,.32,.11v5.93l7.17-.54,.27,.22-.22,2.1h-7.23v18.61c0,1.55,.3,2.67,.89,3.37,.59,.7,1.5,1.05,2.72,1.05,.68,0,1.32-.11,1.91-.32,.59-.22,1.23-.61,1.92-1.19l.27,.32c-.97,1.44-2.1,2.52-3.4,3.24-1.29,.72-2.66,1.08-4.1,1.08Z"/><path class="cls-2" d="M824.34,809.09v-.43l1.73-.32c.4-.11,.69-.21,.89-.3,.2-.09,.33-.22,.4-.4s.11-.41,.11-.7v-22.11l-3.02-1.29v-.32l9.06-2.16,.27,.22v25.67c0,.29,.04,.52,.11,.7,.07,.18,.19,.32,.35,.4,.16,.09,.39,.17,.67,.24l1.89,.38v.43h-12.46Zm6.36-31.77c-1.01,0-1.86-.34-2.56-1.02-.7-.68-1.05-1.55-1.05-2.59s.35-1.9,1.05-2.56c.7-.66,1.55-1,2.56-1s1.91,.33,2.62,1c.7,.67,1.05,1.52,1.05,2.56s-.35,1.91-1.05,2.59c-.7,.68-1.57,1.02-2.62,1.02Z"/></g></svg>